<mxfile host="65bd71144e">
    <diagram id="iJNPFXYa9L7dX91mEa3E" name="Page-1">
        <mxGraphModel dx="1243" dy="766" grid="1" gridSize="10" guides="1" tooltips="1" connect="1" arrows="1" fold="1" page="1" pageScale="1" pageWidth="850" pageHeight="1100" math="0" shadow="0">
            <root>
                <mxCell id="0"/>
                <mxCell id="1" parent="0"/>
                <mxCell id="2" value="" style="shape=image;verticalLabelPosition=bottom;labelBackgroundColor=default;verticalAlign=top;aspect=fixed;imageAspect=0;image=data:image/jpeg,/9j/4AAQSkZJRgABAQAAAQABAAD/2wCEAAYGBgYHBgcICAcKCwoLCg8ODAwODxYQERAREBYiFRkVFRkVIh4kHhweJB42KiYmKjY+NDI0PkxERExfWl98fKcBBgYGBgcGBwgIBwoLCgsKDw4MDA4PFhAREBEQFiIVGRUVGRUiHiQeHB4kHjYqJiYqNj40MjQ+TERETF9aX3x8p//CABEIBQAD6wMBIgACEQEDEQH/xAAvAAADAQEBAQAAAAAAAAAAAAAAAQIDBAUGAQEBAQEAAAAAAAAAAAAAAAAAAQID/9oADAMBAAIQAxAAAALYFcOWihAADQAAMAAAEUwBoAABoGIGIABGAAAIBgAClYAAqYiGAAgYgYgYgYgYgbkKJBuQpSFkhRKLJKokKJCiQpwFqQpwFCCiAsgKcCWpa0SFSMVJFEhRIUkFEhSQVICaYIAEDYwGGYECYIaEwEMEMExklIEwQwQygAAAAAAAABgAIaBoAAGmAIYgYgYiKSBgA5ChIokKEFJAxBRIUSVRIUSFEhQgYkUAAmAAAxDkaoEqQDBAxFBI2S2hFBJSEWEMogsIVMgtElhFAMAzAgCQGCVIRQSMAYS1QlSE2CKkYwQFAwTTAAAcIaGACapgE1NAAJpgmhgQJoYAmmAACY5aG0wmpKAE0wAE06E0MAE0UIBpjTImkDmpKABOaoAmpoABVNBNIYAk0UAJpgAJphNIYAkIoGZAQTSE5ClKNCQYpLMqKrOTZSFVzNd0hKMmuhIlPNjcSupjolPMXRJpRnC7rK7LIRbya6LLQKkSkiG5BiRZIFQyiWDljQimmJOCiLByxphLHRNIBglSAoJpUIoJGyVSgbBKlSKCWUSNkUmIYIYIYJgIYAwi5oSEWASVIxozAgmkTGmK4S+1ZobKw34mo6a0IzrA6K5ekycZr2Tz7pLiF6q5uhJ0yyOmGzm6vO7zN58i+npjozCOdrfTl6EJzxXsuNGcrw1XR5VZqpqQz14V6lz0dM5M2MIOjSM0Nscl6zg7DUlo+Lt5F1t8xevPuO+LrM5A2OdmlZ5HQ+a66Di60ollyIdZ2NOYsljlzVyAOEaOCGQVbzDQzZopk1M2UZs0IA0xZcEm5nRUgMYZAQJgstEvF1YYr2LJm2OuqcOxSrDsyObs0Zz83agWiOTapOXvBHxdwc/QBz1tkZZ9yWLTScekFNlcr684WiZjz9rE1SIAfL1CvLVJyvqa8G+4c66URydzORdiIdNJy3F5l2Bx67FmNaEcWnRS8mm8hnq7OGuySOXvIydFSUEUMRSAYJUgGRKbEMqWMQ0MYSNDGEaQykwljJm0UDECKaZkBAATcUJUgGCBFiAcsaEJzVCaKAgTkbQDljaBNME0AFNOSgIBOhoFUuAAGmCaGCGJgAKpY0IYA05qxOEBTECaYJoYgaEUSDcsYgHIUkFCBoRQiByxiVDkKEFCBy5KEE2mNoCpY00NoBNDAMwIBolyFJIokKSC1hS6ISUThW9YbDIsbTgmppgQmADRFZa0wABiTAKCRgJoBUIaATAEDjRUxIzNlicCpCcu2lLSgAaBozLaYIBgxKsjQlFOYNWgjTn1LRBoIUM0akSmpmLqs2VmrNJlpYIaiDd8+y1UUjQA5Y0pNCUWkFAiAIE0TnrzBroLzac9qbGSdXF28h1A0WO/Poa43Usk1rn6cnDgtYXWrjKXpBycu+Ouq1KjSFNavk60tKYtZ6D5+jlqtMrptEKY1pUXLi40q5z6IypZVprz9OYTXOb475252BWWdWazpjG2O2ZoQinlpWtY7ZGG8FYXpWTuTSRxiWtAuYjfO5cTRUpq0x6MWsq2RWgZ49DSmEYrdVnVkstNGCE0xKkNMBoLAMwIACQo4urRW+d09BGePUhZ7ZWUihY9DMXZXNfQGOrcTh0oyrQOU6ptRRJmWzPPoKxNWYvaYnLoyrHcuIx0WlGhlmtggtkF5jnQWTPUBiSKS5sJoYlSHGgZO8x1lsIcVohDcXANDASQ5LewcwPn6CTDarHlGhNDM4rbLblXrObokdRQ5aAHBNSrRFlCYMBNUJNDGyVSBgQwgAJaKFzq3oM0bznknUsNR1BFGKt2zma1c9EkaYbQ00MGThvjVkhKt252kFMkdRcWkxzcnLunpmyY1zYO+XrHhvnGgByFmroZqGi6rOaFpOkZXDOgIkpPMS1VZ26Jx2CHQXNTFiDJ3dc5uHPuw5NqzXbm6cUjfPc556aJ4PQs4enRRA2QXIDQJpRWJBQqGIgYhoYACCgCQcABLVnNpqaTju4zjbmp6XUYvaSbAQUQWogbpFSDaDDoDntaUUOFz9M0McIYZaMENDAEMAAQMlUgGAgGAJpgCCpY5aKaICSrSAcsYkWSwTRQmBIUSFPOhoRTljlyUgCs2UIgedDlyUCoBKOWg5Q6zsTVCVIYAJgwCWEABNSxuQHLKhookGlNakBTgjQzY3DKSk0JKolGpAUQFkBbzcXMhZAWpKsgKJxjoMdBkOrlItyFJIskG4ZRIU4C0lFCVUJFCBk0CaGANChgCadABNKhABNiyqSMAQVEjCG2SqQxiyUhNhIVUlCSxiVIYACBsBCIYgQMABAzOs9BoCc9uddbikHjsDSHU0CaBrE3SZSZUhlGyM10cpLJCjDRbWOqWDJy2xXUWRTzCqMitsdxKpRjQmmAAqljQi0FCAYOJaY00DQOakolqCEYIHLppyU4UukpFiKTThiQVFDkChMESOsqG5VWQxog0JE0UsYmNpkgQAyWIoQDQYtZLrnbKnQSHbOZ1oZUJTfO0cUGa1a8vS0jEDlyKNKVZbSiLRBoGLcr0OGjkCpbMlqEzoibAEIYmqcsYgTTQTQwdIAYOJaoJpAAJVI02stNAAQUqVIRQSrkYwkKJKCKVEjRQgBMGBNJgqVJhAqlGDqWAwBAQNAmgoQDmhiYEsaEUSFJItIByxkhTljQhgAIKcgyWUJDRRiaA0IZIWkDcscuSgATSsATTBNImmE1JQAJooQDmgTkYATSABUAMQJyykA0IpIKJBvMNFIU82XKRoTJZDHUMaQaKSqlKNEgBUNzVNzSQwgAEmikIZLGSFKQpJFkC0hJZAUJqAAJoAFIACVoTROWMAGmOWhphnedrQCJzQKcl3eO4hyjHC0KhDEkKWSLRjQhgAKqi0SqVAYJ5GqYkkC2RoJzQ00MASaGAS5oBoGqMBbDx1xL0QUJBWNFkMpDMtIotyA0VYmiAgExJoYAk8l0OTpHXPuE5bmTVFGDOjLblNqws1GhPKTdc/QlAyI0hZ1iiXlqlzWC61nRaBKQznqpUExuKFOsi1iDbJ5G+d5GtSgdQUZUAszeYDWsNiXQYukGTSrVUlZ2haYbmSehA8V3gyNXEmo0AxAKMhi65WI6kMnpBpz7yPn3SvPRGdtmRowTZlqMSt2Q1ZNpgCkGgJqSkwQ2QtQyp0YXolzNROddKWJ2EweoqY0hujm01RIwzW0hNhlVMmdQ5lvC2XIDCaEUDIbEABTYZ59CWVoGL0DNbIw0qiSlU0yJVyCpEtUIEBhZoNFAA0wAM51zW1Uo2mCAYAqmhDQAxTUlJhDGstiJpjmpKAECKEyamqYAgJAECclOWASaEg3DKJVWS4aSKaAchSSG4ZalGhnS0lKaEgyWU4FcUykkUIGhFEg3DKJBuWlSIsl0mgoklKikaFVEkrQiiQHNAIObTWDROSnLBoGIByDloYgaAYgHNDQADEmgbQgaioSGMSpAAIjQBsjSLoaZIiRoAmpAYJMAYS1QkwTGJNFAKAhphLVCVIVJgmgGCYIDFmkxDABiVc5ssoOhpFpoKiyKyRu5aCMl3MaLqLQTVNMhJoeO2KvSGWY6FCYJIsw3AAFSFF4myAARN47EvCi75rXZNJYmZkBd5MbzldnmxjxTeIYazRAA7mhVN0AEASAAk5ViEYkUIUctGIBy1aSLIRZIWSwcsYkOoCkkW4CiUaEMKhlEhbhlZ3BC1Zz66MxnoRg9MisutGc7BmtWYxtQlYNBZSRDQFc+4uePUzC9UZOwiNwUaBIwRQTzdcGKvQxemhz6aByabhhdMnLdEugidURVhzm9GZohTbMK1kx1oM6bMNmVFzQAEASAIIuVy2hg4sBc50mWoCkp5o1UMrK0aJBQ8TV5Bc3zm1Zhosg1SRpN4FakFTeJuJhU0MEOLQr59iyBFlrmu2WuBsspOh46pbgKIY0IoQNEmghVUtKkQxCsSKBA0FEtCoZSkKEUxEMQJyK0ItSypEWJDrOhkBZAaSIoQDTAFSpMACAJAAItGOo1igQy2hc9QDn6GZGgZvRCuQYgrLQMzQFk9TOdmYmwY1oBhugy0SvHeUoEN5M0JC6zo5qq1yttKhsePQjKtAytoU2iLTCLkYSMpAwE0wGhNAFIBghggktpgmgbxNGqEVAEsajQYMEAMBNME0DTBNFAgcspIoc0ABAEgACaFUtRVKPPTMbUrbyg3rCx0mZ3l0CWOhoMRDFybRVSguWTeUHQRYxwjUWoToc+sbGDlmlYUa5aYmimTcEXIjQQZOmS8dArDUCWPLUXOptKZAKszZLMbSXbK+dNnha6PPYx0yCdJ0FGgmuWmRrlSLvMJ1yoztgVLGpRqoY3DKQDABNDaBNMaCikwAIAkBMBAnNAmgTZmWEPQXB7MydtOfamsLRIDBDQ1QSqolWGL0oyneRZbhlVi53SM3VETqk563FidAzNAnPVpM6Ix2GuVWgGEDYlSENkK0EaMhVRmtUJgZVYY6tkUmNMEACaGASxiGibmgz0kYwkYJsIpUEtDaBoBgE0mA5G06AZmgkaAaAmpoE0NoHLRQgZIU5B1my1IWIKkRQAOWUpB1FDQi0gHIUIBwykIoljQDBCrOikIpJLcoKJYOWNIG5CpEWkA5Y0IbhFpBZAtPn0TQgKeYWpCiUW8qLSAcsZnRSrmNwYDCRoBoCoVk2g2EsoSqRtOhoM2KRpoACRUIYJxYhoByrQDIsTGktpRkGiEUhgElg0TmTSbxXUaQSFpADVpKnVYqWlJoeHRgtaDRZbYLo5CkAxwN4bhMI2M6KlI0MtBVjZaaDHbM0mZNgRjplqtJZGrhGiiyihMKzldnFjUtFchpltgukNgEmmbApZHSAmVXibACqWOWigLGAuaZIACGExpiukXJF0hwqKx3QxogrnOh8+hoo0M5CC06eikqLQzCjVZ2OasWWrSFoLBaI259yazo0x0hNARfPsyLy0EryVRuE1LKy0DFXROgETozC9IIz6sRp2UmCjRmc7ITaMZ6GRh1BzVuzm01kBhjWrM1rJia0ZmkjGETdGT1RlVMyNZAoM4W4ikSxhNyNhQAZASMTAAQNVGgktMaaBgCaHlqGNW1lsSNJYJgwAAEqZLTHNIbTAEE6Jctk0Q0MAE0NgSxgmgaYsd8F1l8p1TORvfOzTTNGs3JhvSJUI2MdCmmLHfmN8dszQy2EKRvMNHjqUCASLEDcsciLSAchRINxRUgUIJuWMQDTCWigKADMRI0AxMQIoSGIKSBuQpJFOQYkU8WaOGUkFCBiRYgHNDSChMaEU0CaYAADENAwEDEMExiy2RlWqJGyZ0Fwu2JUgGJjo6JjRCY1SpIDDOhrJaJlwGgwVCQ21QwljEmhjCWqEMJaoJqSgZLTGAJywmkMCmCMgJAAaAE0rAE00ABOaBNFCaoBOLXfNdGqRAhtME0UIFcUNIKEFSIsQDljEDcsaEUAJpgCCpY0IoQDihiBVDKSldCCynDiiQbhrSSSySiocUJFEhUiWyUjcMokVuQqRFkgOWMSG5Y0IoATTAYS1QlSGNUNMxAkAAACalWMJY0kGJjJKQAxDQ40FkGiVIBgJJaGIhtZKQmNEqQMFTVIhhLKVDQMZFKkQwljEqBNhI2IYSxim5GAKpoEwTTCaSjBE01ABMATQwaQxqhoHNBNSUARSYJgmqEqkoATTAATTBNDABp1gBIAAACcrTEg0jPQlXeWgY7cp0TeZsCRVnC6QI0eehLlG2WkGogVSxoActGhLaQNyFEsHLKSRbkGSFOWiqQpCKcgVAWSBUMqXK05Ebhjcg3LGhDGgctWgExiVIBhLGJUEthKtAMIpUSUiW2JVIxhLTAYTSYTUlAABWKHCYAAhNSrGIhhnVixQ0SpAMBMCbBNMRQQyhJpWAIGIYJpgmhgCaYwQNMc1JQAmAACpCNNFCBNMYBNJgnK0ASwGIBzQJoaaBzQAADEmhgA5YAA0DlopATUsBAyWVIixIGgYgbkKlooAGmc7AAAAQmpWhJKRBo4alSxpCNyxoRYgHItEg3DSkktksZLGRBq5Y5TKJCiQoQDzZokFOWAADCWqFNoBgmMTYSxkq0IYSxiKCG2JXIhslNibBNMSpAUhDBDCaQOakpMJaoQ0IYIAbTJc0CaViBqpSgAAMRCMAAAmkrAQmkKufRbeTCoDSuXQ1WFm4BKx1Km8hbYWaKGWoDRgZa56mbz2M6jE6jJGxloVjtkXnrBoIKEAAUIFUsqSS3INyFkBRDKUsoQDllEoqsmaSpNDNjJC0kOsqGIKcobhlShaJCkhNFLCoopJDSS6SkWhCuWCYIYDEWAgAYgIAAACYJpjQHNrq1570ZibowNqM3aE2EKwzz6g510M5jpRz1uEFIU6BkaUZLZHNe4ZPSRRqGc6smdJEUzMtA2EtUSrkGwkaBUE0qBUhtAqmgmkRcscUigBVNAmhMBy0NoE0wmkDAE0UATSYJoBipUhphNTQTcjBiTRQCABiAgAAMQAqmlE0UAgIKECqaBCWgATksQKpY5aRiaiEUICoYxBRIVIihAOWNCKJCpaKQgaBoksQMQUIFcMqWihANAxAOWOWlpAg0wAEDBUhOkRQySglsJVyDYstUJUgGCTAGEtUCclCAGDAAAxAZBgAAmEtUqVICgkpCEDapEqSg8y4cmgqJpUIaBPM0SRoATUSaiCbx2CakoAlzQ8dcy2c50IxOiYYtUERqik6JGhtAqzsaJNEIVRRRIDljTlbIpE5C0IKilBJLSUrqHZSULoSxkMtKSqysrMCyQHDNFJBUMZLqiGUTYxMADIBkAAAGBNRStCKEDQjDeZNGIHnoPO2Gbow0YTpnQqYIKInVFRcFRckaKjK7DEaLh2Y2ahjsGS2Znl0ol2jLRUSVI40RBaEUEMohaSA2Z0US6CCmsq5AoIGySghtiVyCoiaTCaQDBDQwZLTENDGCAGATSYJqmMJqaBgABkDZQwAAAJqLAErBiVSU0yWqSKaBpqTSRgKqihoBNNAEtCBVLGmCc0CclAE1LAENyxy0MEKpoE5KEAmhgE1LGiSyQbgNCGrrGkuUl0IYOAshRZDKkChAmmNCLEDQiiWKpZUtDGCBgqCGUSVIxlRc0MAAZkAyAAAABNS1aAGgqWhiAcyaAA5Y5qRgCaYDQBmaKpGMJc5mzGSxDVIBwNmRrOWwDCHz9Ax5FtsU3AqmxIolILpUTDCk81oEUqgKIi5zouKARJqEk6Y6jmQ0CRuNBZbSVEwbrFhuAk6CakppA0DAFUsaFVCIVxdAAAGYxlAAMEAs1NAgBpgmjKoauLSaEwaVgHRIFcvVgbZ2ipuRWqM5crtUtJw6IKuWZ2Qa4bIrDcFUsx2AHLOTpYRdZxSTpoBwiXQc2OaAcUTOiHFuFNO1A0nLapefW5QG7ee7qIKRldMyNZBaBhbolWhOkKNEJ0iKVCm5GMJGyW0JlEq5GMqbiwAGJmYmyhiiaAAkGIpEsYlSEUiQYTYSxgnJTQDQUAKlQIBgA5CiWDihoRQgVQyhAOWE1JbkGSwQDcsctDQCqWDkKaIEFUJBWdRUiLQWusg1iWDkKkk0edQOGVIiyWDkKJAqGVIinDCooYkU5CkIoQK4ugAGgzAQAGgAAliKSAchSEVFI5+jm3KJBuBbSSaEgxI0SFKhlSIslJakKMspelxQ0goTRUhWmE0mCasBkqaoQyxNOEqStUVDGKbUDAkpAqCWqEqQwBOWUkwadCagYCc0E0htAIYACqaCWigCamxJobTBAMATmxDKADMQjEDEDECAGATU0EtFJhy75C59PPuEatOfRKXUSspLmOwTFU0pLzNDDdBMWc9ueNVkx1GhazRuAMQDmgQihIbkKJYyQuUFkMKgLkRaQAIoQK4Y0SaJAOWUhFCBoRaQDmgTkoATGIYSxiVIYwilQlSUGIlSBgKpoABgVi0IxMTEMQCEUIATBNFADBDAE0yI3URh1Blj1oBlQylmNAztuSRoYAmUsTrIs9gkaBgJphNSUAJpgCCpY5qRjQqlgnJTSKlooTJqWNCKEyamhpyNpghFJoHNBNSUJDc0DQFQFykW4BuKGkFOWBLKSB1NAADQZArGIGIGSDRBoJDcUNCKcMolGhDBwFkot5uW5mTUgsbhy0pCyUaTkG5Ml1gzVRJsYaFpIoQDzopQyxANMABNUJUhqkS+ezROCxskeBuMJaoSuQGyWqENAqBKgRQSFCVIBsilQlSExqTSGDIpNBNFACapUNCpNAAGBigsAQAAmQovFZRK9Dm7EMjmqWu2F4G2vLsQ84OuIsvXj0NIVGuAzLq8zvJeUnWCMll1imuE6tsMztnm7DHVZnRMtLBnHF9pz6c7HvHOdU4almDNzlR3JooA4+zFCrKjUz6Dnl7Lz9OdJlreAVIaR0YGtIGhFCBoRQgVSxoRTkCoY00MBRANoExhNIY2ktUsq5G00GmABzkhQgaQMQPLWDj6o5l7Jx6kVyzHDszVc/VBz9Vsx5u8MjYOO+oOa+iU4d+kOZ7s4c/ThZdUnJ00hcXeHPelHH1UGRoCVIYMi1Qs9ZMzYJYCGyKTBNFACqWUkinLBAUIFUsctDEA5Y0SWJLSAYkhUUrkChAqljRKWIUAGIByypSNCQbihiRoAgwAA5QBMAABNDlotyikkUICooaEUIAEUICoocuDQkGJFvMKcBaSNCQbkLSAchSEU5AqGUlJoSDEiyWDlhNSWIBzQJwUwAixNhLGJVBSoWCs0sGIbWc9cqsmoVZbpJUqFBDbFNICkTWVFqpHSYkkWSFOGWsdK1M9JGIGJnKMENAAIYKaQBBSjM6DJluMjoVBBhemwKG8NQrPWJEi3nRQAZaZ1pWbNJMjd46Q2pNFGhI8a2WUL0mLTSufQ0zUHQspOiDM00yRq5qIRjb0mCL1wo25+jE1mWhWYbCcQItZFD1zuFjvjVRdJl0RcLn6GvLtoqyKtMN5JY2ixZaojHpdPDoUc5vVYG0GG0dJzXvMcW/QVy66OOPTomsOkCaCQYHMAAAACABNC5unnNMOrAw23xNMejM2pBx9eW+nK9GRWqM9ZeXOup1zm4c+82PDdnPPSzB7Iw2oiVeZG8a1GHTmVK0Jz6MydGEvPUSdCY4TRSeTNM7g1UaRNZa0JqGRzV2GO0MAVSxy0UIUc0ggGATUsaBRpoIS0AKppBOSgQqi1cuQuWCAoloqihy0UAo0xMDnGkEwQwQMSYS5xroUyameZuZSbVhZo5oyucq6TOY1jOjV8/SRpjtHOaxoVix1KNYKikSaVlpFGOoVM1KdmVWyFTFlujPdA1LjOdKrnXVVZZdSjn2vMy3GYOwz1uTm6ZsRREMpZKSCoWKGJVI1QRSoQ0A2SqQDCWMSpDGEUqEqQDBDAGCaoJqSgAaYAGDBlAKJghoQwjDoquSntWD6HGPP3ZVK3IjPVijVE49QZWyJphFDENFAA5Y0IpyDRItEA5Y0IsSG5Y0IYmCEWIBzQ5clkgVDKkRZINIKJFbhlS5LJArNlIRZIFSFKKKMbLQihAqljQixAOWNCKEA0wABpgmigAAGAYAMgAAKACGEXFAElEhSSLJBuGUhFEg3IUICoZSQMljcsaYJjFNIBhNJiGgFRLzZZlK7vDZGqQDCaQNNDDNbc2JOAuQYBRFASypeRsZyakhOmUHS4CgZnedme2TLMLNTJGuegNTRQBNJjlopADmgBDaBoBjAAAAwBsiYAAhggFlqhKoAxo1lyWc+hVZyboBgjm6OezZQjWYDWZZGk2TphuMmB68nSKUKrm0iS1YMjSUVj0QZvWjEuSabM6jQc0zNaUROyMNXRjWgZzszmOlEGjOc2oidUZT0By7XRnO0hNslqhKpHNkZVQStAUW6SpAMJYxKkMYS1QhoYMQAwBgAAYjGUwBMEMENLLAaA5V1Uc5vJk9gzy3ZBYSyjF6yZ6UGdjEqQ0wQ0AwTVAmloQiaYJobQAA0xZpMMtUYdAEtOBNFCAc1QmhuQYgoSG5Y0IskByRSRVEsHIUkRQihyxkkU5KpGRsLI1cUNJFOXA81WqaGwiaVUNMAAAMgGQAAAABNKgBghVLCakoQJoGICoZUiLEhuWUkDcsEAwgbiikwBhLGSTSsAEQaKsTR5bAhhN5FMqEnkaDzLrCjVGdakaCTwNayzOkzZpM0IJFpiRsKC6ymtuXfKJ6sWbzlqReZReaN3noQ8w1x3zLFmaGNxo8CtsdIN5cxoSDrPQYFAAAGQDIAIBQAABKpGMJABQjUzC3AEuTSlgdGTg3eFGjVAmgaYTUlRWYhsQmoDBJIjSVa0QRohTrJnRRohD5OrEKAvLZGVbBzbVROepCc3UzYZPRGc7UYaWiXj0EN1GZpNTlvlFU6Jz2moq0SOiJ1UQ7CY1QNhI3UzpIqYTSqJm0BQRc0DTAAGgxaLGIGgAAAAmoLJYotk4b0YmzMVujJ6hln0MwN0YXsEMYhgmMU3I2BIYm6QURKsz6BjxTUyDVZI6BYml8/QE0jLXClKSJ0mTV5oNM9RVnpHPVI1aKhXkVeTjaKRlVoloKDI2qaMOjn3HLRQgVSxoBiBoBtAqmgTQwBNMFSAYTSYNMAAAMQLAAAAAAAJqCxAOaBNDEDQinIFQxoRaQDSKEBUMqWihMnm6mc76ERG4c96NZVhDbTNapQYZaDRKkMGTUuGgVgE1NAhJQhQEUIByxoRQAmmCaGATSYJyUIBzQBJTkGJjQhuWVJJZLCoZUklksKixiYAAAYgWAAAAAJoHFSMYSyhDBAxKkMATmgTQwYgQwBVNAnJQgHLKmKKeNlCCkgbyotIloRQ5mNERWgiECGZajGEtUSVkWIGMBUiRslyyhggYJgKsiqSKSk0TCaVClItmZbMjQVAxkjAGCaYTSGAKpoBgAAAYiLAGJgAAmATUjFmavOihACYIksATVCVIAYhoBhNTQJUReWwppDAJ05+gWG/IdN50uZKOmcLHSxOiJ0kTFaxpAKly1Ac1JOnN0Dy0g059kSmDVA0wznogKYQxklBWO0mV0GS6JMtKDLZMzNZFGwQUzO2gGCGCKRLKJVAm0KpoGmAANZ1ADIwUGCGCGCm5HlrAqxZuMJx2yJNMyk4NwkzsonXHUkrApbSZ1YZtsWrCWMzqkTSoEqJc6ENaEFYmjUGgmOXC2yIdYalyynNREa8+hQoNXhZoYs1gkNDI2mYNnzdBGmWpLiyRMbGOWihAqljQiiQbljkRZIUQy5ENyxkspIG0waYABjty1VJsgAwFAAACaQMBTaAYSxiVSMy0BpFrMLeNmiiihAPAKqaGTBq+azoM7MoujHpiyNEEaxJrjrJfPtRyHU15X0oWezTBbi5XSI0ZHPWrJy3Dlu9Dj01ogsM52CHQZ3QQyhKkDAzsYlSAYTU0E1IxhNTQTUlACBgmhgCYwTQwYAAAHJ18tagMgCgAAAACaCoY0IpCCooE0YT1o571DOdwwW7MrpGWrZlbYlSG0AAAwTTBNDAE0wTRQJRpyCcrQkjctWhFCAcspIGJDEDM6G0wTQwBNME0MATTBVIxhLVCVIBhLGJUgGEtUIaBsJYxKkNpgAAAubfkOkRYwAAAAAATQNME0MATTBNDEilLKEhuGUiSxAOWNAMJG8tCgBNOBNUyaE0xGbXUGS5qHNZlmIavINpINc7AeYaogvOoNDNl4dGBs0DQihAqljlobkCooaQUSBUMqRFCAcsqQKECqWOXJYgGmCaKAGAABlzdHEdonYNAwAAAAACWqEqQDZGW3OdBMmmO+IaZZnUcepenJ1mYtQMszeozXTTLVHjrlGpndZbZQuslghyJVSwnpUZdEjqLOc2qErRhpozkroDPDqyKnZmS0Zkt0Zu2Y1ohK0JpiGhgCaYJoBhNTQTSAYTU0JVJQBNTQlSGAJpgmhgCqWNCLEwAAA5+ffI3adgwENAwAAACaljQinIPHVmVWADJ5ezEy20ZLGRGyIehGboEMUaaIaKEWjlyNCKBKNMEIoQDkKUMslFkglSLJBgi5UluKGgGZ2DTBNAMEDEqQAyWoNEwBhLTEIKTZFRqSqQxhNJiVIYAmqFNIbAAAAOXDSDqadiYAmAAAAAE0mCaG0AAA0FRQ5clCAcsaEU0QBlWqCUaYkIoVCaYKkhLFFUFoYNoUaZFt5jrm2Krl1NVAGmYaGWhU0iSZN00TUAzMNYqDYTOemy4aIsoI0Am4ENkjYo2kKAz0TBNDAJqaENDBksYJooAAYgDiKiXoA1kaYAAAA0AMhqhIkpxoIUlvPUljIrn1NBIm8wszg6Kz0DMol56RntjsqhsgoKBCnXMtKgTolxYMAmmY1ojO6ZDYKNAU2EFghgmME0NME0wTQwCaTBNDAE0wQihMmpY0IoQDljlooQKpcNCKEA0DQVQAAAAcuWs51q+Xp3htMAAAGJgIFlrkLWKJbozjokWiAaZzPokyvUMi6M43CKZCGAMJpMJpDAVNMmNUKgE5Y5clOWDkKQiiQoljQhuUWgGmCYxJoZnoJjEqQDCWMSYAAmMSYA0JqhDkoATmoSaKBKmmjQihAOaATGAAAAHLNznfnerw9/TmMAAGAJgCYTSYACaYJoYAqlw0IoRQ5ChEDkKQDGEszXRVKNVmtNMFNgMJZBcCKedjrJGynM0vHYWemZrnpkXnpkW8w3WWoxMz0yscaYmzljQihIYnAmgGCBhLBpoTILTABkjyNQaiYSxiGCKQMCamkYAAAml5k1nW6DpzAAAGJgAAAgAGCJg1TAKkHFQ1UjnOq0MKjUyk3xuF3BJQhTHbMTQUDIWrMTVBTCctmQtUYaWELQJVhnbzNIsJdYmrQNUjO89RJ4m5KB52U+foCL5zcycaNBBKrWZcOoCobHNzRJoTntBeesxUUhWhWmgYCBkObAlF3i01AABXF5mALOthPpzAYmEAAAAAIEUIokkZQXz7kZxtQhhjpTMbJBzQrViGlZkjWs7HLRNSjSM6NlOZs+cNlkjas9DLTOgrDUFSNMtAMdwnLcFLRapGWlBOerIWkGd6Iz0y2FCDQecU5oRFFEUE3NAs40oBiYgB8/RNRYhZ6o0QpZVonRUZrQTG9BcKu7ACABTPTMxm1nS1+d9/pz0YoYAAAAAATSGwJpME0MAQZlXloFY6kOswjolea9bOc6Ayx7Gc+02Z0MDHYBsjLoCZ0gYIuHia1mypVFqKBxoQVkUtcTLr59yZvM2zsCaBzSM1qyWMyeiCbURYyGwimCGCGCGgYCaYJoYMmpYKpKEyWmAIoSUqaAAGgM9clykeL4fs+Z7XTFgIJghgmAABNSMYIGIqRjCXItE4nRUCUpxOoAzrLVU0xuWkY9DVUIx2VGdiGMExmcbgpsIdAptAwExiGhgCaYhyUIBywQihAOWNIihIbkGgGIBoAAFQS2ElAhghskYJUhOaBgAANCsTAAAB83RySjLzoofTkxMAAAAAAAmpKaAaBoAaZzvcXI2DE1ZEbyJ0EUqEqkbATTBMAABAxA3DGIKJBiBoYACbCSglsJKIkoJKBDBDBMATBDQAAAAAhggAAAAAAGgBggAAcuRJ0qVMkoJVgqQMEMQPDbHOhsl/8QAAv/aAAwDAQACAAMAAAAhGKO+e+CCMgQwgMM9BBdBGiEey++++++iCieCWQQUkgcswMItYAUscsMcUQoAUF1++GiyCi2ai0Ecss84E0s8oUMMee2uGWyeyCEMEY00gw8gEQQMcgQo8owogc4YwM2GXD2+C+/3jSM8AASiGMEpAEICC6y+eeqWSC7UA0wMESmWWsEo8oQA8gAhUwAM4DTvnP3zHfvj+rv6/wBsy0cSEJCr4wri4toz+x/8VFHMKMGPpiOEKKMLCLPPTDDJNCVYQ+SHCWTP2ruptAr7u3uw/C9nqBowPhsnlqjtnrGdEONmlGLEuKCEBDfcdUEMN2ySaEaCOnouc3x/6vz2Fzhy6wg7vnlNu0hnfwpidQ9LHIACAj3VLAaMJUUWWbKC46587z3y+fU577590/RMiLL6489w/rj1xGlCMMFKDADBHQYdyxUYRRPdYMdbReD41+/80lz78a1f4926SacAHGaSdVId184DXdLtHXIhr77wVIv2DHixf1CXAeZbRv8AZ/qCAquk29cu8btiqhllj4m1ZTjgj61CH1H+NmIJWkvUWIRcx4AeAWT0SEFWQA84/CYqFnsmEM87REe3FcH93aJNcZpUd2FEyc9FnSC39d7GaIPb4EHsZ3mym1lHCMNSIhX28pxq8HgXkxpV4aRH/PP93uIxCr4Bu8ucuQQEVRJLk1stmHXzGRlGlEjTsMq11VeOUjK0WRK0hkynyhzWhDjFnFCSj3f1BSwDhiAwD3jBEnN+MWCG2XmER0GMOu/5tN3XKv8A3w0wUcCb3p9HD5VlNNRxFPFF0YwxPvtN5p4NNbvDPCmuIZd9ZBhDFbPf3fur67vfvaQvybnGTTKKWi633/8A7/1Xe1gp0yh90YbnjMkonugpkFJAWSQR+8zx0H5669v73o12zj+41C7wz50y+njsw+bW+0w92qzykktgmuqqihrpsNl/bdc77z+6/wDs8d8M/KvOuJ4aNP8ATXD3XqWCXnfTXPLHTz+SOu6WqKD6OWGW3zdLyyYprLrXbvf/ALly0nk+zwg34/zz7hyxup9mj2qx6/r+Ehl8szkjrgs4yw3cyR49x72HYy4/3s7AgMBNnhn0wvF1kmyxaZGKxkSqhz3rqjWEbSuxNHGib0nY+VfOBGFskWLB792/2ywtzv8A4ufM8d+8NMI7aqMsfq5ba4w7Y4o76b4I6A6o5IONO9WykJcO/NwTse+vcNO1++OM9v8AKHTTu2myyy2O7TJhOjhOiOKMN2qCyrz7SObL7LnUxr7z/foAvfD7fDr/AM3wimqlpithyoqmpiRkqza1mr+UyyVisovntgY+hWStyTRVHJw33/8AgDMO7O/6tNI47/q7WL674uLZYITQHWV74CJ1/vzJJLLLYYGkuc9YM44YiZ565qGhgsfoa6QIYgDEnSG3WbvXW0q4aigekiac9ecMcLMcaLbZu8vEMM6pJ6YqtZLKLTSwMMerkSKqTAQhGFj32+IhTLyLwznxCI7pd53G7se0N9fYZ6b7brpoqZOsLYZ4xzwPNe7X3Ci6Ihh87Ta6Oac54HWRF1R44ffe0Sk/PGQ2jyhjOMML+fs9tfPPaLZyDwMs8t3/AP2y7CjvPT7rb3PGiazKS+zvu+yea6+aKyWif+SGfPCHivTjz7b/AO79pzOH3243x3/z757x39036817w90++45w1iukiogkksguzJ4789w1/wCvfU8OcReZobyyde9+sO8Z4w2yB5Y5c95d55urc8aM64bZq1v0aZZ1nEDTTANQ5f15igYQKNIbv0BMPMabSIQJBhpOsKZ6Jqu7er4PNuvbMZ70G3lnvqe8b9vXfYZa/c67bpwJvf8AXgE/LDCffT3DH6PvrfDrPDrvqnrXvjzXr+QRtGmiSGe7fXztuW2yCOeGuaaCq/L/AALD3y011y5zx1517858830x5/62671+x/1z6uig03zmx3vgzm9jsr8ysujutwzuvBP/AF1j5uusMo81u/vMut9dsP8A/vfzj3v7TbPvmF3jqjBrHfyHfqGfPSmCOD3z7j0oRxx0yr3DjfvaLfXO/S2D3ub/AOiqqw5+51yw0zy0y0o1ipri8pilx52mtwx/36/qMc85Jx6DsnryWTQLDqkv5nhiljpnq944797woz7y59zjtqqgghuw6581w387z/vHIARP68p99y4z827jmtnivvltltpvp8y9x4xgsjiktivkvvjujm04+2159+70/wCuAYNbfeaLPPeOY587ooJLp578oqrbLr44qYbr65JIZp6ILY5LaIPtOdess/p73Pc0MNIckgD2rAbHHXyCZO1l+7V2pJr756IIZIjqs9Kec+GvPFkpJdHsXRASyL44Mcec9PcvzJ6qKZ/XXBAo5ra/DbXZq6MseKb5ZC6pmV9GkXcO3X1csXUnyBAhRgANMNfu+6pM8es7ZQqZvq74aooLLCA5EXX1YIC5ba/XnBU214GWHmPWAxjCCRxAzABK/MNs57KLo9ILjyIYoIKWrzYLokXUmmmvwjoJb4mHim13gU61TARQhXGV6agzggYEc+EoZobPaLqhkWkKo732El129l0UmkGHAqEk1ETQyziwB6Jtcspa/M/6YxCSAJnMNsu7rapOUZPwo7uo6ZLywK6YwnWkU2DCaU03gHgAC67oLctMd7cPNZLqZzwAK8++cZrZL5rI4I5bZLPbOpTiawwlV3V23FkCXDDzYLo44ot9LZvedsOefOqD6BT7P/P6p7KMxUl3w3WTUQpn7UgCrk0CM026FFH3sDlJ8hq4K7LpKZab98de9vZAgAovJb77f+vXmWU01ZKIqIKooIqwQTCEFkEH0GmdEU8tBQgASo5rqe/98/uccM4ACxb56uNn+NEG1AUGFBBiUHo4Iub7am5rm/pDxrrZJ7oruogIJ+rZt+tsPv8ArL2bxBMMMN/hqfdcsZeRVJIIZYWvjKSeai2WqWaS2WH2CiH3f33meLnHL3/7DjyH3rT/ABbitLS6V/1w7zQ52ycGG7z8lvrrklkg5pgtgRdVSZSefV871X7Tc4zz72eYyfQ979TQSZfWVRzSVdQihesln0g/yw84zXQSUERQdafXfYSXbRWcWSea0+ECJSTWII352RQUxtmLrisb18gvolQIVbPuj/4TVdQfVdbZRVPdeUZYQVUdaYZccLLNGEQIKay/onjl6s/wnhCihi8w+s4zUSVf3SRYRafeXfSaWWYSXbTXAFaGCJIfNOEGEEJF407oolshr/qooo1w1zv799z1Qf24/wA//XEHdN8u8uFucDsvhDpmyTBTBZqC7IoTc+vKY6IoPMfsK2En/wDnTn5RjzTxa9hD9dBfQ4I0JDx4euIRjy8tuaCgmI8U2UW4k/j+ueuOTj7nqN9hPz75bztfvJj9TxhZjlBdHVrLD9F5Mx5xlYJs8xlV4E6wZ5RUqiGe6KSMwy3Ccx7T/CIdLvrv6hjH7H9f/JjlVPLFBIxIgcQIEQwAU8AsIc04IU8oqjKamyapSltc02OCm+SOckv/AP8AscI3F8HEU290lngxQyiAyRhADTDwBSwyjxzzzwD/APuKyqmOG+OCO6+kp1NxBJBBhJFINZdtNAAUgwMcwEUooIMg0AEEEwIcIg0IwAA7TDzue+6aO2OhVxBZRdBp4tcs4AQsM0EsEIoMMIkcswUYIESmCcY8U4gYkYU8AMzrTzGyOjUimaY9plddF95ANx99xQgoo+u+Yws8Ew4AioYIC4g+8IcEMuI0iwoQ873TDSeeu0iiwo4E5Jp5p9JJhMcIwwYoyCKKcw88c00+Gg+uScwAEk0+YYeCOAQ8jD++umCa+yi1xlpYF9VVJQkdMQkYYI4E8ko6Ms40Y4K0ySEkIi2WC0c8KeieqCuiOe++WKib8OeV/BgMBdlZxMUhdVFpdYsQUgaigUa2+SGSm2Ouaeei6mOGS+WqCGe++CCGOa2equP+Ql0tRJBJ94oR4IlJJHKiqfOmOOO2Cii2mqymO6yWaaqSS+KC+6CAAsY+6KS4qNIwN9pF959t1ZNKAGoOKuCKiyqW6m2aaGmGCmOqiu+KSCaeWyC6O6gAgA+CoenMJwdp5hJQJVhdAIckHUdq2uueKeiKmmau26eCumuyCWCw46keqGo3myyy2KHyvtN5xd11RdhBtRJdZt1ZUi+YWKyuCSySWGCim6Cyi+S0QIU4IcWqW8vfe+aam6OCkc1d5h1tdtxRdZdBNdUY5QsiuuOaaWKS6COW6aqGyoUAQIcwQSCWoPCO++mqqWokVtNVt5pRtVx9J9V9EzmnS+e+GWquy2yCeOeGAIoI0hNNtx54oAV6OC2+++WoIAQ1Zldl995FJJPNp98I6eiySyWSeiyECIgYsoIwoUx9Z1pVBx99BRnSuCiAAf8AOPRURReZUWCV+ZMK5vAMHoqpmmrlkkhrLDBCMKEMKIASccVbfbbSQRZzoNolDMfLOYEfXffQ22nzyBy9svnjvrllrtnosirDHHGULECDKfWfQReXYeYVfQaoGAPFJPLFNKBcFdYwXhsvjg/vlplmuinkKpuMHmouNWtIIKGBXfLTSTSVSRWfa0qPLNOWacRYYYRRdcTX/vthupqrvEriFKBMPMAEBHOJPOELOPLPSfQYx39yQVfWbaONCTVfYVTRecTWZ6840whqojlIDNDCPLHHIBBNNCLGLMCdUZUS/wAbccNsMNeuTXA0GFEEGlH3esEEONuMYdYJoLbrSQiixhDDyygjzw1pfMN8fdut8or4LIa8NfqFT30kF0nU0HV+9k/ta/6IZpr5RwBAQywCjwDzSRhCT+PFev8A9J1jLmGu+6+LD+F5Z5jDT3v9Z9bLzvH/AK6iohsqtrmOMPBHMPFFOPANKCA59z4Yl2/wacbrkqwmX/ucUZ5zz3245z/64/31iqqipvguginPMFOOFNHIBBDLFFy+698/77/+79y+/wD6o67Beo9POMMd8+cfKaPN9YZ+6b6Iw47wRyzAATyQwzzjh4e9+e88Of8APbPf3vHKKy+e2LX/ALyw14xy5ynjpsqtogMujOKODHKDAIIMssgkoktvwy86ww19+3/33mhvrhPMPf/EAAL/2gAMAwEAAgADAAAAEByz938w0zFHPJNBPcaXcdktJjjighlgozoni54ZYWfPBMPNM/CMALBWKXXaGSyku0x35yyz037SEEHPOMDCHKJKIJnsrl/81+wwffZaDcDDHBFOvLGJLNFcQUWDYd8yx5vu/wAPta8bOBCSgtY9HnjnGDN4Y/N8vtPN+4jkEUBRebcMXjwTRjDBVV4Jk2sv6rwtQnE2MjtpbLJ2rMK0WEiGOK7+PpcuqrZJfA2HlTBiT7NAylWzjGClVTMkn4edO1CMTzFllyyjGwNS/g7beIi5SXMSvPy2CoeQmMdhwxxz6+Hl3cikWllyS5DGfP3hZrHJf8g0kbBiDA6b+0cb5svicCxYZCP45k+rY33ulXTEVHtKB2VBXkCCwkw+vI6atOYOL4hEd644rOdDV9GG+PqrZ7/Mb7mt03FE3UmmscjAiLLSRDhHySWwwyIbZZ6/Pto7OkaLwZbJ01BwFlFTzytpRBZLylDHmmSkk3xFP6i3RprcTY+YxlzUR7TL8VT7sX6IEybNUYtq7aoi9mscVZVRRNOWJNW1TnHuIwuk/Muwsoh/nnrxHxqg8PbPJR8qVRKzoQWt4uOXkKPKHcegg4AN25/6OJ7BivJujkvBMnUTkhypIDCFhxA7/KKG7pfHIr4XHgjop+XvPlf144DRMgNFEzjeakGijQZBkXYXvslsGH1hHTDTDzs/p7N1ZKawwkfgTTsJ8H0i/wBlgRBxwM8B1hAKcdAkNFFdFRoNp4MjLvVoFp4JwdQSW+WizWugA3CqWJNtNhHa6Us3rZIxxwEIEG8AZR1UO/QAIJsZNDPvfuiOM1Z5MR2Oa+uEERSzHK2qlLRac1j0V+480mIH3H/3aYI63HaHeTn5V+CIqGq6KeOsoE1ZVj+ImqELEH/vO/fk9qDgNf8ARm6WNSww6rgj6iHTnmz9+j52ghvkmqqgtin+yJo5RVloqszinvw1mwvpws35166vQ32nl89Cgkw948zw1Q0+tsnunmv1u+voS/vBJM+0CZtgx213+yP61njXzzHb+122dC6vaPWjt+o/0wv9vsV69m9ol8w08edj7qZyVTvHTzqw/oC9cYzDZhDSwb/VJDw+EjzTDQsw1PScobsKb/YKYemNbeEzVn5xeh7WOTYN72n7478s+JTutmjwyQ05lkrktx11imp+hHAkgjCXjtr4pfGjurr426N1wo524Wpvo59xl3b38zw3zxiw1wkjhjvpul3wcTuwQpumpkBrgjlmjo/lkm45ME1wz9+4Tny6xy/+34x1oAAPaNut9tghrgFFfJh9QW7W82LRcQG0sBqtbngEF/yzAnHfC0yTj+4tx0sx6DBYPEBpdrp6szgvCY6s9nQT2sf1f/cbTSxvLmxOGKTAcSY4UfEvwJdt53jDNxEBwXEH5nPvUNpwnsIHKnXMzWQz83Xwp23p59/6ySB7xhmmkmwqglsgYUO875I4MWR5xpMvqdjrCYg/A+K4Ekw6SAxMbcmtkqvfUMXLjMBp6Ghvr4++lwnaNBzyZN2zpjHKyZwtxmkOk7yCko3L4hTjJFU3szDDCL/SAmNbMMxHNOgh4zor1ndAAyyaY+RSIP5j3414w61/0ppoROLXQysmNIz2KFLamWeQFMus4/hs8YYz95uo5uLG3RXdT9/z2G202u+/4o9j+771kh7q3mugv4nkjlgbDhHEDcVv+hFecd4SIN676LL1873aY73zF/t09gSa/r1ko6ojmAksUhsTiGhVRv3zTHqMsfnHR3HN3BPQs+1nQNz81QGxG5Ie9H9S0bfJjZ+gFAMq/wBZAiGaFrUQlKhlV33cCdL9DwPiVXeAQ7ZqziNt8Cn8eOt0BWevMMn/APfniPmWaqyeW0HSkRgsxknt0wQL0ua+avjGOewkjCyC8YDSZxnTXXP3XtTLTbHbLLaSiu2qifmq/wBLrJBrm/whyxtODF0gnns19nlCvj3+1FJf35rp0ywyvyuz93547/8AfMMPOtNfecuorOsb1vdoeV+c+4feaZqIcvaHMsurrTiNP04Jv2PPteReP0T9KrsO4sf6aqtNOurrtcd+s9cqMqbZrvaI5ou7uuB+Mv6r6zuX36PWq6SMmKA7HMbbaNpoKroaoKuffe8/+ade9N/MZ6ofI76KI8vZoes/89dLxibOpP8AaLfz7tXR5aeOay2GeHOGeyOnjPrT3qGCOKGWaieryGimaLHm+HH/AJ0cQosuIQDYZMHa20/PI5ihsS37ooEWggggkhhokgqvt5o9nsoroigh3k049j6+ZjFzyz1b2kZ2+bidjHrIq9/PPh6BG4bPujvVLqkrNrmut5sgAhHD7yjEa1W3jGTW1CP/AMMvMvt1vnWGrpzboPPd/UnCdnZcvcMvbg0Yzobf78l3d/8AZNJemsRhhgJ8kWEoTv7LjPS2/frrmqfXSXaaCuqGe6LjPT1djhNeu6aALFc1RTJmxFBB90U81pZkU8oCMVTHXO6OG67+V1DvKU4OOdPe8dColp1BAfkoBW14dAZBVopKlQIMUZoM8f8A2dWfODe/R+OptMQOTJiT5rBXxtLAZYwBGETZcWuqZqqCWOOBNPFP40rosy6vhj0oTeIJKw3YXbkhote6v8ikt5rquiIsrjLcDaSUew+ZAcYHTPODj28+tlqi7j1k0xx7ZBOEc026kqg81aLEIbjqXlPMtH1Qz5ZZeUeaMU5ROGKt07475olz9nviphlmlydoAju40wEjHyIHSDHzUt0wmI1AH/oBpvSnUSlYUhXyOYt7Gvntw/6l906s5k5ssxCPCKcnolMO8evGLJLMT42QlsidPIfedPHaeSXQZa/VZ03AFPHB++07op6/47/5s+fYaOgFMBzQUSdSKQJRJJFXR43k5kpnbgga3vNHqqruilcHsCvkiz7r36/+afaO0sKBqhvMSMaV7EMXqZXZFcSB/KGUr46kh4nlqR96MbYdGDFHq18ga8z9aXaTCXT19kASJDPR2VdKdXW87wWGc+36tnW+5eZQFQNdThtminkh/wCUxBYU/wDph1NxLPhfrOK+FZkMRl3xwjtRNiKdO/34BIEvesUmiiirueHeFdyX3TePfj3PHb55+Kaf/vCqg2iVtpTfeNzX1S0oQcuNfO/F/c5c4PvJdzPX/XftynNBHDXNDnb1BDHOeumc7C+/J3ua+ymaf+M0G4xAlBbUhpHbjfJOiibKbT3DHPi7mywrXH2Sv60kSfiGKe2u6qNhvquazzX+DjbzBpjw1QrWkwCTFl0p1B+HXxN9DxN/l9+npuYOXk4SC6iwGI8+YRNL+2j77MJYI7HFrr/+rpRZn9ZhArXF/RnJeG+GTJveoCWnTS0ZKAQSO2+i2K+8Y1juei+iueL8HWlJ/oGqNkr/AJmAky0lzaiQ9WxW7cc80+Gyw84kSFCYbaBoHqab+oPpkpuvnhtUNUdFG3Fyy0cPzh6Ow7GSO8z2Xy5Zb69j1JFFIDCGPAHAPJFMEMPvukI5lgjsQt1LrzwZ+5TdxWxzMDJNFcmsZikj4fxsTBJKPMJILPFDLJBAGDBOLDPPAu/0vsu18iwxovhcW2g03gz646ZV8AQadfTHLONBHEBJFIACEIEJPKJNHEJANMALD3z6+gwNWUaTDrKoqhaVdekYBMIJDINGCOBFDNIKEHLFMEFJuigHPMNEKOKIPNNB9244kXKL8eVZ9Bpnv/yUSDffbfcMBLFmqnPDINCBBFuJBAoEOgLJCKOvCKsKBMDy751o5IQyIQx291khzwcRdVcLLCPDAIqpphHGBKEMGrrGhksPMFKKL7EJgugLBH92uklnnYUcVoptszu/xSWBHfNDJPHHPBCKCsLGKHPEkIqoJIGusgmBPAsksqvpphmsoFeuQC8XXjMv4wxyYZbNMdcYfcRMKDEJsrMKrgjuhigvprjripiuvvotrnukoAPPfXDmZdRSIX5r7eSPecWELcNMcWa4gtr0tsmgglmjintlqtklmitvn69mjx5MA8/z7OPXc9WpyxtmaSNk4SeXXvEkPpsgikllolqnkquqilmmmhup7dVT4QU907ONrrz6bZ2fP3v/AKy6Wn1S2XHyQCjdwGqabK5J65JJp4IaIaKb6LykkEOtG9Wvuz/oDr7gmjQgtOLbYUX2nAyXlFlHlEHiI5iq7YYYLZK5ZIbIr6ZLylsttPO/t2nW6OOA6SIX0BBd+4Lxg4VEAUFU0kxH2yTlBx56oqKTaoR7pYrJaRhy/t/f8euNkFnEN7LyJqUXSt8CJ6xA2XwUHEGWG1lQcJ84LKJoZ66HlnU2W3Xttfc9hD46qYstfr/5brLxSGPZKNSJAwyF33FUXf1EnwCZJ57r5aI5JAO2e8OvOs20UxJpDVWBDLwO+FSz5j6qhMsu4inWgklwFvEyQuYCQTq4p576qorbRuNNOOsMPGHVyTo0GnWl1nXvlyLTSrM6e/qcQ2AB2PdYeew8+JYKJarQazABzQwkcuMOavOvl3zwJ5WH2BlnW15/iJNYC3FOXn9lQnincGKpZ6ZsI4wSQjiQwpAg5Z1E3M5G+Ntcf7QFgG2RjkznFyHGMNmfDyzyzjyzSl0U1/Lp44IY5gZzyKpsZp6AbFuEXEU201mF0zRjmMuteVWl2k51X0g32GkwAQ1WmHN9edvJrLDh6rZZYhdr50A+U0kVHlmXjzjSBLfbtOvsdevWfyXQWRGHlSzC4NGWNutOJeLKrwCw69uhmHZcU2cdkGxeLp5JtY8uspo46oL9eujwkj0n2XUlF1H+cn+/pcYJaxRBK4YsPmkmsbafap+1G8LjpZYyCFccJLb76qf9ZYETCcOdtsUUUe8uuse2Dqq4AQyS4YZpIDVOuqHk88FU9o7ZQuILKFnExZrfo2P7102dvPe/MOevPvfuOZbZKKxSyDxx7YbJ7+c8skGmt3m5aq54aYZLv8/MveMZ7K7D909vPcsv9+deK6MuMJK0gyjjLzA76Y4bTCmWlH3Vm/ZaJqO9Ove/s9f+9uZ45ZnCNldGGGGOE3vJZYAC4zB5gB6p6KbJgIx01/t9/etPOI4LNPOOuft/NMpKpK651+P/xAArEQACAgEDAwQDAQEAAwEAAAABEQACEBIgITAxQAMTQVAiUWFxYHCAgZH/2gAIAQIBAT8A8Rf83x4j+0HQeHGIxHHGPti48qHcYM8gQdE4ceHvcEPkgQicxmKKIxRQzmDYsAbzhZIg3Lyx/wAIMVo+XLBFQgjdYVC/fSA5lgrEYNeHgRbBUmLNQT2iLSiMAZhqWVEcaS5pKaiKcR/UXH9cII4IxoKcNSAOoMfEAnpL8n+oaggWJ5MWoEKepQVQlasOH0lw+Zo4sX2xcA6E+YK95WhJNfmer6ftofK5iiU9MfjYqWpQrjvNNTdAFS9aUCEavDVklMky1RXiUprrWXCtKhmUQb7/ABCPzU9utauwZlVyVKdrf5KiGgK/sIRUqU4CKwHkypVhNVeWfmP8mJdGxU1BDu1LWqijE6guaqc8/HEpcA1huGS2ce5woyl0lhRQYrYVj/EcT3bfAlrGxZlbmvaay3DbgoJ98aiF/ILkQXsC3zLXtbuXKP8ATlyNRnAof3Ba012mopQMmC1uzlgrGM/sxWMDGDNVv3KhqEIwAxM9zDmtNQMALhqQZemkjn4cAJint/ibQB0MtS1U+uAzPZTBtyJ7Yc9omxAhoahwjhz2u7goBVf2WKtyJYAEo540SoDr/TGGOIq8oSyR/wBlgAAYGOcOttEQ7gQCuogz1a1qABKEg98H2zUGe3VH/O8CFaf7NIFOEXCaoVH7lxXQwm4JVfuC1QS4TU//ALBaocJpo/udZCUF/wA9U1MCXsLAHVykp6a5BPxLphfoT3SyPiU9XSCF3l76kOu5b1rWJP8AFBewCcpqNgXLXJJD4c1FKGx/cZjOytiJcnQGR3jMpZP/ACOOM4cZ3M/Ts9F9FqP6h7XvY2PLgODh8w/TEbVvQ6A77V5w8wDeOkOu884fVfRe4ZcfTGwnpOfOCYDkdEx4EewlbO0Bj3PAx87XxlF5ODBDBDkT5hghhwIsDqqLeh1FFgDcTHtOHvOB9coOscDxnB0XzHHgHB3fOXt+cHDgw448DwXHOIooYOgXFsAwoBtUIgCi2rCKiiwooohFBgDokxx5OwmOHDwTHOdhgOXgbH1T4nGTFFFgiKKKLBEU5zxOMcxRbRgbHlxx4cfhucTiOOA4Gz52PYMBQwGCDBgwCXFBgx4MeweLxOIoooAsLpqLKiii3oRYU46r6rh3Pznhx4cce0nAwY+o9rjj8EHLjx8x5McOHgQwwGHtB2ih7xx4A6ThiyIY44O+TPiPJGBvUGxRbFFFFFFBgDcsdvCQi2Htu56Jjjgj6AMcfUX0ywoukYPD5hg6AHP2jjOBl/c8TiKLacGOMxmP7IQwHoLC8s+Ootjy9jj2va4/ozB0FHCYMOOHAMccMAw48Hc9rj6DcWHHhxx4MG0mPpKKLYooosqARRRRdIwZIghyMHIOD0h10OoYME5GXscO0YPgPAPTO54eBsJj2uHA6b8V7DBDA8c45nLwRguI45nMDh3/ABjmGPyxlDcZzldEPJ3swHzgOi9jy8vIeHG+jzvPiDomM4cc5hE5nOHhQQjmIxYAi6AMO9eU/CcP06w49hx8dMnc8v6IiKHYMd8DA6Jnx9G+oIsKDKi+1Bw48GPY8va/rhg4ccf3I2KLev8AmAODkD8YKlgQ8E7RzNJyojBVkD9y1DUkH4hBHUEPpgJ91FDRCFiIxHC/BzSZpPMNSAzACYQRKVbmj+zR+ScNV3lajUnBRytXYCGpTwKAkwUZHPEQ1JoQJESq5hAPY4HYQgQp8SpqizDai/rliD2lbKG7s4LV+R8wmpSEsiZVQXAMrZWanuIJRg8KW0hcRhtS3qtcQXIIMv6hu+Ey4bNBdFYUEvfVpL+ORDarE1hGEszUOJrEuXcmCyBE1/yayyVLFmVTlk56ZAJf6jIMqbNCEkwsJGfk1gtTRZAr4cGpTkQv5xSmqWCsR4IweoA3FBUmaDDVHGkkBGaO8NACQ+YaoiFOA0IH7+XDWqK/+QipQiq4KgppQhEwhKAOMBOaq6gZU1Fu/wAStxUy1zaxtGJrqj/ewnv20CiCAQnuHRpmqpqAe4liCKy1q6UILjSAyOZ6lgSF+sPzakBuNVBU9ztxBf8AE8TWZq47TUYPUsHDYtzUegSzhx/evL+sf/r2/GfmPcfs3Hse0dI/a1+/HTP/ACJ/8pPqv6F734L3WJ8l7j5rjhljB0zsfUPjHqHtLeW/o7dpbyj5IwcPY837S3mraeg/Ev2loPMeD59zD134Dj8xmOeqe0bn/8QAKhEAAwABAwUBAAIBBAMAAAAAAAEREAIgIRIwMUFQQAMyURMiYYFCcHH/2gAIAQMBAT8AH/6sf4YIjwtLY9DgtGqC0s6GRnQ0RselryL+Nselo6NRHT/TZq0NC0ajoZq0zZN8ITD/AGaDVrS4eP4zVq/4F4ROcJTVRoSSZr000P0avKxq/tjVhuakalUdGNKo0odK4vsnklFoTXBqUxp/q4LlcjTiGo4NrwdKS8nSn4GlDVpnYWUidzQ/A0mTSdfSx6tMFrU5Z1nWha+R60vZq1UWsWpJ01a00adaNTVo/wCQWs/1FB6qx61IV4TlKdY9R1mnXB6uJMLVPR1/8HUXmj1K8Ieq+ha4PXU+Ba+JO2vI73EV91fgfdW5rD7D2LY9PFwuR8fhXkaj2ImxbFj0IaEiHSNQjIP+ovONKrg9LQ9r2afJaNcD58GnGnyahDEhEw7wJGqLLROBJNHA7Uf+Q/LGelheROHv/okwvJGiMfkRZhY94uG3EUvBxMaXHRu9tuj130dTkLhDbE8JynulxWisfONPk1eTieROFyvI8QWGUR7wrR50iQ+GNQSpyheCXSyTYidtqGrTPB0nSxoSY0oaRoePQj/GHjxhxtCIqyRGlx4fTE6Q/wAESRfA/GEextT/ALKkPPpFjo+Rxpcngb5E4JtX8L1U6mJsbdY24XcmOTCcotq/FO++9OzCExMpE2wmJ2nlZXYveS4JtWlvKJl6WiPGnCRBz8c7MITtpVCaReXilWKLUxu85TSZeGVFG8IotTL+2jZdnr8cyv2QSGspEIQiIQg++9j3RZWmqjU3NZmyYmJlHOzUaRitH5xzlk2w6SC8j8j0iVIpcRjxeB+FhIawick4NSQnEh8sglwQiJyyJtUirRIXhYUP84cEJKiRFT0cDeEymo0jFwPkqODjD30rKVnVivFy8oT57FKysrKyvdHLsQmu54FsfehCfpb/ANu1IeGt157D/B67UwkQekgkNPCzp94g1hprK9noSGiEy1yNYhPIkv8AOPWH3FtmYQey8jYtR6Fq4KiopxNicKJjZS50tCaHqSOo6iiZSsXkerkrLmjdHN8zGTHoSpOSHSyEFhx7EMjF4YkRQmJ2IQaOSdqE3cb68JlKecLjHKFqgnyXk0tFRxiZcaG0JoTOMKYgkPERETLI8QmZveOMTtTnHFHmlRMOExMP0REEQ4h6xxSc8EOMOYWFiI1JC/8ApxTiHoRGPEITL7tLijd20pRMpSlKdTOo6mUpS5qK8XDxeJh+crFWV2l4/KuzGLtwSINCR0k2TE2qDKU9dh4RBrMJhZW54XhsbZp5JmM94fgjGphcJ4QxDPWOCKYfli/riI8DRTyi4XjcsekhCcw/B0uHh4p5YmdPOE48dUkK2Pyaj1hM1GmHUqxsTgnyUT8l4EyqYRSnVBajqKUepi1HUUpWdTG2yuTHKQu9SvdXtTG6+wvAtItJBz0UtJxii5QpyThCQ1u9EHuQ33+fx0rE2Vjea9tYmK0vO97Vhi7147sy+0xYmzknaWyfoX5PXaWHhbeTmdn0NCmUqRGpIS/Qsetr2rteu9e5PwPtrYt8J+ObUNd5b7led178ZGNcEGph6UheDUuSEEajwj0jp4qxp8N99Ih0kEiEIQmON6OM+uzVDq5R1UerLYmNnUdWKUp1MomNlLu9bl2k8Ltevwvz2pvndfkXYX4uf8ZSpwmVj87WuBD855FEqJHrHsWHmYfgW1ExCMhCPE3QnbQ+fYhiPZRwqOKJnELwcFG0XSPUmi8C1F421YU2rYmyvZzh+O0/1zsQjI9vOYTY/wA8xMzYkJYS2+iR84e1iL2H4Fj0IfnC7EZO3MNISjZDpGafDIe9ixahMrKy1lG6LPEwhrNxcUuKUo/P5VnnKzGcnIspDJiMSY/y++2+xNq8j84mFtiEkREWIsxb1+l9v3ngaWHhJ5g1MeiLEXYjFta3Qn45mbbstKl6E99Ymy9qfAm2HSyMg0JMjOlkZGRnSdLOk6SEzPk6R4WENbUcDgvJYcDPfzdOODgqKi8F4LmlKUp1Qt/DP3TbNs2z6M2LesTbMr5KExNdh4TKXYtvvsL4EILDWZsvAiLL3U8vNfxbmlwjqE+5CE7MfwVvX25thPr0ZS5pfuT7vO2fYWKUo3999hfWQ/vvexfRp6wuzfpLc8QmZmfZv0J32L7a+ytt+ovvpcLj8E+evvLyIfn9s+Alyhfe0/2QufvaPIh/d/j8iNTv3f4lyyfdh/EvOP/EADkQAAEDAgUCBQMEAQQCAgMBAAEAAhEQIQMSIDFBIlETMDJhcTNCgQQjQFJDFGJykVChJDRgY4Lh/9oACAEBAAE/Aqn/APKhrFZUrMpQ1H/ysqVKlSpUqVKlSsyzKVmWZZlmUqVKlSpKkqSrq6urq6urq6urq6uoKuoKgqFCisKFChQoUKFChQsqhQsqhQsqyqPIlSpUqVKlSpUqVKlSpKkq6urq6vW6urq6urq9IKgq6gqFChQoUKFChQoUKFChQoUUhRWFCjz5pKlSFKlSFIUqVKlSpUqVKlSpUqVKlSpUqVKlTWSpKurq6vS6up/izSVKlSpUqVKlSpUqVKlSsylSpUqVKlSpUqVKkqVJV1JV1dXV1dXV1dXV1dXpFIUUhQopCisKFCgKAoUKFFIUIqFFBU6zoGsaih5F1FIUKFChRSFChQoUKFCj/wAedZ8sVOgVOgVOgVOgaxqKGo6zo5/kjzhrHlHzjoFToFToFToGopuooaj5Arz/AAJ8kfxpUqVKlSpUqVKlSpUqVOq9bq6vS6v5sKEaRWKxSENRrmCzBSpRWZeIg9ErOsyJWdByBpnQfXMpRKzFBxpmWZSaEmklBSpUlSsx8uEQoUKKxohWG6DmHY0Os+cdA/ijWPIcU54buhiSdim1cUMRx9LDHdYd06gTtkKNKeaSmlGpRT3ZY+VwpQcgaE0lNTippFAUFNDQvGfKnODRJTTNM7ZiRNJCm9PGww6C5TqY0Yz3OdsDsjgsiwhTAuiGv5pmaNzR5ZBBKwXH0ncKaOxGN3KzDhF7RuUDKmh0A6xpmsqUVKms0JqU06xrCcsAZsR7jxsjUrH2HysOwhWWIi+8DdNxOqCuKPfCwzjA3AhORsgXuuBZMfeOanFeX5GcblCU5Yz9uk7oHM1PMAlS52xum2AmhT3xblMY4bulNWM/KR3KLsRpEx8VLuuDbtSYC2CCNMXMP1DYH2r/AEz8W+K78BYOYPdhkzGyxi6W4bdyjhMDNtuU3EnCzLBYHjxDuVmEwsZxiByhhMDIhYb8uACU4YseIf8ApAy0FCuCcj34Z7yKevGd2aseWBpavtn2X6Zoc0uNzKccrSVgiRmO5WKMrmOHeFOfNabpjSxhlMw27kTKYPDxcRvESFhDN+47nZYBJaflenGd4mx2KCJU1FTWUFKlFSpWZSFKlEqVKzIG6lSjSVmpJoSgSpUoawnBYPRiPas6zLOmuzLGYS2yw3ysyfssBsguR+tIFk0LKnNjHYoRCxvpuTC3w2/CDh488bJqITgcLELo6SmYgdtTGbOGVh4gcxqxsMuYYWG5gtlg1hOwcz2HsiEFjCHsfxygzDnMK4hwoIcVgOOctF291ZW0P/8As4R9qNb+493dYmZuL4gE2hRi4n+0JrXhjsMj8rAaW4QBWJPiMKxW5snsUbgrGGVuD/UG6xMQYjSxl5WE5zRkcNlKzKViYee+zhsUB+oNnR8rJise4tEgpzMTEEOEBNDgIKwmeGI908FzSO6ZjZBleIIQzYrgY6QsmIxxLRIPChx9QQXhziF3+2EGfqGjIIjusBrmgtKe0lsLBwsZjzPpUKKQgKRWFFIoaRQKKGsIaxrGsIhYmFm+VGOPtlYbcT7gsVjstmysJhawTR36VrjMkJv6dre5Rah+lAM5j8ICBChQjhB0TwoULIm/pmDujhNIhNZlsFChQoWVN/T4bXZgoWRZVChQoUKAvCw/6qAoWRn9QoFYrlaSDG2k6bINaNhCOs6LVOs6zoFToFToGsUhRoGsVyjQPKPnH+YdZ1nzjoFToFT5Y1FDWNY8o/xT/J5qdZ8iaypUqVKlTSaGkqaSr1ur0vojRFIqNY8iaErMpUqVOuVNJUqUcRrTdZgppKlTSVKlSpUqVKlSpUqaB00upUq9bq/nGkVjU0y5w7VOs6cIy2aHQKnQKmk0Hn4udvUP+lhua8SEQsqNgsr3XzQsIz+FCJhwHeg8r/L+EGx5J1nSz7vmho8w0lN2C5qU0zSaysyzLME49bBUEG+km8BNlFymy8QTFcHae5WahdxWT4keycYBKmyD7wnGE1xPFk5+VZliGMNyYMrAPZZxMJxFqudEDugSCjiJpkI6BQqUKcIeRiYgYEP9UeGhDP8Acn5yeg7LDfm+UXPe8tbaNymtjmaPHhYzXDZ2+jOA9wTegEnm6DgQoL5QLkXgBA0JUprg7YqUKl7Rij4UrMFmvFA4nbZFwG6B1HO8mHQAmuN54Qf7IYgLohPMEIu+0boOOVNz5od2TmzzCwdj8rM5x6f+1wg6dgsb6blMNTSak0cS52VqZmGIWkzaU50EJzoTsUBNdmbKL5dlQRLvHFuKE3DU3pkFAkiUDX/MfhbJrwJlRZP+z5o70u+Ey2EPhMgNk8rCkie6fhg35WGTmc08Uf04rT3EKznQrElHqcPZYl3MbTDuXOPdTmxY7LGFm/8AJYx6LclNbF3LEEjN72riC7XIeyLAGH4TPQPhGkqak0lE0GvlY4h2G/gGhWG85SG+olMZkxhfi6dhMJmSCmuc3GyEzben6q5wm/7tEf8AyPwsWxbKY3dYXoUx+ShfEAo7YoXZ+FuGNUBr7chM2WEXSZriANc10cp5hhKZGUJmxKwiS26d0bH8KfEfZbIphkLN1EVwnxmnunelzkfphNww0ysWCwoA52Ty1AdUdlvi/ARQMYBQLWsCYbEHdNEBY30ysQk5LWTZ8QE9q/qPRPY0YzK557pv1XrFbmaV4ueGgX5WG1hzTvKtCaP3XH2Uqf3W/CxN2H3WYDGdPZYrs3pWaWw0LCPSApUotBWQ8k1M5gpXCa2BCGG0cLZOzRZMZl+VdFuYXTGhuyOCCZkoNhYjDYjcIZyvAbM3Rwbggwssi6OGCIQwu7pRw2qFChBQoRGgax5DgHNIKy/qWWEELhMd4JfLCTwsIOkveLnhPzfasLCIeXv9SleGwPz8qVKlPnxMMwsQExG4Q8TkKMVsgN35RYcojcIMvmi6vTw3zANkGQVlMoOc3pyFNbiAkwLq6unDMIRaSyE1pDQF4WJtmsmMc202RwpRwdosspHKui3EBlsX4WHnzPJV0THKwhfE/wCSc2RCydOUoMj7ivC7u/CLA4QUGBuyDYpkbEIYLG8IQQoUKFF1ChOYHNIKDYChQKZR2RwmG8LLAVhSKFrTuEABsjrOqRpFAisDZw7OqKnQKSjoFToGvnXzR7oQmLoVKBqPPBnR4gEysNvTJ5oQDiweyZh5Hu7HyHODd0DNMI9GhzoT3QWe51c1Kc2QmAbiuEZbPuUDKxPQ74WH6G1FTsuoO8XihICGIc21jsaQDjunsukbUw3Tm9immZ9kE/8Ar3WFZzmdkVhujxf+S8aL5THegqdAR1DWNfNZEJrgdkXgIEGkqLyiUFPUQswmESmO/bzFCbOJTy4fCY4EajsmEC5O6JsnGGqbhTiRnm3ZeMbdPT3TySQ0FYcguaeFhehZxXK08VcX+I3pVwLprnOvwru2TTKD+pF8JtxR+Hmdc2QFA4YZxJ7rPiCCRYouhB8rH9BWPthns5Pdlamzm9Up5JsEwxhAnshIwi/ndYZkA1KBCb9V6u6TNgmO6CSsIRht+Ex0iV62l3/QRlrWtG6FnZaNEVxLwwfleCIjMVgyCcN3Gy/UD9v8rGH7XxdDZFo/1F+WrI0UHTjuH9hKZ9bEFAG4hJPdPZkLXg7b0yxjun0p7/EGRqFgApUqVKlSpQ0XUqUCpUqVKlSgfIOyb1jKVl/cOHwmNh7k3d7isGIPynPjMD3Rd0McgZNk4XsbrDMgoODXYkrNldmIsUZcHOjhf4Wf+0HZn7WRWEPUe51O2WD6B7LE9KxL4ZWZpbZEftH4WX9pgRIbjGf6pvpJ5KwfphPcAIhAQAnOgSgZFAsYS224KxAThuHsj04XwEx7QwXusOQ508rFbOwWXK9uc2hAjimI3NHzXFwszmvHCgvInYIuAxDP4TiS5rossbqw7L6mGQU/DeWbzCD7QGlZP2yEWyyPZZMRzcpsFgyBlPFCCYpkePSmNj5QwgF4YuE1pDQExpEhDDDU5maF4cGVdAKFCDdzTLeVChQsTCD4vBHK8Hu8lBoCxGHxMIxysmXGmLEIBBgCjSNYqdA1jWaYeG4Yjuy8M+IX+yi6GAAd1kCcwbrBbOEm4YZsix3BTGZVkaTMKEQg1ZVChZQoUKKQjhOBJYV4ZyOk8LDuxvwsjRwoUJ4HjM9wgFlCgKE9mYQorFIQYwbAKKWUagrahXmpU0lTfyjWUKnQKnQKnQKSipU0FedA1nUdk9/RbdMblYBqOgeQ7xYIyz7pjcrQNDmSWnt506DoGsV5qVxXmp1nQKmkqUKnQFOoI0KKFBrGs6yBNZQNT5cqfJOgVOs6BrFedfNTSVNZRKlSpUqVKlSr0ur0urq6urq6vpAUKKQoUKNYOs6ZUolSpUqVmWZSpUqVKlSsylSppKlSpUqaSpUqVKlSpKmjy+QAmOdJBrfRel1dXV1dXV0FesKFCChRSFCikDSfLFToGsV50CvOgazWKsdKNITtkTLU30j+DI1HWV/kqXBu6a4OCe7KpsvFExUVOgV50CvNTo5qdM+aKmpQrzSaBFArmpQ1nVtiI6G7OWHsnnKJQxO4QRQe3voNHPLXX2QMrmp2UZd1sj9Qe9M4mE6YR2U4hmNk10iVndc8BAzUpw6woWFLpnuiJxYW2LATmz8p7v2z3CZhixqNYrzoFeanWdZ0CprKFJrNJUoFTdGs0BXKlSiUNZQ04lnNKzt7p7oajhAMJ5WGZYEPqOWHyFijpWUxJQByynGWt905oyFYWwq4O4Kh/dFhi5WHhkHQdkIIUfansMgyoWALH5WL6Cvsn2WF6Ats6lvhfhYXob8aHNzD3QTWBs+6cyXSDdeHEFFuZeEBPKaC22o6pUqVKlAqVNZROs1vSCroqFChAUhEKFChQopzU6OdA1FDWUNOOCWIEFkAXXhuyhZHu3QZCy9UrLdESEWv2QbaEcMwsuI7dZY0DXk7FBl5lFs0DIJ91Cy9MICAsqdhNusMWFIUKNMVhQopChQoUIaxXmp1nQKnQKnQNRQrzU6OanyChqjy+dA1jyHGE7EbBusMdLfKOs6BrFeanRzU6ZodA0TUV5qUFKC5U3Uo0lSuUSpKOyGsoebKGsFSp0hSpUqVKlCmVvbyzrOgaxXmp1nypQKlSiVmWZSgVKlSrouhTKurq65UFXpdEVyoBHyCh5EqaTolSiVKnRIpKlSpUqVKzBZgpQKlSpUqV4jdqTSVKlSpUqVKlSpUqVNb0vUajSFFIUI1ikUKiorzoFMRxs0JrCHb0AzPcTwi3shXmpoRKux0cFCpQ8gKFCikVhQiuEINSm3FYUUjRFAQrKKRUamiWu+U3YV5o92UKXN3WG4mx0l4B0ijZDro6AjtTMJ3qUKgziHtCmmI/gLPb3TSZg6TUmENqgzCmhQ2oPru+FyiYWG4dXzSYoTCDpKLsoTXEpxgJpBUrE9KaigUfJFTSaCr9kPprD9NBRm5COs1cLJrRCeRFC4TCJtSQpA0mYsmuMkQnEjL7lPJEDlMmSCVPXCDgSR2WL6FjekL/J//ADVpuQUDKw75j7o2igfKL7wmmU50J/2n3T3ZUHSEcRoMSpBCasWQwkJ18P8ACa1uUJslpTbtRxP25WFmndG78vtTD9T/AJRxENk76o+E/wCoxf5PwsxLoHCCzftk+ynoanO2Tw4xCYblvZG71mgWWYQm7FAw0KIu4oLEndN2FMQEODx+U14KsVDW4nsUdlJOJHZSmmblAziJ10ww6E/1JsAUeZgIVJ2UIaxUrE4Twcwg7J/pKbmF1wsIOJlO2Q+m5YfpCg4jjeyMsIpiEh9uV4Nt7rDM0JgLxGp5zCxTMbh2ibqYcntEFN2TPXifKccoXCHDkPUUXRGn/J+E4Euw/lP6XgwmTmJI3RPXZYQgJ7ZYQnMLmtX3/wD8p45m6zdA91Ba4SierKsMODnCVN4T9h80Z93ysOxIX3r1OCxvVtZYMZYWIGZgSE1zBshstwrKwQACc14nKd07D/ahNdxC+6fZSgBJ901t596O+o1QM0rlyBMQBdYYIbCcH5Y4WUlgWV5IzK6a0hESgLLKrrIdl4RPKAMJzZCAsoULIJUIsBpkbuoWRvZZbrKhhgJzQsgULKAhU7+aboNAGyjphAWhDZdYtCvyg3dMbAXW2elZHHdAnsnszEItdwUxhbWB2WUdkcCVECFdXRaZlBt6NkBZYJPdOBIhXRBhAuBunnZXpdXUXlBXrCvSE5mZPaYEcIB7ndSy9UrIc+aU4HNKLcyye6yGbFDCvM3XhhBoCLQjhMUBZW9kFCjQfLJhYh6flDZHQK81Ojmp0Cp0CvPkj+KPKOiAoGZtDoGsV5qdZ0CvNTssXFyR3WE7OyaCp0+E2dQ2rzU6BU6BXnQK8+TzpmnOgajplSpU6jo3QYc29DoFToFeanWdArzU7I4NnPdusJpA9tJ0DWKSuVNCVKlTSVKKmo13V1dc+Tz5YNefKKGidE0ClSidMqVKkKVKBpKm6lSiaSpUqVKKlTQK6vS6urog5SsLNkCurq6vrisUCinNToFTSaDVn7oV58nnyoQ1woUUikUhRSFChQoULmkKFCisK2kUJ6gNBQ1HQKPkvaJiybOaDpBBoKnQEHAuI7U5q50BBPdlikjNU1c9BZwaHfQFmExSQg3NcoLEbLVhmWhFwzRQb/xBrGsaxXmp0OJzRsEWtF5Kc6MVpHKKNAQVIG9MSzmFHFaCpUqEz6jvhOcA/dHEaEKnQKOIGI1ZhuiYEp7nWDd0x2ZkphkJkJ/xKZHCdiO4FghcI6AtsV3wgQauuLLF+mhsnB2JPZZj4Q7rCYc0p3W/KON0BCdXD9T/AJTto7oMTrEHhYm7Plep3sEz1GFiGGposoyFXci2GuTfSKPeMpWEIYEA2aDyT5x0DzhXnQKzLiFtigBfqNm/Kd9YD2WICGWWJ9KVGUscOU71slNd+6Rwsb0yj6Q2N1iA+GFmlzcqE+I4IT4h+EwAtcSsMB0oDKmTFDoFMRoEOjlOEg/CdiS2ALpgOe/DVl9UcpjXACSm7uTnZT7Jl852lWDYTPTClSprjXxGe6cwNEttCe79tpCxndMclPzDDH4WLPhmyvk/CDnkBoaiw5ABwml8+lAQrrFY5wF0AQFdBsEnunMzcoMd/ZFshDDOYSdlkLSg2E5gKyo4YKDC1ZZQwyD7KFkb2UKJxJ4ChDySp0zSVKmkqaSg4FTSVNJUqVKlSpU0lSpU0vW6uroskoNy8ItzWIUC1qRIiE5kiEWSoy4jVdFXpHNPCnleGoQbCikKFCChZQQoCyt7UIpCjyAsRmaI3CyYjvUiwRlTcIAyiAUdtHNToFedfOseS5ATzSbx5uH93zrcYCeYbKbtU0BpMBDEBMUKY/NUaXnKJ0yJTyDiMoHyYNAQeaDUdA1HzufKOgV50Dyh5LlCaZC++jrBNLplDEncIJxgJzoEomEHGQHBOJmAn7Jp4JWGLuTs3ATZpiOIgDlNJ2mU9vUHKzmpx/bI7FSZgJr7wbFPe/Nlai+GyU0yELYhpGZ8dlAReA4Cj+l7Xd7Go0kSCEw9ApmWZZWu3TMNoe72RV3jNHwnknD+VhNOaYVy919kFKzKRNTWUFOkoUlBSFKJpKlCvNTSdJUqVKBUqVypUqVNJ8geS8SF1ICAsvVNCJELw3clPadkERIRmWt906ZkJoLnZj+FDg+QnNJQY2hC5piNmCgPaEWk8poyhYuHmuEWG0boMeX5nIgtdMTKeJAPYoTmniER+4PinpxTPNMPdxO80xTs33qKSpU0yS94n3TXHwj3CL5ywnOi6BUxifITrtIXiiAIUTh+8yvGZymGc57qVKkLMJUqUSpUqUCpUqVKkqaXV1dXV0ZV1fRC5UKFChQopahUKKCvNTrOgeeXQpnyYNYUKFCdIIUUhQsqhQoWQO3Qwg1HBBMrIF4bQZUKETlQgqKQoT8IEzKa0NELI0cKEAiwFWUCkDtWKRepofUBQVm9TSRNBU0JAF0HShXmhlzoCAgXKmjg7hMdMzunsa5MJu08I8aG7V5qdAqdA8oaX7ig0gmTTN2QnnXibIOBXNC7dcLYj3VtJRFkNqES9qyiUXAEygQdtDzwN00yE4wRQEFFdq5n7jZP+mVmHdFAzFCQFuFMzCB679k7E4CB6ZQoVPWB7V/yD4WIIGbtTxAHwnYgBRfa15TXZkHSUOt88BOgXKGK7M0ZbFYnB4T8TK2Uxzi6mDsflFP6nBvG5TRlUp3qb80aP3XlPdlummRMVbtXmp20DUUNvKGnElCU31OCb6nIAvJvsp78LDmLpu5RAKHQfaku9XCMy3QFiCQPlPiPdOU9TUeyHpUZpPZbq8tC5oJX3ozFkykRiCkTj/hFobiNjlROZ3/SzftgoTF00n1QpOc23WbNiNsjysP0BP8ASUPS2h2KZ6QolpTcL9ueViekfKcepkbBDquixxc5NEMiEyQIhZeufZAtaTKbJoXCYRErIBiD4R4CeIiCnWLXKfEsNuU8w0pozQmkkuCjK5t+EOb3JVgmOyCCCnNdiRwhhwWnsiM25snDaBspP9VKhzScuxV04GcwUu7KXJoMyU7NwmtyiguroygFdQaRWFChAKFC5pFBt55TDZEdkxsboNhxPdOamutCbZyd3ROeyNxCtEIWgUlSpUq1IEzQLIsvZAXlEHODQEk7K44QnlNm9qFspohfhOEkLJibcLw/+kZhMENATgZaUWnODQB47QokJrSGgJmbM5XWQ8OTQQFekKNELKgoXhjNKhFkkFFgKGG0IAQoHZY303JgsFhDqxPlFoPCgDXzU6BV4kgVKFeanQK81KH8DKENY1jWNXGgeVzU6BXmp20Cp3qUKWKCgCaHQK81OgV5qdkK81OgV5qdkPK584VPmT500FeanQK81O2gVO4qdAqdArzUqaik0lSKAqVNJU0lSpKFLrlXofL586anQKlTrnXNDoFQ9pO9SVKlTSVNJUolSpUoKfZT7aLq6zdUcq9Lq6OJ1RS6vWKQsqIUKFCCsmlrhsuaG7s3AXCFQnGFvV7ZuN0Hd0K81d5fKurq6urq9L1urq9LqD5MUhBQoUXUKKRWFCsrFCCoUIUfLnZQm4bW7CkIvYhFRXmrjA0Dmp0x+9+KDmrPu+ULauavdEIOBEoYjTyi8JpsiRMJlnOC+5GwWH6UQi6LcoG10HhBG90w2AXNcRtpG6YZaK81d5fOgmBpkUCeSBI0mn3U5WYTFX+goU7poeb5qOPW1SpHdP2U2UomN0KG747Uc3kbppkUFMP1PPuuaiGCCmtgnsnODU0hyFHnKJQc7MM3NG4klY2bLZMdPCL2gp7w0JhzSvEvAaaZ5BMJpzNBqF/lPwnXcGp3QLUcYEphEn5TzAQnldTpcDZYJLmXQ9Vyn3cAmNirBJlEfu5U9gGX5TRumWdCwxuUy7nlMdJd7KExsEhHdYfJTruAWIdmhHgJ1+kJnKZ9V1SsH0n51HyynOykKZQdJTm2Q9K4T3EZfdGwUS3MhcKFiegpp6RoIkFYR6USSU6TsrgJjeeaFYnoKBssze6Cy+6aTmLSsRg3Q2TLvfKfZqe2coWQNcITh1AIO/cIo31PRpti/NBQ9D54NXGBKs5qwjIPynEjF24TGm5PKHNMUSz8pobYysZ3T+U5sMb7J12n4WH6Gr/N+E4EPCYN77pstkQjOYp0NYFgeiO1Qv8AL+Ed5CyzugpURiLH+z5R9JQflZli6wjlEHdP3Fk1pF4Wa+1DssIOAuOUGHxC5FskIh3CYx0yVkxODZNblEIBXUItXhe6OEDyvCC8ORdBgajhA8oMa1QoTrNJWE3oUBRoPllY3pVsqaGxKsQVHRC6jZObOX2RuCFlGSFwpTvSVhtDhupyvAlB/qCzNjMpTPvQMgAL0uWaTR5cB0iaG4QIj3XRFwsPY/8ApfuJoigsvwjcLjZXlOBKY2HlXRDw6Qr8hSQmhxdmKurq6uvDg2Kuro4Q7prcosnMzIMd/fR4bUWAiFllRZACFlCLQd0GtBUBYbQ7Me68IAhHDaTKhQEPN5qalDavNSdArzXE6jlH50Cp8sogEQg0QvDCjycmUdKGHBkp2GCg0RCAgJo1FBZRMrI2UKnSbLxG91hjmp844jWmKFwG5RWZsxKL2t3NBiN2mpEyiMWMqa3K0BFBwOxqKbLxDPpsiYWYHEaigZV0TAumuDhZFwbugZXNToFeanQK81iBoFTx5Z846BXmpQrzU6BTI08Lmp8sVw7+J8ow1qEeE8v3V/CE9k1n7OfndYbPEBc7lNd+17hZGlsLCMt+Kc0OxQjwxdYd3ucPTCyZml3/AEm3YD7IVJc1x3TDLdkWDxG2WPZn5ox2Zsr1k9ggIxLdkILnE8LCcTmPvoNJUoKVNJUolSpoKXXKurq6urq/nnzjoGsV5qdApKlSFNZrKlEqVKlSpUohwJLeVkJMvMosYb5UVAy5YshYQAgwDNbdRigQITG5Qr0uro4TZ2qGwN1dXV6Qo905oduoQaAsoAssomV4TJmFhAQflQooQoCigrzU6BXmp0Cp3Hlmt/Jiho9wYJJQIcJBUKNEKEAoUKFChQoUKAgoCgUjVzU6+anQNq81OgajocSLp2ICIbumNytAXNToG1eanQK81OgV58soeaaYuZ7yOAsBsNEbaDoFedY1ivNToFeanQNq81OgajoCtTmp0DavNXaBSVypUoqVKlAqac+YNY1hHZ3wsD6TVzU6BXnWKnQK81OgV5qaygpClTdZgswUhZlmWYIFSpUqVKlSpKml1el1dXpegUVhQioUKEFFOanQK8+YFKlSpUqaSppKlSpW4IWGCxgFJU1k1ur0urq6ur1urq6ur0Hyr96x7qEQoUKKQFCi6hQEQoChWQAhQFC5qdArzU6+anQNq81PGgV5qdArz5g0yNJ0CvNTV/pKaZGsV5qdArzU6BXmp0CvNToFedYrzU6BtUb1PGgbV5qdArz5gqaWm6aIU32q7E7BAy2QmR/a9Ai6C0d0TARcIlDGE3BCe7KgSRcJxNmjdOdlimFyNYrzU6BXmp0CvNToFfuqdA8iVIQKkKQpEqVKJUqazW6uirq6urq6uudMKEAoULnzOamrdyECc5odlA2JKaABZPEkQKBYoltuE/EBw7cpwgM9lfEd/tCdAxASs4OykB9+ye4PGVqabIWxD76ZUoKQpCm6lSiVKlSpUqfZc0/CMqT2V+yuhK6l1K8rqV0ZV1furoT3V+6g91zuo91CKhQoQChRSAoCKhRQV51io5qeKlCvJqdArz5nOnw/coMAUXUKFChQoUKF4TJmKQFlCgLK07hBrRwoHkCvNToFeanQK81OgV5qdArzU6BXnWNR4qUNq81OgV58znyjrOgV51ivNTtoGo6BXmp0CvNToFedYrz5c0JUqVKlSppNZpel6DfzD5R1nQK81OgeUFOiRSQpClAhZgswU3WYKVKlSFKBU+ylcr8UKurq6Eq6vS6uir91B71hRSFChR5PNToFTUrio8wqVKlO9JTTYaJoKXV1dXRlXV1dXV1dXV9DjlCa583aaQrTFIUKFChQjabJuVwkKAoUBQFZRqNTtoFeanQK81OmVOs7a+RU7aBXmp0DzDoOxTPSKGmJ6Cm+kIV5qVmAR2TDLQsM3d86Z6ooEb4vxQkBNcHJ3qaUdAp4t7NlNM3Tuh2bg70PGsc6jtoFJXNTtoaZrN6lTQoVCzGhJU0vCGyNAa81O2kFGk0lSpWZN8w6Q4jpCDjMOCz+ycTmAC6vS5MPSfZMaSQU7qfHAWfOcossOZIqAXSo5QMptnPCwfuPuvEanO2A3KuB1Jpeb8I/UbQLbFPvR3rApi+kFXEPnlOu4NWGTL2+9lJc4jgJu1MHZcrG+mU30j4R196Suak2QQKBQUqQuVKkIkKVIWdWUrOKSs3sUXDsV+FJ7LMf6oE9lmP9VdXp1K66l1K6v3UO7qD3ULL7qFyoUIqFl7qEAorChHakUb5hQ0enF2TRJzFFhn2lO4I4Ql7pOyjqI4KbnbZFjp33TW4bVYKQpVkT2TdySsUGZCydEIvkQGFQW5bLEJcBDTujnOUwQAnbtML8IJwzcKH905pO26zYn9E9he2E5pyZYWXFmQN14VuxTWZRCErq9kcOTKAjZOY925EKD3V1B7qPdR7oN91+VFI91ChQFCIsgFlCyt7IAKB2UBcqBQ7VhNrzU6BXk1PFShtUV5qdtArzU6G+YUKRSAoR1nQK81OgV5qdArzU6BXmp4qdA5ryKu20CvNToFeamp2Q2qK81O2gV5qdDdvNFeanQKnQK81OgV5qdArzU6BXmprwhtUbmp3FTtoFedMhSKSpCm6kKUSpUqVPsp9lPtS6uryrq6Kurq6ur05Ue6ikKFCbt5orzU6OanQK81OgKVIUiVIUhSFIWYKUCpWZTdT7KUSp9lPsvwgr9ldXV1dXV1dXQlXV1eSoPdQe6j3Ue6j3UKFlWVALKFAUCVlCgIgKAoFBtXk1O4qdkNXNXbaBXnUdkNvNCur0ur0ChQoUKKQoUIRMcqFAUKAoCillArCO9TsmumRG1RXmrnmYaJQMhTRtHOyhMDpM0D5+2ydmZF5FHGAuEKjc17VdoFealCrdtPKO9TtUIV5q69ShXmg0HZDbzRrCLgOUHtPK5qaPmQAgyNijZwKzDWQZF092UJjpE1cQN1hEZBVn1H1FZBNjQ7LD9C2Cd6c6LczVm+3ZYbYKxPt+VynCWlNcICxfTCaIaKjaoJk15qaTQLmnKzOUo6G7IlBcmgXNTtugQpCkSgVIRcpUhZgipUon2QKlX7IK6vTqUlGYQ280b1OgLDjM4HdQOy5VgpHer7QaPHQ5ZR4Ydyn3yt7o9L2AIu4G6fwCg5sWQ9Sfx8rEHp+Vljp7lGwTH5kQsMDKjmAzLhDOHnpsnk5Ci0tGYFYbsxemuzskIv8A2j32QjM0gQITB93dWV223Cdmc1ZS71ITEShh8ypRykQgIO6ldPZEqQnugW3TSYuECVPsp9lzsr9lJ7IzIXV2XV2XVddSuroSupXXKg96FR7qFCAssqyqFCyhQoCgIhQFCgIV5qdA2qNTtvO5UqVKlTQJ+Hm+Vkxf7UO1wvDZ2V4V1fsvD91G6DIbCe18ggheGe90xrhuUWZuVkWV0yCsvuo90Gwo903DDeVC8O/qKOE091lAChZQvAHcwvCucpQwsvpKawAQvCHe3ZQOygdqCorzU0I2oNq81PFTshUV5qdHFRvXmp20CvNTU7Ibauau87mp0DTkb2oKip0CvNToFeTU6xXmp0Co3qeKnYoVaW96/dU6xzXmvGgV5qamkhSgpUrlSpR87mp0Cp3qdkNR0CvNToFeTU6BUc15qdqygpCkLlSFmCJCzBSEXWWcLOFKEKR2U+ym+yzKT2RldXZXV0JV1dBXV+6vKhQvyoUKEAoUKLqFCI2VlCO2gV5q7zuanXKmkqQpUqbrMpUqVKlAqVPsrzspPZSeyJV1dXV1dXV5V1+UV+VHuj0hR7qECDlM7ruoWVQJUBQEQEcoElQFAQARsQnGC33X3VzNJtU6BXlQsQlrDC4CYZFQ9m01HNeasHTPc0zjNlUobJ0teHcHeg3KzdUU5FXaBtXmp487lQoUIKFA0FNs4iorzU6AsSXEM/7obIXFMX0ORcfDYRUIOadjTmmZvemDs7/khjS7ayc2WkIbI7H4R+gw9ihRuM1x5XNcT0O+EOvDE8igd1lqasT7T7rF+35X3GmJfKPdEC1kSAvEb3XCDhR7Scvygi52zQvEe0w8bp4fIylMJIuFiCWOTTLWpnqcKP8AQ74WG1vhiyAgJzJPqTWAUc2eSgIO9TsjicNuV9NxLuU8ue0hoWG8ZQDUc15q7bQNqzdSpC5HnHfQK8pz3NOyc+Ag/Msx8TZT7LMJhZgOa80Yxz+vNeUV4gBiChdOeR9pKY6VF5TiZytTC7PlcgImmJ9N3wt/06ZdjaPthuTWgAI7WQs6+Ijsg3Cd/jrh9AjLQU3/AEzvYpqxvpuTYyhOTS7lqcY4W7CgIAWG/OX+xWXqBQThIKc0lo7ob0cDYjhS63Sjsr/1XCj2pKEIPyz8o9e9guVIUhM5b7r7pUolZBxIoWhya0DhX7I3EIMg2C6uyurq/YK6usgKhQe6hQoUXpCKhQoQChQKRTnzjoFeVi2yn3WJFp2UtiAv8gT1ifaOVhtu4lGTJlDYLmg/bmdlmB2KcHGIdCE8p08FN96SWk2lBpz5ipCkIwQsNkMLSmw0QJUq0Qg0/wBjCn2UCfSp9lJ7I/Cv2UnsroSrotEOFroWV14ZGzk7NwUM/JRz8K8LK927rJuFldY2Ue6ChQouoUBEBQFAUBQoCgIV5qalCo5r91TxU7IbVFeampQ2qK8+caXV0FdX7rndFsi6y2hQomFEpuE0FQsoUKFAVlA7IAKB2UBBW0nbQK81OgVG9TXjQK81NTshtUV5rCih0BCnNTxUobVFeauqUKiv3ec7QK81m2gaihUVNTtoClSuazoBtXlSs7fdF21qnbQK/dU8VOyG1JTea81d814UqQpQKzBSpupUolA+ylfhD4V1dCVdXV5V1dGVesKFCChQhv5ztArzR2xX6f6X5Q1HQK81k2UqUTZTSUDvSUTssyzqVmCkKUHKVKm6n2U+1JPZSeyv2V+y6uy6kJXUupXlXV+6v3V+6j3RnuhsoWVAKAoUCVAWUIxSAjoFeau4qdtArzU7ip20CvPnFSpU0lTU7L9POQ/Kurq6urq9Lq6v3QUHuo91yoUIhQoUBABYo/bd8INyMa4flClpjQdAr91ToG1RXmppK4Q2qOa/dSUTrFeanip0CvNeanbQKjfzihqNDsV+m9B+UNk3GIOXEEIQUbI4jfleN/tK40CvNToCfGUrCMsRIFym4jXI/WHwn4jWlTZB7TsVwhUV5qdA2qK/dU0NBtUV+6p1ivNJR3CkKQpUqVKBU1ur9leVdXRlXV1dXV6DnzihXmpr/peWvIQwsbjEWJh41tisPDyN90QCsrRsAtsX5Ce+IsrxdT0yEHAtlHGObp2FeaFXbYlZn+MW+yFAi0HcLDAD3tIWL62zssTrbAGy/wAjfhOZeQbonNhu9lhs2dQVFJUiVIWYIlSFmClAqVNJ9lPspvspPZSeyurq6uhMK6uhKg91dRdR7qKQopCgKEFZQFzXkVOgVHNeampQqOfOKG1eaSipClZlmUqakEvaYWMDl22KuRss5DckXTG9ABCwmtBIi8q6uryrogohx3Xh/uB88K9BSFChFjSZTmNKDGgWXhlp6dlCCgKAhzXmp0CorzU1OyHFRXmp4qdAqN68ip20Dao5rzrFR54UU5UUOgajotNeanQK81OgV5NeanQNqjc15qalDaorzU8VO2gVFeaEoqQpClAqQpQKlSuVKml9F1dN289teanWfNOgV5UqUdArya81NLKyCkKVKlSpuFKn2p+F+FdCVdXQlXV1dXV1eyv3X5RrCAUKEAoUKLqFCNToFea8ipqUNvPbSUd9E0mkqUSFmb3UhZh3WZZgswWcLMsylSs6zKVMcLOUHq6zFZ1JV+6JhZj3QrChS3Pl5hQmljpjhchQFGkV5q8ufi+G0xHqK8Bo2Lp7ymmQsTDa6CVEVwifExWk/FRXmvap0Co5rzU8VO2gbV5rzU1OyH8BziUCaxRyC4RN01ymyNJtRho9N3Wyc4o4pDmg8rNakphTypXKDiib0asw2kJwoDQVd/8Adw/+CxcZziWtBjkhYBwskMTiBcrxzv4Zy90DIlEhYU5L9097WC5TMRrxYqQBJTXB4kUFcD6mMD6s9MxxHlrfSNynPAe1nKxX+GwuWH4hHVCBdiF0GGhNEfqG3npui/Eylze+ynpk2sv3nAuEAcJjw7DD004mLdpyt491hPzF3ssXC8QC8QsJ7szmP3C7VOgbVHNeanip20A2UqQpUqVN1KlFSpR/gOoMVhMBrj76mvc70AQpluycYWZDZOTsQDdNMiaF+Rspj35ZdCa8PbmCbumYr8ScrRl908XWM50fTNjug7MwGE4xum4t4LSOyYE9Aue+GnZBqhPxT1EOHSdk2SGlYmBjOMh342WF4THxkLX+6OytCInlMdm4KFcW36zAPsaYg8P9RhOA9VnL9Rd2Ezu5Ypa3Dd8LAd/8Y92ysDDYcJj+e6wj143sVh9ePiZvt2WJ0/qcIt+6xWK4eIxjjDdynYnWxzPQN1Zc0kLEwsN5k79whgs/s4puFjMLg1wykz7p2ANwTmndfqGPfhtA/sJX4QwsZshpGVYbAzYfJQw3tJyGx4KLXGM3/SgkFeC//TnCtsmj9RAbDWgcrBY/DzNib7rq9lh4bw973blXV1dXrfQAoULlQoFIChFRUbVFedTv4Dgscxhpha1oAWYJziEwyKFu6wMTIPDNiFKaM/6i/wBoWMA39Q0+10xYjV+mB8TEDt0RCF1jsjIeA66c9uUhpkkLAgYYbyN0QmF2D0kSOCvEDjsViDNhuHssAzgNX6jDJZbgrCGFY5iT7phsnXWDg+GD8rlfhZPDxHThSCZBQJPCLC4RssTAx3xLxAP5RBhQ5ZSr91dX70LRmHsoULEwmPAlNwMNpm5Puj+nws+a6ytAsFAWVs7LI2QYuFla4XaCrU5ryFNDtoFRXmp4qanZCorzXmp0Daor92o/wDusTCztIX77LHDze4TfHd/jge6iVFITsBj903Aw27J/6fqzNeWlNwWt9/dZAiEGN3hZQg0BQEGsGzRQ6BEWocPDP2BNrzU6xXmp4qdAqNzXkVO2gbVFeancVNeNArzXmprxSQpQUhSFIlSpU3WZSjx/AOvmp0CvNTUoVFeanQNqivNTU7aBXlSpCm4UhSESIWYKQpClZlKBU+ylA3UnsrrkLMZIhXRV1dXTCXCfdX7q/dNuN1HuoUKFCi6gKAiFAUI7IKAoCbtUV5W1Dx/AOgV5U0OgV5pKNJUoFSFmQKzLMpup9lPsj8K/ZX7K6urq9Lq/dcr8qPdOtHyo91CilqBQFC5UBWXIrMz7GodIQqK8mvKZd2IfdSJiUanZYPoP/IoYgmIPysSzHH2WAT4bbcVFeaBzTsUeKEwnudBI2C8RoAPegcDshtQ9phCGg3RflbJTc0S5ExdYn03fCwnS1oHa6BBiFn/dDPbzzpur1urqYFyg5rtnV/NIuoUUgKKCgzxmn8IV7VO2gIuA3K3XKkKRoxfs/wCVJFHHKwn2WGIYKCgPU66Lmg3Nc4LwAswHK32THTntfMuVJLiBxutnP+EwyNqkw33lDCZ2n3Uv4iEHDdNeCYvTlYbg1jnHuUyzMx+VhEubJO5sgThw1w3O9Dsgx/hPbF7wsMi2Yme0J4LsNw9lOTBHsEXFjJNyV4mX1EH4QTbYjm/mnKdBeAdoVpzbWWLPr97Ux56QO6xenCjk2WXoA5MJ5BeGk2QdLnAekI42UOvfhPnJbdZs/wBh+U7Lkg3UYsh1yAduUXB4Ig3WR8Zcwj/2ntzMLUzxWMyeH+VgghrQRssfqyho6gd6DNJn8eaUE/EazcpuNhu5TcR7pLW2XityF3ZYdxmPKe3Mg97Hhj+djQokPxAzsntbLYsZRLQYlbSp6+YcmbLMC6KZpmOFmBbKbiNKLgECCgn2YfhYL2ljQswzQs14AlNOYJrpNzfsvFHCBkAo7JzsoBXiNzBtAss48H+sptvFjZXZhgjcpjIcDEWusXp6+26d+48AbAI9Ryj8rCEHEjaVjtk4f/JYjWsYY34WLDMPKDdTDbXKe2MAp7vSJieVhuZcZpQphtIL55KsTjynS1mE7+u6xHB3pvATPCEZSntzPZ2CsgIe/sbrD2M91BDnFpF05ptF73TvEc3sgflSnNkW3mynGP2wgMRmaGprLq/iTHCv2XKGBvOyGF3MoMA2CydWbdXV1dXoWBwEqJRwxCg903Da35UKLp2E126GE35+UWg7qAoCIFrKAi1p3CfDG7JwGI9rRxc1FRXn+AUNl+n6gcQ7krFbLHWvCwJewDZsJ7fr5doTXYpYHNyx2THZ2hy/WfSHfMIrlH+ovyFla3YJsuZZu/KxIj/qU39x4I2Cwvv/AOSY3KPzTM3De/NbkIj9h3usQdDfwsw8R0nYLAMhx/3IUZ0ucOOE36uJ7wh4gLhl3O6wpDYIKyy4OdxwmtLbZJ91NLOEQiAHYYDfdX7K/ZOBOOPdqAiwhObmssr+Xyjgk7vt2RwgTMkINhAAEwd7pwTsMOEFDCYEGgCyhZGnhQFApAXhsl1t91AQa0bAIxItU14QqK815qampQ2qKjc15qauAITWtaLCo2qK8/wCgvBeCfCfE8JocBcyv9OMxyuc2eExgY2AF/pf6vc0dk1mRoaEcIueHONhsFej8IvLCODQ4TLmSE3Ls1QsgknuoULK07hQEAEcNhM5QukOyge+jmp0ZDu0wmsIJc7egWLh5gO4TQwwW8LmmKSMn/JGVMCSnyRmjZO2TXB2yc4NElNcHNkIbJz2t3KBBEhOxGscAeVfxR2ITnBokoYjS6E9+Us9zQu/dDfap2T35G5in5cuZ8yRssH6QvKFRXk151GpQqK8mvNTxU0lSgpUoFSFIQ3/AIIrzU0m5FBTG9H5CtNSmvBNlI2mjXgnKKYjhh4mY7EIeK6+aPZNxOgGL9k12abbKf3MUeywj+y0+yY/NNk7EMSG9PdOdlZKu1hLjKaZaChtUUxBHWNwnu9P+5W8RrWflY3+P/mi790N9k+72N/Kdc5B+U9wc5wOzVgA5c3dW5VuE3ZYVy88yg4YeKWk2N1+owziFgG03Xh44dhjcB26xmZmELCGHM3ze6/U2Y13ZwQew7OCxiG4mC73IQLTsU4DFc9pPSFhR4cdrL9T/wDXxPhMLcjfhOhmM3L924UhZgsyBClSpUqfZc7K/ZX7Uuroyrq6vS6hBfnRC5UKKQoRUKAoGgVG/wDBCbGfEtfMn8DunesCeFmhhKL8RkTeV1hwBdMrxTE5ekcqf3hH9EXxxbuhTFDnMICa9xwp5hYWYsElNGeXH8LDJIf2my6sMCDPshfFcDTCLeoAc0cxrxBRbiAnK63uvpOZabf+0MzHmb5lld4jzwQm3/Tx2Usy5WcrEHRAWIMzLI58QEFuULDD22O3CCxXWyjdyFHB8yIRbiu9UAeycxrokLw22tsi2d0W9eb2hOww/dNZlEBHDbOaBKuroNAmOU2UcFpMyQfZDDYOEBSAoEqB2Xg4O/hhFrbDKFlHZOwcNxkheGwXAhWXhM7QhhMaZ5Q2qNXNTU1O2gVHNedRqdAqP4PKztY/EzH3WI+WyAbLE3a4CfZODnt2hPBJwrcog5wY4WGXHDLQ3lDDh0/7YXhOP3W7UYXOJdxwrrw4BE7prC1obKbhYsZS4ZV4TW7KEcNpMlQgFCgeWNkxvJ3pzXmpqdA1c1NToFRXk15rzU1O2gbVFea81NTSaBSpTf4PKgdlivGR45Q9I0Ybco/NeampQqK80lGpQNRXmvNTU6BXk1+6p4pKKlSpQNlKkIFSppKlcqT2UrlXV1dXRMblXTi/NlaU3NF6BQopFYpyoUUihUKNI/g80gdkdArzU6BtUeRKlSpUoFSpXNJpdXV1ddSuhKuroKPdR70hQuVChRsoCgLhZ2AxUbVGrlbJ/qYFzUomASsNtpO6Oyb9V3xQoVCuw+1BvXmp4qa8aB/B5pKJpKlSpU0uroq6uroV5UKKHIDBKgaRUV50T1RQvF2rDJLbp5PS3unOfh237Jpe1zQTMouA3oK8lBwO1OaYZnN8pzgC0UkLEMMKa0Bq9AuVIIsgR3TnZVwpACBBWyzFxhv/AGmkzlKzOM5dgg6Rm9kCHhf5fgJzp5jsoJZ7wmHjsjwiJsgHttujsi3K9pCBnEf7KA5pcSsGfDCaMjoPPKLiZgpuycJCwrsCFea8ippKlWUqU3b+CanyjXCDr35QpmE7rlMcXSaPzfamZTII6kXBoumvDxbQ17TaaOiIPKJytK6m5b7pzssdk/7ViEyGodLLqZiyuMR3upCewOCwjBLCsbfDPusdpOSO63xG+wXqxD/tT5GJh3TrQ73WI+Msd0/Eykj2W4+QmGH5EwicSe6GJc5vwsMHIVhnoTXDL/uTD0iTdPOVwIWIJavFbCD7y4fCm5ypzQGg8yn5YumOlglB2GsP1OMWRuE0QICLTJPsml2XKGIZh0Qg2LotmfhNziBAV0GwjKuror8oNuSvDamsgbleHeSZQYRzZBFpdzZBsBAKFC5UKFyoUIqBQ6Bt/BNX+krDxPtduhbEd7qd00zKwnPc4nhZ4JBQdMLMS49hoMxZMzh7htN16XAynmCExjXtlNktI52THWAAutsQjunktMxITZe/NlgBBt5KeMrw4c2NDtusv/7EcMEx/wC1YLE9PwnHMwwj9PZepuyDHyJ4RDs2YBQXDqC/Cc1xIIQDs7pCuvD6g6UWZt1dQvDdJIdugyNzKFwsRjWtsjhtNyiJQaAvDZ2UCVlWUDhEDsoCgIqB2rAIuoFABUV5rzU1NToG1RXmvNTU1OyG38E6GsD8P3lDP4jZRBDszUxsSTymsy7GyewOXZeG644TZAhXQlXTsMlwdOyLcwhNw3TLnSg2NllgqFlCIUKEQFCgUFedR1isPE5f+llxHOGbYU5rzU1OgVFRXmvNTU1OgbVGrnTKKlSiUP4JUVaBXmp0CorzU6BUV5rzU6xq5rzU1KlSpUqVKlfislXXKur0vU25QvsUanQAoULPfZQiTngJt5UU5VqO+Ex88Xoau2/hHQK81OgV51HQNEqVzSfauaaXV6TwrofKHyooFCaQ5RdQoXKshBEo1OjhMeHi1BUJxyiU0uO4R+qPinNJBodwsR0vjhMcWycvSUeKRconrhEwE09RupQ2o93HdMENRIG6a8eIUFIUhcoGnKdbFYe+k/wihrlTSVJ7VurqeqFdXRUKKQoUIUkzACkwbJpBFOamn3lGsL7x8UtnkLxADFAQa4X3fK+6kpp/cdRtnELOS+ALd05xmAgnvO2VNLuRXG2wx3KwxD8ROl2KfZF0R8p2I1pb7rEtB90EXQmkZoGyI/dX+b4Cnrj2US66aILluM3/AEt4KFsTEzKHYns1bvI7LOcjvZNMtBUdZX334XchMad0JNMSxa6Nk3FZ3VinN6w4JxhrivThe6DmAdysIyLo9JsVu6JWyN8RvtQqaT/CKFIXNTUoJxgtT3EFqFXfVZ8VOgVFN0LkidkyxIWY5soRjOB2WITsvQQj6wmHresaQnCGSFPpTLlwTDIX3tWJ6U8AQmNnPPdO+xqiF3o3PnflKGJYmLjdOfEFBwzEL/MsSM4nZDqcSmuAEcpoA+aOL+NkDZTRzQ4D2QzB7rWKIvOxWWQvB7m6PimAQF+KQVlkyovKi81czK3dDYKFBTsJpIQYAIQaoWWVlC8ONiUGrKsq8Nn9VlChQoCgINF0MNg4UKLqKcqFCPH8MV5RMLr3TX5inl0gBNcZhyxHZWrDMhYm7PlYuw+aN2LyVhElt1jfaUMKb5rrCJ6geEdAqEYIUP2lNaGr75QH7rio/czJ4kt9k66IKw9ynszI4ZiJsskhNw8vKDYWSYuskrwhKyGSQ6E3D5JkqFF1ATcMXykrI1jTaUMFv/8AiyDNKLRmBUDsrbI1OyzDNlpwgigczZTahRJxDyENlya8ojsiDIzGy5qeKmp20CoqOa815qd/4Y0YnHyi8RuoLTPdPnpKxe6f1NCbiNhYkluyiWQQg0wQm4T+UGvBtELFY4tCzY2wYsNjmzJuawoQUKEBoBkTQ8U3Ti4cLDFqcIVFQd68r1vI4FMV2VsrEflZKl7S2TYou/cDVJztHsrZvdYjrhqYs17I7LMPEJ9kwuMGaDZYvoKnKwJreSU1wcJFOrhDpxSD9wRMvDVJByjdAnNlKJMwEXAFNcTwiAd16MQDg17VNToFRUKVNJUrlSpXP8MK6ikBBjB9qOgV51HQKivKY9rWwg9p5R3jlN3P/tMMB/sUXOkOIhSKPJ8QN9k9xaBG5RzeESd0HHJm77Joc38q6uXOdHCwmfdXlOZiNeXMi/CD8TnDWI3OIWKzNhwN1iD9se0LGs5j+yYczs3/AEsT1Mcn2fmiyDwdlhAtbfvQsl3smZ2Wi1XDM0hFj8re4WXEO5TWuZNrUCy3BWTrzLK/PmBWRwcDKc0leG4Gd0CaEZ8UdmqFFYRUKKQoChQoUIKAoQ1c15/hjyhXmpqdA0yuVhloxMWe6aM2cxY7JrX5szkB1Eosd+57wiMR+4gJzA/cULbgrLO6jhFnSBKDPekJrI5UKFyoULlRQ1NTtUoVFRUV5qBevIqamp2Qodk3araivNef4fOooUlSpU1koq6urq6j3oFChc6Ib2FDU6BUVHNea81NTU6BUbVFRzXmvNedRU6JRKG1QVmClBSpUqVKHq/h8+bzU6BUV51HWKivevOjMO6lSpUolSpRUqTS6uroSrqboK6vphcrmkLlQoUKFCMKBQqFChAUhAWqKio3/h86xXmpqdAqK86JXiDiSpWIYYhMbVujMJploKF+V+aRSLpl5+VCDml0KKHdOYHJhIdkd+EampLjOVAmEwy0UFRT7mppG01GlvqcuVmbKeYCeYXCCO4o8mwHK8Nq2CDnm4FkdkWOF2lMdmbKKFRUVFRz/D5qdArypU0nRdXQpFIULlMdmFX2agICKc3NFfENyB0hZ2296YH01hfd807pry42FkXwYUrB9E9ysT7W90GgELEdlamBw9RT2hyw3S1P+qxGjjEJzhIHerPTCCbmktCzkj3QcQcp7Ikwj0wO5WzSmAAJzYIhYQFiSm3JKcYGyY6ZU9ceydhyZWGZml2uNk8rIO6c27ZcsRoEJ93gSgA3lNE3NH8EcLOCjcEJpIEEUJsmDK2kqVKnyW/wyrrP2WaaQoqbCU0h0Gp0CorIG5pmb3XKbbFcO96FPEtTTIR2Rc+0GhFkBAyudCgECOEwyED4ecH5CbIw57lM+oMpn+xWLtHcrMNmXQz9Qi55TGkMLY4WH6Gp4mCNwg8Epwa4INA5TvYpoDRCEC6NHDMIhEO8QSr9qObyhKDIcSjhngoYfunNJ5WTuUNkGQoWQFQoQCyiZRbKa0CgLSoBXht7KAouixp3CDGhcqKGpqalCo2qKt1k38w0h7drrNmCaLb1Cx+Ex2Xod+FhchRme6eE3pfk/wCkU52USpfEl34TmlzOxTHfad6YhIC+0oF3hTyg4hwEzKcAcYT2WJZhT2t8GEx3S1P9TXUKlQKAAcK6vQslAQsodussiOEGgCygHdBjRsoXNbTU7ipo6Y3WU+o0cQ0SjtXhDajnZQml8XqFIpmMwEJReAaAkGCni08oFNdI2pzXmpqamp2QodAq3bW5snzDTPG4QObEkCyn94e4ryv1H0yoD2DN2TMLI71WT5DszUMzsQOLYo8EtgKf/wBRlHPHCYwgybq6IkQsmIbTZZbQhhtCLGndeE1eC1eG3NU1KLg0XpmEwgs/VlimYAgd65nF5a1AOneU13U4E8qeUDIlEgcoODtqMcXcLEN2fKDgdqGjnQsM9BHZS8XKf1YZ+E6HYM+y8ToZ7prwUcTe1gs46R3WaXEJ/qYhsrOJJ2CY6WlMsSAmjPRtnumlmvdPKCxPt+URmtwrIEU5UhSuVKlEqVKKlSpUqUTZSpRpdXpeg21vPUfMNbqKRSArI1OgVFeVImFiOMtTnWlNzcrOLzwi4ZZlNMhSirPfHATCW52i/ZNL/F9O4QW2I73o137j29qs9b/mgw5e/MPhHaCg8jMe+yLQMk/lYjs1mqQQg4gRlWICWoFtvZN3Jp1Z54pkdL//AEiMR1rQoKdg+6xbHCTWvL8xsmsJdiDNaV4XIdCazKiyUGd3FeCO5hBkIBeEJtIUKAeFAUBABZW9qFslQKco7U51GpqampqdkNbvUfnzChq5qU50OZ2NCpX+Q/CxHQPdMd0X4WG/MEXOLoCCmjBDxO66c5zI9ScJag8CxW+N7Qn+r2lZiXS0WCaOSpQw7lZOoEItPiB3tW6i6xAbfNCwEoMAUKBOygdlAUVKgUNTtUpzM2Q9jTKAXHuhUVFRUV5rzXmvNTU1NTU1KGsh0m3mFCorzUr9Rs35XSHNyOWI6Mw77Ikzhq/iAxwsQuDmnKmNMOnlNL2CMiYHSSVym4UPc7Nuo90GAFZQoGg6BUVHNea86jU1O1ToG1RUVGiaSpUrlSpXKlTrKuroq9b0NTrOy8R3fzChrhRUNaNgihUV51Gp0CorzXmvOiVNJoaXpdXXFPzSE5warRKAUKKQKDVzXmvNedXapqamp1vPQ7484eSdA1c6jSQi4IFTQUurq6uuafmkKPKNDJKiBp/yD4RQUBM6XuZ+QhUVGrmo3Nea815rzU1PHm4303ecNRqaSswMoFTW6ur1KhRVxDQgyRLk0Q0VGhxgSpteuJBLB/uRxBmipIBF1NMT0prnCOyJcZI4Tn9AjcoPOfL7KeqE98EDupU3hOcdkMwEkrhNfmzIHhH6jV6/hYbpFP8AP8NQqFNZrNJU1mt1el1dcq9OVesKKQo0c68c/tleM3t5o1FC+KfYaGfUxFti/IQqHtLiKPdEAblZHSOpfNHuAy+5UwEx+abI0N8UUCGZznGdiiQBKY8FHM58AxATHTvuED1kH8LPZ3snkOY08JrYcSsPqkrEHp+Vl6yJQsKCM5zLEOYQFITtk2+HCaIYiHjLZCWuzEcIyYICxM5vCcHGITWvzSU5NktKyP2zWUFkpjTuU5kkLwveyDGohBoahUVGoaua815rzXmvNea86/1HoHysje3mjUVhuh+IPdZkHyYIih6MSeCm9WNI4CY0PfjTwbIknJPdC2LDdoQDg42umiAn/UZTGPTHdE5XMybcp7QYupL2PHITHYYaADV9iHBDEZ3QKnI4zyn5sSMrbBAPL5iITWkPce6DHB7jwU9mbY3TGENglZbQsjts1llWUFOw2lDCaFCLR2UDSa4p2bU1KFRUVFRUVFRXmvNea815rzq51/qPt84V5qUWuDszfyus8BAXk7oKyGUbBME4mMJ5WO2GgjhMbH5XKunMzBZX/wB14TeV4bYhFjYQa0bBZR2UIUyjsgNXNefMNHMBQY1ugVFQprKlDTel63ret6c1F1ChcqKc15rzXnX+pN2rOPPmt6xQVa0jFxDwUQCINOamp0Co1c151Ghe0c0lTW6vS9YTh0lN9IUUCd6moIVFRUImFNk1Ou4BDZCop9wU3UzQ2dNea8151DfX+o+oPheGz+OK815qanTKlA6L05pPvQGVFIoU88DlBoCKa7NQkRXhfe0VFH+kpnoHwmunigTvU2jXS2U108IlOdaBuah7jLuAg87xZEwmOmUSeozZAwwfCabJ2bxBHZCULk+yuXQEeowmkZiArSZQ3lA790wQKbnRKlTdSppOka8b6vnc1OsKVK5UqT2rdGkKFijoqKOmyDT/AGU3jTynWaU0ABcp9oKBMm2gp9nsP4pi+n5XoLgOywwQ26dtk908kW7pwIw02zUfUwrNAcsVxDPlNnKJodigP24TWljt64np22TrsMDhXGEESXRAsE/PFgg10NMXCurpjIw8qymGhOzcJjCJPJXhiZRbKAWW4KhNbGb5WWCUWAprQsjVCAHkioqKjXietZh5vNSUDaoUUFGHM2dGIYC4TTIRIUir/QU2coRMIPM9Qim6aeohR17p9so7lWCLukFdQRcZ+F6moG11Kgk3RdEaCjDhBQ8Tb/2ntzNhDDAbEJrYRHsrq6yChw2kynNBCa2yigqKjaoqNQqKioqKioqKio1v3KyDzTvQkBYnpKwz0ijjAQd0ym4kmCNDX5bQmvDlKBkLE9CPVATbOcmg7pg5oxxc2SFwg1wtmsuFdxHtTKgI2T5sUWyWnsoWWwpkvusP0rIFChAS6UVFDU6xUVG1RUVFRUVFRUKaBT5AqKio21u384pl3vThOIjssI9KcYR+knehqI62nRhwMTElEjxhCe1xPSsvRlQByQUWO4MJrCOVkeBANk1sBQoQqPIIR8T2QECNJqamp0CoU+TdXQlXrCikUChQgooKioqKioqKFDbW6n6fG8Vs88+YUyQ96dmDpAlCeUGwZUTSFCisLK0bCp0CoqPJNTUqdF630QoU9UUFRUbLOQYdQVFRUVFRUVFRUVGoUKG2s0/R/Vj28w+VzqOgVClTSdF6woUaXmE4w0lDZHQTAqMzttqOJnKE2eUHAOcvEamukUBkIJ3pKwwMqCe3M1YTpZ8IVFRqFRolShS6vUaoUaDrO1f0eC4S93O3mHQNXOu6vSFaYUIaNsX5FOaYk5SQgZAKkFF4DoRqVn9rLP2Cfdicege6NgpOyddwavSFsJJT/todlhHoo6zp9k1wTR+4Vi7hOdLYYsxdYD5oKAPbbhNzUwh6j71hCkKKioqNqhYht+aCoXod7GgodRqdbtvPPkQo0OsEED1EI1JAQTfrPoK8rFkOYUXPZc3CJOeB2WdEzITD+0PhYItKa4DOeZRdLB3TDa9Dsg12xRcGjZN9Cax2b2CcCUGwshmcyy2hZAAiyQFl96eGzsjDQgWkWQoUEX3gboTF0E12agTt4UQEK5gN9JdFlmESptKJhspjpCNC4gjsnbIuDWqeiU7Zn/IJ5hpTbFon5RATJuEFiQWlD0DUaF8HZTSUdb9vPKFSYCD3FbVkBZgg4Gjtlhct7Jm7j7pwzySbBNd+1PssNtp5Kdd5nhYZlq2x/luiaYgmLbFHPiWiAix2aQeF4doQZCygLKFkb2WRsyo1bKQjpcXZoarxdA0f0OBHK4QMiaBYX3d5peLLCJjblHNwmuVyyVNgoyuberbyVZ3wmbUlf5fwmi7rWQnJCdJAUHNITs+aQmh15UTTIAhhDui2URZeG3hQrBCFkboNTT/J+EbIPlNsXrMeQm4mY7an7eeUND22QMslYZloNHznQaEbGGqaOYTcJogQjhyotCGGAvDEygwTKyiZ081m6xDDTCBkCg+o4e2l1gmuBRcAYp6n+wWUdkXjZcIO6SVhzEk70BjEdKlMGXhEqHOPVtQOkkdqlrs2Zquggxwnqsi090xiyOjLwiwR8JrBXI2o1tdJd7JxACkAIvAI99Bq5gzNUw8MjhT1QpmU3M588ChTyREIE5oQJNHM/wC1igkCEGukOWxPZGS6Bsm5m2jU/wDgCpEotxDaQmtgQoikBRoFHmAg0/2WIcpaUMRrrBSJjQ93HsvEADU50EIIkDehwmlNaQyOU2cw3UgY1/6pzoFk7MBOZDGEGVgu6TPderDcmODRJ3TAd4uaDpcZ5Wbssj4PCAJbum4YC8MBAItHZQNF8tlhtyigqKhwzZatLg+DRnresMm/zR5IhNmkO/shspd2oE0QntzNIXWRBCgRCNTVwBVpmE5uZABohBkbVIlNbG2qFF9b64eMzE2PmivOoomAsx7UmmLtPZNcIlYoLsMrEsMM9ig71/2JTXOjLynu6x8LMXNQ6hEIDI6XNKBLn5oV05uZRSFCytO4RYCIRw3Hd1llFrJ2GCg0NEBZR2o5wCJAEmjiAE14NQUdkyct0N1BGITwVjfTciS3wb0xCQwkJjbAzTp/shshFABMokZ7oEZ7bVAIe48FNEE0IkIB3ekUy+aamp1c151u3RpJDgWrDdnYHeYNRqVi+hDGYe6n2QEbNV6DDEqEWB26yNmYUBQFzUHNejnRFCXZX3TbgI1NHuiE4wEHIgxZYwsDysT6Z+Fh/Tb8LF4+UC1Pi0koRCG+1WgjEce9MaThmAvBBY3uFdESITWPH32UKEFFAoHagqKjyzU1NT5MqVKGtx0fpB+w3+RIuhUVL4McoGeF4jVKBpGVtlm6ZAv3QuKO+4JnpHwsX0JogIuR2Q2piAlqbP8AVXT25mkJoOW6DYEKEGN7KAoQqKioqKioqKio0SpUqVNJpdXV1dXV6QoUKFChQo8p+5r+nwX4hkjpTQAAPM58lzw3dFwDZTSTKAcMX5Cad0XgBA2lZ3esbTX0YhPBQdKl07Cgr+K5RMqEWghNYAoCiyHkio1CoqKSpUqaXV1dXV1FIUKFCj+HPnPBzFAUA83nycf7P+SxBLbJrxFgU5pJaeyh0y1HDJYRKy9MLw+jLKAMKFAUDSanyh5EoFSpV1dXV1dQoUKFCj/wR8ka+URfz+dcVFRq51Gp0yFKlSrq6vSFChQo/wDIlBQo8w6P/8QAKxAAAwACAgICAgIDAQADAQEAAAERITEQQVFhIHEwgZGhQLHB8NHh8VBg/9oACAEBAAE/Iedv/wDQ2CyzT/DpSlQ2hiovKg3ehMEJ8S/xl/g0vwpSoqKioqKiCCCCCSSSSSSCOP0PofQ+h9T6l+C/Bfg9R6OC+JTflZOCGcGeR7D2FeS/JYkNH3L8lef8B7bQKPmzAjjJPH689FeC/BRXg9B6CiiihCsz8QggnkRnsPYTyPcV5K8n2L8n3Pty/f4CCCCCCCIggiIiCCCIwYMGDHGDBgqKhNFRBUQRwQRzUEkkkk8Z+P8A1PqfU+pXjjRRRRRWV8HoGxReDPCj2/BEREREYMGDBgwYMFIKiCSCCCCCCCCCSfxdf6n1PqX4L8FeCvB6CuC8C8p/A0YZ5mBBGUR+SvJfkkE3nlSPuSSEIIEnNNCCCBJEECISEEQhERcFyifhHy+E4fKYNPlSt6IGwk/PCjA+wvfglwkaQQkgikEDSEkQiIqREGkJE4fLFy98sXL38Fy/guX8F8y38C5XL/wh7f4IPfL0a/LQ057+Bc986C18j0LXPfwXL38Fy9/M/guX8z+Z/BfMuWLlfjK+YvivzKN550+bQ057+Bc98vRpy+TFy9/BcvfEHQi8P5n8FyylGxMpUNoqKioTRBAwhBAkI4P4Ih9T6FK/BX4KzPDI78AryRkZGR+RIj8kGiEZBLkQnBoSzwg1wg8Pn1E8FR7jITwYhLghkciCRmAoaVG4x+pQrE2UJxg+IVwxwUIHRQrF5ChshuMG6QqbFoRH5IxpkIQSJ7EEcI4JEIIiIiIG7NkkPcLIiEKEREKZMEERELhcsXK38C525fwW+X8Fy+F8FLnl6Nfk9CJG+EzEhMEHoUk23Ehnlhhs5vBuK8TKUQqMLLFgSiwm9kQxtybZmKiBiDFQqOkNRkBhI/gQTu1R/ZET3j+sgzNKqN0qmHw5xokaomMRcnQ0RuRCjJ+miMhD5POCwN1QV4xDUmb/AAPyhotuDzIYdaExJtUzrQ3EQtsTG4pSj5YuduGMb5J5fMwjkITVfCnQUTNDI+G0di4bx870aG4vOtAlFxoanTDLpIoY8mDmyoy1xmj2Jn/YM4x0lfQhwP8AYs76G0aY3IS7B5nRcDt0Ssmcj0IcdDlTKeEhWk1czxszP/QZ9waCEEroRXmb0FcHQ5O2P7CMiiQu+CGZ2fQeQV46j3VL0NewX4QzTJKuwhD+MijlY2vRFX28iCOzih+dXjLOqas/kyP7SdI90KmHKNo/YTGxLI8E9jyJK5Lf2BYOTlifAKilqD/8SDKZnJQkeRDs8DlSbanhH9I88ejwirO5luv9EMtp44NBvHD5ZSoYTKQNkjgxZDFGzMJUQRFRgJCLMyYi1ZWUj6i4KxnCsfzXo0Mw1jt1DTi5RIPfZOoSq89kIQKYPLYubjRRswDzZmKwzQxCAwxNaDC/sGSEsp69rXQ/2/gejH9rKM1KtSexUbCxV7MCeBDyM2Y2E8MO1FPQ1U2+7wtEx/oacOOG6IyjXBNDaE0PPIZFRHxCFXj6hqx/9zpAueVN+6oqJrGU/wBjbLdxIfKI1ofLi/oK79wT6aNdC9BP4FyjAOEhEunY+3fo38X7NxsSlVcrI8LwtbmBobAjb9sjExkS4PoSaG7N7wkRN0K8tPfkZoT9MUCSNUbcY+OXZODRORIgiEEhIRCKsgiEEiECLJDo0KcRCDKPLJw9fOxxzH5LHRjbn7kQWDfRuqsCM2mRUl7Pomus8sqOyZBhCwUZsdP2VD9x4DtNPRl79ei3rApKOe+GRhxgix3xcEMacWYIXCKWUaqJupUSFgNzrY/MJaSRMkIGhIbwy0ZEJZIiLlCCWRpsNVGn/pwSXK380Z5XwLlb4fxL8w2+Bc9uHo6F8E4OHy9fLR82kxgkl864ovgXyYuVv4Fz3yxc98sXK3xRi5W/gXK38y38yLw/gvm2+bZ/MuWmJY+R750+d6+F8v4GJlQxb+Bc98sXK3yxc986C1z3yxa57Lwxa575YuVy0Fyt/BcFKhNUqKN8aiogggfwBPjfQ3oTZRRWJihtmeRXhGNMjKIxJkYmGuEGjX5P4GylKJ5IKuCWQQJKSUbQmiopckEDYsCePuATtcWxci5PpweGhYcmxXg+hQhQmK6NrHYmxsJoWUV0zwYyZM+TNI/JH5Gn5EhoeOyZITgkpwgoQRDRFxgTA2IjA3GOE8jKMJlvF2Ou7b5rRWU7Fzx0+KlGE+Fx+B3w17GuJwlkRG1LYuz79CRILRi/rghaay0ZBjL7EEROOyIiGhLHDEk2KKnDFrnvlMC57+BcUuT/AHeNBaPr4Z5vAny0ItNDfBPJeD9DAThb9hlyXFFqTQxcvXYYzLJDoa5CemXDaSbLvyGPOFqEJrsJ44fq8x6TofcLyY8CVr0NbfsI/wDgKllQrfU/k9JBPXuJOnviFiNiKeaTeFSYzoJ/FoPFDMbYmNfkxbLJqt4SXZsz+HsWdP0OsvYI2nhNonWn/gh2Lf7catPiDWBLinPSUJ3lqLJETJ4TwPK9CE2Pas4QnRpLcCa0I0NjhmftwKlSrlQ0BaG+H2NuEN8vQtcbBSXyxNpuGNVyvIsK3pkX5H1bBe7diGTGzSGY17ItWznkcx4lsV7MqlF2+I4m/BZnlaib2JDc6Tb8GCVgZk2m4Q1mEWX4GpmECOqMkpCd1TDa0+x6Q21n6L6pZRhjHRRcpb/EcQQeRltU1BdFuBH94OnPFmT85Mdl+2Pof5NeSZWdfYhLfTGYnHyllifo2YNaaieEbr/QoT68XpIlK6SiM2po1eRCMOFRLrMQLRUMkylUyXYz5ZF1WFn0htFRHBMpgLhC4Fwa/OC3eR+xOjYN5m569j0M23YkvkkLGdpcMJ274XDXZbxNGqbGKpL0f7mKSXkGrdWfwQrF4JUK3Om8/SNHi0+0Lv2yQa/85XpPI9BIWqbVIfkNjE/Jw7LLsJPodiShI0Mq99iZ+rRa4wPlLwOjtdpCpTM760/Y1TAWpaQSu/TwuVtX+xWJrQyU6YhCQun0VCd0YRlwMcavBE0Zi2IbX4SRBrayv0Nl/wCQQYRQOIRmvgkQNE7yyGnQWYm15Uh5BzcHljQpdxb5MzlNdoVM5eCzSG/QjOmEih1shbug0CURH3RM23W2+GISoSNLDAY3uE0Q23poO9DsPY2WJT7JhkePx/chQsa54EXXCCAkiIx8D5eh8fO5NeTQmF4+30exDNzyQ/KIi8EJGl9jMqyn0uCYZP3eh0JxMYq24xe65Kh21L0h5HpqvCmPqCZ6kPoZHcin/kYmLSGxGV2b4aPcUKi4LjD15qDm9IxNFV/sTYWhZbBEpS7Qtinwa6lswrbvUEOwhZGAx9bQ7VnWxvY+zN5GqIUFm37MuPbrJkSmjD2ZpBqkxex4sSoaCSTviFIXKSVEnSDusv4IgjBkSTI8HejQjEMRI0FPHK4nC8rfDU8tDafK5MnlPj+wPxhucOgn8m3EGsC4F+Exct8EL5fSOqj+DYuVD0acvfL0IfD38EyC8PfDg7Icu5kJCUiotaTxD38FzmmghE0PTEP9mmJ8URmyO9Ah6Fr5NCf5Q2si8oQtjqu+DZoF5vBjjbnuY4PJJ6FlU37ggtz5wd2xYidDhmbsRhfKHYexNjO/Zfs6Cmp6DfIUnVwvHT4mwV0fQvke+WsGn4TaSpuVQW5VDFJiTDG8jREA+xI1FfgIxe7F1oUvtF3CT0hwmlpllkny98vGfhCZ+sEx7KT8CayeJkyND+hma8oJRm9v0XJerNf7Gp5PBBsVo2Myk8Cr+2NlYcmsrPHkbc7iXZkLtbMtMhHaG+Gpf0hCSS4QLeS/ZizSe0fu+DuKZMf0GHgpQf8AAq7EmfQgbMJZYzoFsZ02QY+7XGOFEFiFppP9mVU6PbGvwzP/AE2xDfZ/0Nti9l3kEpTLlbJgyEuXvsfwRZ8BrQ29N3lG54Qy2tyn6IaPyqXafQYkRgZXcSfaMKNxiHjPEKei2z0+jMOQdHGr9mBN9+CfCLlsfBZQwzI6eRXgrgorhZQwuF+T2bC0Me8/owQ9iWWohk9dYvpGaFbmdB3gXImLXBTQDVHtOMoWO4KS9AVEZXATqEm0mHLrJFikJD03qaEJp98PjAlZeUOmp7pGNeHRcbxSAp0MSuyve4GnoF19hH6yA030SfhFMSGzHDM6BoWzbCSiFPqvAwT50wUlt9ibKdA+ssFQhVslFRUdwNl5FMY6zyZa6FYZZbIe0RIEuhEtox9DMGfvoxV2+yj5waRQp9jwmXhR5HkdhlNlnyNu5bbGzxi6MKlKjYmKCdklb/k1SO2k0xQI8k8hy7K8n2IvsZCGvZKUatRkvBInyaCFKHLsIcWpJqxvsovoQK2ku6QNLBFOIIQg1r8EvkezHD0TPnsRj8f0/Ys08ILd2VFtWwk6kO5JNkJPTbFzSlza0TtWt5bGoZLyEJYHwKhK1wfBOCCiu0xpZd19CpoJipEQSIXWxCRI0uJj96RBBJEEQ0NAmQREbojwQaRCcp4cPfEHo05izFxoLAvIpRvAuVvnQpeDL4lw2+ehS8d+duXo1G4xU+GBmxvA3M5PQmPnsLlcXUF2tuEj1GuVxfgZ25fwQsOD0KN0h8ocdhcv4LllLwRfkYvD3y9GnxU0YtPk0FovHb4owuWzxeUfEYpSjb4Ub1y9GhkLBshxDojnswYHo0+fURSifOSipSjGblhPlcsXFFlybOilE+KNxRjcsUpRMvGyL8j2uX8ijeBa+ClGUE1COFyVECCCOCy5mKGxWIUVj5DCE8z7DpGR+Rp+fgTRnzLAhB7IiIcgqG/nTRUVCapBAggkglbJIGoucl536C56Z9eD+CJulF+Bv4L8FeC/B9D0FeBtj2HvZCeV2VlZRWVlZfArELwP4LU2JeZGR3ZXkoeAnJMkEDQiPQRC2RE4dcQW+Xy/g6fM98s15enLNClGMFHo1/BSUIiBJUawIvHBQaGDNCHEtnoiHILRggt8tYFrlb5ehcVFv5lv4Ov0Rb4WNsUiMLFb0iobUFDHcvybL4afI9GnyaC1yvmLvk+LwuW9cJlG52XOhoXPD0G+DeDQeFi8tDT56C1z3wsy8o0FoqGqhMBrKsDniT6GwMkqxhVBS86C0YM+4hKn8C1kJdNXkSSYMPUOxYAfT5GKsTHQgzRFFvLT+DP2VCdLY2S1Bl+kqWCMNZFw9JoY062CapX8j2vmfJ6NPk0FrnspTQvK2xfA+KzzsuKNOFRA2qiogbRiijAMGoi4NB1jl0NsX4PqYBsfgac98zvoajbLxeNtHuvcyLEehZ9gzTyLO+sFS88WT06GKcsU9B58hW6RM84ux8sSVs/aEPKiKl57omkbRFyeSaRoevfCEYHDWuJoqKjCe1G4JoZb1p5EIswSVPI8sXXK5bK4qKJlIGlRJJoYOa5LwwFcK/BWV0rMlQzDPCMQQUV5K8n24J8AkgSEERgYMcEsERBmIiHoTBCEyQguBPnoMzJk7MmGLTokX9j7dFSxS8DnwNoGFGAG1koMKGrlOookpehK2DJGRiOEZkyRkZKj3UPVGbJ9iT8iXU9qOlGJV4TGHYjbOuKh9h4CEIJZJwaJyoQgaEEECIhENKoiIh6EwT4tBa5W/mbfPTl/Bsi8PRry9/Brwh89Ra+DvjUWvnoac98wukIvD2Xh6FyxSlNOXvnr4O+WITm7Dy5B2bxxRsTUKUuedBcrb56fM9rl6NPk0F+IuxcOpSlx8L2iCjeDQvD+BoN0xiieHUWhZi4Jidkcaj+Whpz3xRsRSjeSl4MUo9rhDMBJA3nij0Njk25GGKi+YLGUoxa4p2XhsC5W/wAQ9rhD0afJoLXK38lQoYKhtYKiogQQSaBeh9Bv4GeCivBVL4HbMRYwRtiSGeEkHYQQjbFlbEnnJXbI9iCx89OFRUPZS+yia4QN8KiiZBAikCNQmVHsKqRyIQSNbyDWCIRweXM6ZCeCCo3J4MLlQfXi/Q+h9SvAm/BX4KG3eGTJUMmSOkZH5NBJw+x9jvkUhEQJIgiEWCCIhpxgYnD0acWbbEJ28cK1DBCE6NClE8ylGwITuL+EB8v4W+bE5GJwiIQQYIxkOiogkJhwZJY0REECRBENIiIHIeQONkDWSPBFwvL2ThPk0JuMfBRYlGu6qHjTlcrfCguy1J8s7EwNA29GyLx0al6CeFTRgqG0PgbHFMbeECq8MWDJtuB552uE9lEzoVGxCZZnQy4pkBquGwauP4XApKyhLuh6JRUTTFh7VBeQ6kXkEuBDOvDNTAQzqWMRj4vXxLwfJNCZj5/TNfG3GHvDLAuV8C4c5G6WySr2LRKrIxUuExtXKNS8vfGZGS1PXkXItwEiNidI9jZ4sQW79jd9oTL7QkkuODsHrdiahDfQHcEsUbirLNGiQioIXI2oLVNkprRQkQrCZoPulZKZNsPM8ofJabQ7TnJJ+9gzLk/I8PCmaNgIjizYO2lND7ENH8jVX0KmjYfA2ZlpvmEk/sa0x2Po2ETk9JDGpb8Fv+osvRCEepMRcddoy4lo2aeh2NbCTjB/fBSrBQXTu9Fl9JErGb7hj1KaZjzkRC83I6SG6SDOBH38n8RW143JkG0KTl4Ikzq4MOiogXB9iknhskY6lO1kPVgexsHo09p8KsxWYuLU+i3S0bVFx0kfeNOmRVL9C2yKEPo7P0LPM3kW26Esj74e1wmf7icLCzHyJ4wXloKfTGIj32SrwUHDUolv/wCZIVvQNk3uENjbsgqLqnSUOA0PKER3D91Y2tvA3CtJ1lTdA6eljWJQpJXBw5BliCwJaL6T27/IwRE29EkXMdMKSSK73BAo8Mat5FKuk4OCcyCtp9DbvVsq5TdYdkJ2KAYTLnFkzb29l1E9BGRwWhkpoqYBsmmS/Jfnhz5NgPAqOMskV6ErZodIdXsYEriqHBOMGgv4Fhl4ZCRrA2JbFt3JkrwgsqWLAS+wxyn0RkUm6bux3Q91dE4KXdsr8GX0ZnieiIZtikTrh9R1E2NzezIkjF7u4WSRQfwQw6UY3MeRF3gg6XwK4ZGsnoQNOHkJi9DfcaoWXhDzc6HgtlkTVNE0bYnXdjWz39GQzjDnJrxjYw7MmKQhpBEQQNKkREJgUhjhb5fMIKa6CREbLl6NOF8GgtE4W/KkJx252XEHrlgf4W3LFz3yxaLx3y9HXFGzwx/Bb50Fy2bQ1yXzLw983A2Pk0+C2+enLNeZ8AlUSrdDUOo++NvgWuVMiVSv1w9rl6+Y0FrnZ/HPifJ6NC/jLk9CfClFXD0ac9lKNgTxx2XIuBpCClLniwYWuKRUhRG6S1+Ao2UUozQpfg0Fytvnp8NeXy2GXL0HDyyuFt/iHvij0NgqIKIKIgsCCRPPK2j6Ffgvob0JvwVjtKzI24LDhAvx1G8cUp3xRsxFReVGJ4Hx2UpDXCjZc8KNifCjZZJNEeSoq8lQmvJ9iRpjgjgiFRA0EECBNQjgsuRj6H0K/Azmi+BfAzeR4DCF2hEW9pQnkSieRA0/JH5I/JPYkT3wmSLg0oJggiMCLiJomCEO3PThB6NeXsbS2N4F1SM0XK3/AAsQhCEIzsnvhhCeyDWSEJBcDHZBEQJIjg0qQQhoJCSBJCIgaCwIIhJEGTiGkJIiIIiIjJsipEREQZWd8pZ4Xzpq+RkdnGHy9HVFmBtLYybbXOnxfvV4enObNCBvfCYyuVzoLhCiWWPhsTU4eINpbE09D0Omi8GNpbLVp6QxPJpCJKFh9pFsJJ342fhe/guXvnr4HvijYznL2L5HsvD0afFTQXN+35BMtbsR6MY2ilIaVNI6S5CZ+7CjdeRolbgSMUJ5P6YSJl2h6h03Vr5teHm300O3glxpnus/oyDfZWfXRgc8iPeIZ68PRS3fcxoNd/A1wTVmKjEmGmPaG0titqaPovb0a/oQMtdexqYvQTspgZ9FsEJEaC0ISegXC7YepWoO/rjHX2Fx6bBFDQfi23BKVDa3TI8w7wOn9CKhSDV6Ms+xNnisqM2+Z8tvguWXlc9OKX4H8Fy3kpRsYpfgbwacpPBGNUe0Jm8BszUlBsmO79ENfRDJaNKz6MFc+DJa2QWUuoR/PDK88NVCo6YG+CusaWxCY6RSn3y6+GI8esiaXYz2tSC+LCEhxkgUGBDxXVIrlZCN9TUSk6kHlOhpyNiYqSekhvG6D3gq0J13QNG2hTyIRsEGVl5Z5yKM5QVNpb3wRinOREVpBEPsMRSGmdgXFRxnqCYp5T7EaERvoWA1yxlOjYmYcxI70RBa3BF9kG7/AAuQUomVEDd+AT5G+Ol4JzlbvwCH1PqbaPoU+gm8FeCvBXdF8CsyJxoT8C+AusyL0yJAOzRVpmWPMYHg00QpPaHj+6IbLCKEp0h5BWDVm8LtERRyCfTZFKV5GvZ9j78URI2CeiDRksUiEQSwQJBSmuiIaIQgg27JMqHhskvQ8vQrjr9iSMTQWlytuenw15evL0LSF8T4nHf8Oo9rv4Jg7COx8PQuVviD46uC3yzsyTKiFck4s2vHE2bMWNeCGAhNR9r5O+HxdNUvYuZMmxJJ3jFEa6GX5Q9Gi4R2/wAS9rnQWuELb5fwXyPR1ytvnoXnXl68vTIheLnl8v8AFZJZGrVW+IuSOx6syRuGpDxwyHBm6LIvIXRH/aM1K2yS2Cf3kuwptRkLojF1fYeQxZQn6zRBnYNMdcEtlx6GoessctGfBObU9CR+VeGl2smaMLB2hY+jGNcC4NOe+PcCFu21gqhCGqg7UhiDLYGSTbNRDT/gJDXaC2YlITTkNFwaCsyUozhWNkD7IKN5RSjVMbBShsvihkIXkfA3w3gUo2BPBHCeWUqGWCUySDFxkvA3NDQTKK7or8FYzJkya/iVWpDGHX8HZeCe8cQyki12LhFhFWV/9BUTq6JRk0G8m0xIncikfYkkUmZy0KzoZA8fQmCHeT2ZLUhYhhQbVgmTF3oFzvBDK+RCpzRcMt7ET8YDeRbltpzoXhsLg9FpYDbd0/oSjsstGD7ZF5I/8mBZz2iCzVKC7mGAUMo/DLOnQSQklwEpIjyIs66JdH0K8Da6K8D8BU0JuFFcTr4B9j7GfIr5I/JXkg+3B4bIJIElWOXGyIRYI8EEFwNE5Q1FrlbfPQvD0a/hehUyZM0yOdLyKAqZMnZkyR+RJ+T2Efkad2V5K8leSh8zhvIm8kd2V5L8jEzZ9z7jWmZqqSBtXZBJC3i86krY+RPhFRIIRdliMXUWBPVKS8NCtEL0TwHgwhJDd0GlNCShBF4IEXCCWBv1Pho6QvGjE1hFo42fxXQW0jX3wvwM4+JbY5uQ0ESa32OZEidGVaz5PMh2F4evmNRa57cU6cvRr+F6+B7XH9kajqG5e+HlTCG4J3hOV2Thi0Jh9j6d8sCeDaje8L5cLfPQcw1QgpZrGzYQlmIDaic4ehqS2DeLKwzTdsW2XZ04NE34KmmTw+W6pUlUX2JrSitDJJtiKLvh4l2xzAxRXpi+zPmNQSe19nWDVa4dJptw0jxmQenx8S2y4/7kgp9kla1oQe08owCTnkzH2xD+iO/CI65Vdilp3oVa6mv442u6NYbPoE0Tc98MXLYY59BJIUqZN/Q5DReuHpjfAvMtc9i8PaKVDY/NHwkJroVllmP8AdyKW6oTpNNkM9iH6WYxlye/fg6Ktpp0NStPZOUwOi8DEU9BHKQ0LtHZl1g1jyv0Oze+iqluZFtx52OvB4RMKjUIOj5TIZyawgxEwjpS1kFrutCCde1aEiL4WfRWTQj18CJfSNHrwRiXQmtGLPRP6hxvKJLOLO7qKLeo7Irbw6HViNRMZoIKi2hk8YCJTNEyvC6RBBe7ERdEKnthsoexztl8H65GOy7GRf8AhEOGE62IklnZjFr2ITi8idChEbSk30Km0XRlNtsPwZ6F13GBX6CDglZS9iOnMn6F2QPYiq6sw4qjo/yO0Z5cUgZCeZ7BJ2FeRJ+RqLfxBBBEIiBpT8cmVFGymSYvG5RV1smW2yxad46G5rsSkTYjZ4ZSaQojVyLhMST6jAFJMhQuGWYVCXBDmMGFPs4OHTCmWNK9bG2ujP4GmuVTwiDR9ivwSz+BieWTN38lRNCxPBeF0ejJx0OiENWUN9dIzWPYgbMXkZzoRnkEtiNw4NUeUKXZH5GnNkc2fYaCb43rkaVCeyRsii+/LGskTCr9AqU6FJfgIo0ZNEiIi4X4jvy3XLsSSSS1xozRcrbnrxS/A9OdDT8SWSIiGiIiEhtw2IYGKT5H8O3L2uXo0575YWvke0Qa4Wvk0Ep8nT4C52fOjnQ04aRGqbCYZLL3x04Q9fMZfO3h8DRcIW3L6Hy3zWi/EuT0LXK3y9fjVxR8sTxwpc8vQuVt8vovLT5NClKMXh6c7Bctl/EU0Ynhctl8topS4NClGKVmCpA2ioZQqIuxtUgfmG1GIIIE1WfU+g3Zg20YuQ9AzmivhngyXBa/KYtc9lKMT5WXFNBF42fLaJKUXFG1RCj0IpS54UYpSo0KiryMKSOFXkq8iIJCOCaIIG1VyYBJ7PqfQbeCvIoNurBX4K/A34GuEd2Ya4q55Yu/T2Z8k8jTYmyPyfY72P3FHZ7WxKQQhFBqCyURkQi8Gb2IODXnZiVonCY9rjCZgXUwZr8mgtf4IDNH2K2ZEPsTyI7snkewdmyPyR+SPyLPZ+zN2Pgl7PsJyNMKSQNISEREJKSNJsuinSIIEUIj6uyxj/YRH0FqiiUJx2Jw9OZH2LXO3LZcvQtEO/HFq45Su/MXNdcMXKjacQ0yrPCRqAvjbFOkbLliL6IVDpjETPcWpFQ7JYMvswpSttTgVXOzahfeuVtz0F+J82PoLh74ySq+DIx7gC0d8tELQ6lKLY7DPD4Gi4uGIj4eOFJ99EDU48hKk6YopsSPTEJWg6tXH0yZGlB/jT+xKnwhC21vD4EYVt4ZeJ5deBerlvSElX7Rs+KokY8BtLbFyangyox2RKshSTeWUTz4RnJI9DzsJtlRaDBWez3kuHo0F/WF/mGZb81gWkIsPtdIy/8ABjwHmhJoSHtTc8lwh/A9mYQeDMC8dPLLBLQ3uzK6vIh122Yj5JbyIeGNqNDu14QuG7bPU9iPaZ5uz/sir7H83mIx8F1wqE8sqKjr+NMo9YYkSjmJ66GW7owV+i7DhF2Gu2ZvfaMF+ULAQO46HtcdwkvQxrdrBjGkPJC0dwSlW3J4SmkfQ1YaENPwzHTFQWLYqpWSZaFr6OD6vJ6M2RBo9qUxHSQj+9wQ08ekz8Gf/wDrE02o+K8WFt6hIrSwFHfoIPaH+zh+DwYk2q2IiCw7kT7LGdvH+iLB/U8ZzFJN8m2R1bdeTcPMhAPwNi2xgbUeTQWGfTC7hnbchKUgaJiw0M5CZzR3BeQwkPdyitsuQZq4lbxjPgptjoYUBNvtRD2H0ZDhGU16HRpFDICDclZPIT7ELI0tTo7AYdv7IzGxdijipkNEkiCR145E0b288EClZEReBNfj6ES/DG8i8ElnkwAux1DAVrlsKrmxQO+hRIhIOn9A6NtvBeaJ4FJs6FI3RLVRh+4tCfsbg3qCw1ovoqKqXGjJU2hpUlOwvOeS9blEnr7Mtyt9jdWUYJBbbC4IKwhkmCL1NMd5KPoMi009oTdYEQaoyI+lwXA0yjjMNw9H24PVpl6MYxgZjXYi8sxJ15J7Gh1WCsaGiNPRKjItgZLMiLAZ1CWWIGdjKMigmGQOGhFEReCLwdvBEYqH0Qg0txCjjnDYthtiZ0EhmhcfG3DAL4Fw9ebXqWWEsLnZ87L5L5KstiCIy+hIiIwOfBJZIhOyu+zMVYxtgnjwKh0Qba7IRNRqiSTSXCNDQrgyN9QwcO+Kx8ENtBzf9BmW7JxoLXK75e+Xpi1y4sLKqG6SE2bIXmw6Sg2PRTgvOGHcCz2I8ARhlvJCj0zREG4bMpt67QhK9Dj3pMbTotKhO3UoKa2iM00QViSi25fRX5Kx6NfjZqVrijF+NKzyxa57c7fjai575YuVv8Q3hzoacr8JeQx050FrlbfL2uXo0XKqjWW6H/TwO7C6oTR+24n+6IOs4GUrgyTY62Pk9tOFtx1vBO8LswdMH2NnDd2gzZdjTiVQgqjoYpuL0KO0aZipdqhKL9H7gyJx+oSuInmO3cPEhjbGgtsx5KdcmPJHkjyMoNCCq0nhiNNH0K/BXgr8F8DPQvgUMLigVMkfkayvx6CeOe+XoXK2/wAQ9ovD0NgvLHEeRMqKiBNeSBpUe4jyNryJqbIKhNVkEeRGCCRpBCD6DSZ2TQlLjLroYVmZKNCR4KQwoUtDFl7RaldNjZ99svgZrKL4D6N/oJORSGYPkFhsnkTyFt5K88CxLyNNi2LRisEL2EG6+XY033ElZBEIweojwNKaImue3PX4a/OXPb8w0FYZ4VmRUdFfJnyZ8maV5J7ExsSc2a5hRoTF7FeSexoh9yOCSDYgkawSEeD0CJ09B6BpVYEngi8DngSU0Y8ER2MER05eha5W3PTnp/AW3PTl6NFytvnZcvQhSKrsykbCfQHbiGyJw1g0crfnr98vRr8ugvgvD0/Hoa898sWue+IaC0InpxHuNmhb/KHoWudnxR7XFOjTnt82nPbnrz0auVvz05ejRc9svHTl6NETwXC256F4bw/hLbnp9lKhvA6myryR5KsyPJHkZNEEEcilq/jejXl7XL18HfL1wlO9vyAdC8N4FopTZl42XPRpz25bX3yxsF4uRSjaE/ZV5I8jJLZ7ifIlrJ7uByRBJRCYfUXqb6PqfUfoV4PQV4FZyK3keSMn2GnNiOLJXknsSy8s+x9joSQRBE0QREEXgi8CERCGvL/HZgQSNCCeCaRB9BvXD6H0FhocibUGhzC50V4PoN+ivwegr8Cb8F8D6DtWC+HInxZFafcnkP2PsfYj8iOCBH5I7s+w+zILZ9mfdkCSa4I4JPUIPQR4GvA6g9BHgi6kXgi8HXno0+Tpy9C0uILbnpy9M0crb5D0zTlb/Nr+f25c4a9tCF8j+ZoLXFUW0Zjl7XLNOVtz056NPk1+GnP/ADzUXLJny6r7+GnK25fXL0acrbnpy9M1c7Od+T1wLjt8C4Zp+ft8HQ0rzvsTUeOisdPPLK8qW3wpmb2dclvO0EMb6EEfQwiqaZEsVvo0MZUzkOW81xsaqa9GK8D5fXw0+Sovhrwvg1+GvP8Azy2Phrz/AMc6r7+GvPb4x5G1jJV5I8jyZERZPZwKwjhoPofQtWhNxYK8FfgVrwXwL4FY4QvASjZBPIjoj8kc2NaEvZ9uGAjgvyVy0Lgw0POsQfU4St9CdgfSEBJENW7N8dhtNnqMyZwhdb7IUTamj2PrGYFtqJm2nQ3A8swbsSjpCryVDaKvJBHkZTkIE8ifB9XwXofQ+4u0K/BWGjXCofQ9B9EfoP1H6H3Rg2fdE8RPISROARhV2PsxNZZ9mfdkiISQRVnoPQIsYI8EeCKaEUWD9cYrl7XL0zRc7ct+WhouVydOXo05W/5GI/JPY0TA06V+xTinfwQab5IElZB7eNLHA2YapPSSJcDNAi4MUi8EQ0oRGDHKLheNBfI9OdRD+Pr9czPhrz/zzr+/hpytuenPRpz25fXL0aLlbfO/LQ0crbnpy3g0XK2/I+XQtc986C1yt89OWafI9fN05ULXyPa51fw7c3H6LxoLnXn/AJ515ppz35fXLNOe3LtXGB6FrZUUTVZBUIqJJGkEkJ8cU8n0K/A3lFXRX4G/AVhRWbPybLnoXPfwLXK3+UaC57cUe1y2J452eSCryPayJryewbU2YNnuI88L2cDXgSNZ2JfDPUyPDIdPg+hX1KxX4KmjTR9T6o+g/Xhmn3RPIryQEDPkSxs+zPsJZeT78HoQRDWBJCS8DgtsmDA5HKYEsLhGz56CIaC0Jxs/y/ofQ+gz0dDNXRX4G3Vgr8DhUraGfgyUbcmAQfsfYXgz7H2HlsnkR+Rp+RJ+RWRv0MIkE9MS3k+x5GZRrK5GkEjSIIMTKp0MA9Q0TWD0HoHCEjXRF4IJcplc7Ba57/fyacLhBIhOXThDE8Ewl9i2+KPrhcCkRYVMW2Uo+TYLSMcduMDeAi5NBaNCN3+UuULLg6cLQ/qDL5GQ4E2JWg1zvssnxye1xMeo9cE/U4StsqS48iz9Y2RYq+Ho04eROjZDhvyKlJsicbDvh6FhLnbl2irjYJ4KiojP2Mhj1+EqIz0ITOHScb1Obw/Z9RcNBCiZsz0iZQheQ8obSDVw1kRWIuR687BaGKHkQxjtCQb9jwExAvIa38motc+TAqbouqibWIN084WU8tyo8GVho3Q9mdnYYKxMpb8h6TseOYmZT2WnCuBX/wAD+2I0cxn7+5getkG02yx4GWCroefQx6NTsdFCC397h54DIqyPJFqNSseceEEoc2GgXf0Ra7TyJ5Cplk1+B0NieR6LhLlbFEo2p4TyzIGwjoE5yNl57I8jsiqCPJ7CDZHni8BPuzHTPsHKKWe4RT+gTYhqh9zkJ9w30KG8FZ6JDzRKzD9ZwS6Bt3wiq5K8he41hk+3BMGijMhhooT4Gr0RJojxxRaCXCI7ff5NDTjB2OsbwG/xqH9lVC+10JCog46ASYpryM4J5DCpKyUjqubs32M+wrWwZCS84ZhJZ2b+J4wJxqcWTEQ2K6Q0K/GMr8hn4Io/qxK2Zr0C0bfeBhfBpTEg0QsJ9CeI/YhkUMGIeQX0H6GvIMGpXQwNIlniJ1Q/cOWmI/MXsxLLyfcSNFCXn+RLkyBER6eJcz1D1D0PQiIlNgRBoxFP2JmGQrjRffLNCcJhjjbhDBM0c7Pl6/CSwue/L050+Gj+/wAmgiaREQdnoI8CISREReBbeBGCKuXoTHPbl5OX+AXnTnvz0+GvPfnbloLXO/25fNtFwzXn/nnTl6NOVtzsudxo52fL1+Etc6v8N5/KPRr8ugudnzsjHD0a/LqL8Np+L6/DXlb8trl7Gjn+xzXwpa515/54q8jawVeT2DhsTU2R5PYQmyWIEVEeGfVjpPDFhsfYUFc4L4F8B4MH1P1KnJPIS6MnkR+SPsUPsNY3yvD8o9fD050Frlbc9C8PRrxeF40KiryVeRl5I8nsPIPYe4bFsxcEiET7I8M+w+w+rMGnwUKwz8FD6Fp4PqfVD0P0P1HgJG0TzJ5i7HIDaofYL2DhPJ9mR5Z9mJd2fZxaE4PUITB6D0EUeBF0IJCQYE/hNhoNw2Lvnpy0KeOG8mnKd4touR0rQw0flrmyTyJ5Ec2I5sryV5Ntn2PsNY2fY+z4s7W4I4osPTxNIJLwOYegSRF4I8GjBFyJfEbc9uXpy9pWyQ5PQ0UrSGNgwxVZnoRY+xxKsc+3sI9nS/4OsGW2+kK5tZhpwvgMt82wLXDcHE8vj/khofA3xG/AtvhPI0cpkLXDZh24Ynwp/Byxrytxsloe0N+CGw1fl2fL2uXo0Nsg/i+BpxVtLs23+7k/cYKsqpoe1y9C0K7ypkZci36ZLcrh6qmCDvD0z/Q57crGDhVZTY14EWfbdY2mN9FU27hejEFpYUUGlg2d6H/JJrwSXaM37sai9wiHo1GDJ0QTfZS4ovHYTGvWxezuLg29X0elFPZ1+yxp8N4Y4R++CYUZVjeBUX2V2sQSyewxMiM8SIJLfXFZ4GUPqfQYMGivBQpN4L4EDuDB0r1xNH5dnPT4aC+Y+yHTg3saQn6T+R6FoydaeTopDo+9LT/cCO97JOF/0Ka0Xs/qRl9Ud4YFbK6MyGloRc2hTiapNxptDsI6k8o3XlCN1TQVcsMo+/NHs9LQ5OBsc2v2C4GMn5FOtv8A0PsY2i8BgMISGSSSwjZIotnczE/eBrmRG3CaWvInMdn3DcZ1o2tTw8H2FeZXWReF5CaKF8BEpw00hJelzZVqJ5EfbgR+RH5G77C9mPHbMbLJ8sjyyKyRI6GlR6D1CIeonwPxC4JxjjDVcvRq52fL2vgLX+AH6H0PoX0N6EZyeSEn0NQlwiH/AKMiBPwMlGgo7TxRM4mB6LqTG64lMjVH+8qNDbMS6EWmgclNRh2o8BbONmadDZtNkemWJVal4LmcuqYBNiw7Ot3+Rvx9SjdKgnhjUk/sb2zdkmq76cIvAGlHgRTRF4P0dzHD5a/vhDbPoevhLbnbluNFxDv8M46fY0Q6FpzFcUehaUYLnXlb87LnYauVM/Jp+cvwr2iJrKEh4D0zRc7Pnpy9GnPbnr98vRryuTZcvQtc9uXpzryzXnZzt8EbHOUtqfvh/wCnPX7LCjYtFKNkUTG+b+C5xRblRV5NkVeSryMpsTSXBIyyRwo+h9B9ff8Ag9Ph350fA0XK2+enFOjTi/A+vv4a8rm2XL0zRGeNvtxfQ9OMc1XkjyOktnsPeJqj3ntKE7wfcJoTMKi9h+4y2pi6mL8j3Beg+oegvi/k+o0cPRPUgR1yE8yA12FeT7DQryfZn2EQgkSUR4IEUTwI8ChJRGDBr8vT/AUZQTwVFXkRV5KvI0qJ8lQ0FIkggND6sa+D6s+p9CC0V4KF5ADEq4i+BTfUXjD7n3M9j7EYR4yZ4Dqjb3BUthwm68IQULoJKifLEnsak4vUJdD9YPVwSaQyTiyIwFGP+CDiVIFXnNMSwQsO/P8AzwYGxmw+73eHplXbykf24qLxbibIU3Qp9tKPBj4Cong4MGid98NlVxoL5S252/MYggaRiKEHoFKyLwReBFg/ua4ejT5dPhZIu8/ThsnKMkNafCX6hbySouNR64ub5vGWz1R9H9wYFXU9inAmAv8AOH+rm7fkbSTbIRKOm1hj05/thUkvkEokjIlpJoTBa9R15xK8+Qnj2FFbgxbv0adyLJHrWTJz9ljra7eiDGtGiuVhZRSSY6IohGvepDD7A9gOrJgDLNkvA7cb/nhM4voX31zq+xDEXaPIc5nkvyNIw1542E4epOS6MHQ6FKiKIPYNp/mtHL0ac9hZWVGKxljk1Ixo80LUofsGLBYTT5vTZsLoRoNxVPQ0WDlJUeDwGn4ZFdh3Qfb8CTOrSw/JfDw+uSx9CHo9cO2kRxLWxG8mRctX2hE3qqhJSZfaGokRRqCZr1Pfk6NBqpr0aHZar6Qjx+BGmlIoVibGHoGIo7G5Y1VMkt4RETqHXZRqRwlujTK/jx53FtiyeGNiroPYeSwMIjybM9iGVoVKwWVZXofmKjz1YESZe1k+hgeBK2BYXbJDaZpjQVsiCiPoPqh4CSaD9TToeY0hMscBM7kryV5HhyT2fYQgkiCGiPHAkqyCLwPX82656Y2Pg/VhGbgphePajRP2PWjsUQ10SW6S0O25+OCg7dNrqaEvsMEhgyVKya809iKvJgeZ7ITle0ew9wzC8iHOpiK4CPqzJmVTEcfSF7Dfgvy4jMXgV8UNGkfqNSJ3FaJVYXBMZEvAmMP2JGP9IklafkyyY3NHghjnNto+wSp5Z9mP2Z01k+XxIT7PWegeTAkmj0HoFTuOyLwRE/rz1+yENGac/wCz5P8Acd8mjnvz15686CxOe3+D6meSvJ9iBGFJNgwyYGiQ1o3rQ1SNuFMr/Ikd2Y5mEDSpcU8CKwiINHpHoEVZPAx4HtcTgWue3yacXjXnbzsuXsLS+X/nhPJ1++dn0PU5ff3ynypyeeDS8o0Ytc9jTj/nn/cLjRmgojv9/D3x050Zoue3OfzOguH8huDqkLRSmz4o9rnQYpTd84NcUfITwj9lG2RwbwKUYTKU8YvCeZCPGuCW8bBPCLx356fXLYrzzsNfDH+0yUT/AK85SD9mBtUJIsnuI8iVaKmyeCT6mjDPaPoNuMM4K3R9D0H1+IsiyTyI/I05sTeT7H2E4wJn+bQXD+B6cJV+mNp4Y05W3z05ehuKLYpR1y4e4pshYLienwKj7iaPuQS0ewZSeQn2fVnbOj7DLuXWHyBQTC+Avghs9F9D9T3LRPJDRNLLWfBBrzFQJhln2ZHlind7Pu/knies9JCY7KvHAijElNcYOxF8dX7C43HS+Vbk+I3HXOnK2/Nrw+h9BM+h9BvWCvwM6x0dV3Fhrj+o2j0UfcdwfYnkSAja3wPsJkqfZn2IQnyyTEMIQpodY5gQ2yLwX3BpVEXg/RoLXOvP/HPTl6Zo5jPFHr9c6r74bDeQ2Bfjf8cNELxgTyLA9MWlzr++e/O3BGrFpc68rfl6/IZpzt/Nqacrb52XH9Bj1fhxG2mxvpeRkVOjpq3EJ9/oKlg9q58NfjZ0+GiMW3KhaVdYKrIjtJ944qCdb9dCRo7gcxLHsaLnt8uq++Xpmjnty9PrnRffLpmjnvz/AME4TX3y9C5bH7KiryXMq8keRkHs4mrRPsj2T4Zg0fQr8CeXgvgUHgwXx4YOfQWBPIj8m/5mppytuenEITba3kSHZW6MY9tjCNVC11+iWS1QdLZii/AeiuKKGtRikVM+xa+GJPJkVCbwzE5IaKSy+NTB2NZB4EUK8x8nnYWXjR1bpGpR4YFPVEh6ZoVFQyyVEHkHuPaIa5iYYVsnwz6sTlL8i/IbRyAbjR9UXxRq9GAfqfY2Z4E8hs9he4+zGtZZ92fYawJMcEIVE8D0CSvBF4IvA4eONRMuTo0535dfrhHXnQ0QxP8APaMbheFXkgZeRQ2T5IEi4/VlTemVeGKlpaNI1lQT9ihsq9UNVpgclcx9D6o+g/Uhw0MU5SXQ2foUJ5GfIjmz9kW9kNxiVaEiMo3lo/JNiuMq6Zr7Eweg9Ai6EREdMH640/fPTGwudny9edF9lmeNg2BeO/3xT/kTGf7OdRa4ZqPjZy1xN/C6Zq+BRl5vrl6Zpzr+Z6YmCCIgjwReDQRjjtxRtVF41YtH64So4r55enOguHk1+XqXh6ZouU+R6c6/DX8g9Prl8fvhM0Zo5780rjb7fAWuNmvOzMGBySoQMoj2HsGkETZ7CRGfsnjR9GV4G9YL4FfgdmhXxx7fjLzeGx8mgtcrfFNkUo9CeClE8spRvKLw2GLXFO/yD44zxpyuRyCryVeRsbKvJfIvkMvPBIkTZBPseRGfRleQ3jRWNiw8DSsF8T6o3a4/qShJOyeQ8siAkwmNk9jTfbNNsxb5EOkkeCBBHgVYwReCLwJgSwRENf3ylly+RMC40Zq/FSrijZ2Lw0FKN4YsEJrgnl8IFpkXjHuHrERZPYPzCrsjqkDyWC/A4cnBNNDfJhu0h10ixcDVhpDaouJF5wn6FNZZH5Er2z7E+WQydn6IOyKyNLRwR4GlNEU0RENeVtzgbL7M9I3lgMyqPsYWudXAkRJKLh9mWGNNPT4aF38LaW3w98tefJrz/u+X/d8JaXylty9PmtF+fVNAzzi6JwhTLSKh5HBDoZMSSOqDElGFbcyhRsqd4Mwsrb3wwGpHgJNMKG4XKEYmvY8UuqhVFccLzj7GRIPvG/0MdVbXf7ENYkUxFShMpqoZqqvg7CtsV0hmdpteCmyJdnWPjZ8uvMD/AF1wsZMPlfhG+bCGuZ17Y9K08qGXKS9tjdgsPorokXgWNfY/QnJVlGss1oTVfoqeYJkQr28bEqWzVNDELzrtD3y05emLhz/u+OmwpR0E1CoqmxSEcCSskkjLj9BtH0K8DuPAtL87xnZhaNosGIuXoe8iF1J23stDcPtCXrEr0PRSI9O+lRKEeBvBYb9LyynMkrEISHH5Hj/QyZBHE22YGBVG05/AQtZJrsSt0FNbnZ9mITIxRoZ8+DYtV1CtsaA2jJ0r3CqP/dPpmwbCdKlnomeCOZQzrQuE9kgWNCo1nAzDWb9Fz7ZJfY2eoiRPN9qOam3hiM32xPsRebfaT47TuD4jvr7E2SaeBSio9gjWSehisv22KzclMKPxctXkQm27fRFS7GTobftUVurb2dkOqV/8jLmFtOyCXhmWJHhaX1YkO/wP3ZKz2Tw/kTj1xdJDyWj9OLwI/JH5GoeRJzZPZPZszwgiEcDSqPQQIoQRD1oiOMeDt8r2udDpfK/ClKXizLXtpGExJDL6jkLfY0qx/Jn2hbemAVrTBtQ2zFOkFcJaJGshrUggmr6BkyZAVwCWT96hI+wtXwo/0P2dQxttV+WmdATwHdhuivoRjxt4VlENTpdURGf2Q9VlB2YHYcS84gSyjIEfkba1Xo/B9mTM0QFbw1tH74TUaaae1cMwSEvAvBsmzS17Y2v+IzrIfaosMJQx4NOuWWBT/dy3hjYXPYT47i2U25acQ2Gi51fFFvy9OdOXpmjnvymLxcrnVC+dL+A1nlGNPRoO57zDlHIKcIj8mVJ0mdTIh2JhwVvLd7YSXgTBTyDbtcImVNGtH0hpeBFVgSSGqsjUQiYEuGFbX9CJKJY+OnX75eha57fJ/u5bAtc6PluZ8n+7l6Zq4po/vnt8h05ewtLij45W3LeJgpmdFQ9hNRHsGnkdTZ7j3CtyNRLwfRm2hv7fno2UJlHoWuVtz04Y9GpeFtzsudDQvGzKU6c6cvXwO3y9PvimwWjHLHHZ0jyexDR5D3HuGtj28TkJYifDF6H+wryK8DKwMFvQ29AndUi+JWD9SeaGpeRnrsv4IcDFaaM+w+7FTeSfZ92dHEiRgRQUmEUH4iXQi6EQ0hFWREXFtI29ITqT8mb/AMB0OilGxzeCmvw14pYaQPoq8keRpNiJs9xAmsgjwzQfdwNUKVL6oWGjfo/UzWfcgZjJGKDJabzB9h9mPBiSiEm0yIROnoI8EzwegnghxBjwRExS0Lm0/wBGi51/ZeFzOQP9IX8E0bJ6R0KrLnjYPm/80bWC6jDGaxdhy7rl24h/yPBRg/oi8FrX5hBK7L2NhdF/Z9ldNffRq4VtoSt207bFRnnS7GrNevBE+hKe/MemWLXgumwOWFLafl/4GsrKxNl4M0zCeQ8Nl0QkaxZ+xZ7IJ7IEEjQvAR4IiBxJvwO66n49G3L38AtfAjqkhNJU6vImqExtJrA0NK5Y9rhNPTG/o4TG0noemVHoMp3K/wB8duHtapKfog0psbVSuxmcX30PaRCaS5FqtkCtZwYh+QqzcQ2R3S4g/FtC/Ygs07bZ2KyYnbhG7iMLo5VVLxMTzEQlNryHXYA+6sS98RRL4qnmkjOr+gUTDbQyj2lT2KTnAp7ZcZTpOxd/Y9vbcv0+EshmXhU8mF4ihexGSbcLi2GtD+fgDlvan0kQeRX79D46EX2KVe+IZOyT9jxxDu3RmJaPpGdLBn6CW40yoLOs1s0Jc5VBWVa5l4yMqJoI6RoNeHHUp+VqaELu0uxhFL8PA3VNX32W/bIVo3prwJhVr2jOyv8AzYjRjVaps1H4XgSGS+BPI9EQoiH/ACda6c/gU1cd9cYpV9BZrjsYxP69kO9mgfF0yE6eZoanWtzM6Hubd+jKSdHU1hwbhpe4Y8apsPvRJj7I3yaORUsAiduv+x+JxT2yaOidV2zRuv6Bn2sN/Y+ax3/4JT0SiCbcYYCeGXbGUkaL/wCzEWlByLbb2xKmkP4CDS7Xs7/fHsUovV0iibRfyMa+Q8ETos/Yl9rY2JrqDsPIqHw1bMYLN1EkHu9xHEp69l0sCPYxfRQTEn22PEU03U2yFvP/AMjpHbGP7KGYcGYtWsXijVLTpPRBgjvZdeuDwPsfYac2LRnLRqkeUMx40WTjr2NG1a22fdiShkmjq0xN3Le1GSSHqPQfvh6xPEse1LKl/JK5p6/8IvAzXnZ/4fR8CrOXFfCQjyzCHVGTW2zQzRP5EcNGOwlIp6IoAkyYJTpiEm30/s7bez9DJNsYMtI9+2aJ4cgr2fCUWhunkZeeU+2KxbTgi9SSIKTabQhUqFx+1YRp8wjDo7X6sG0q78lOHoiHOlcH6MbxorDWtMQWUbFBeoXbbXhe4QQjwT5TtTqCd1vqFdPfoFGpJghSTwJTK2AlrOY8FuvdwLWkm7tvJHJEJWsjguh6hUZFwfo8eg0K+hNRSIiNeW8jRcQ1f3ytuenFOnOvOjNXOvyT156/fLCmsMmJLh6+F35X+BTA8G3QtWyqJq/zINTFmyaP2zXseTuNoISMIqTyGxkdIk7kfkSqh3HEY6KELAkob2HBB0Bjz4GllCIzH5EmtjL0KZIvHDf9BOrhMcvRlyXa6Y8hN1MaS4wpaK1qhrC9l/8AJ/zxgD2qZqm6ZiZBkcey8whO28C7IZ3YR0Cfk1HQQtMqZrZ7Da5/+1HQBG+E5ikh6zJl627T+uG0lljBDdCNuaxI9FZNRovjQuTry+ilH50ZoudeU+CnTlsioo+BNQjyNPIymyfJAhXmtn+Fq8lOnOghX3lw/Dy/Fv5IlrnUjq+5ga2mS+DofWVrfCR0n9oVLVL1A5sZXI8oWyUm2T+GP+iLAoTCezaRH2FM/iLKRKxHmFTUMRs+Inh2e0PirDxXoTvPP3QmnoOXSzPX3l+hpZM31SHATf7Zdfvr0NMolQnDUY6NAifZqvpCSiwvTPfiEN7rPJfHsav31+hhdBa6M+94W1z9jDuKh/ZlUv6IQ8Mu2M0O/wDQZAfzJ4nWatf9BISVPYRwp9kCyeGfRleRWFCg7jBfAvijycEHgxJzZPIryJjZGI/Ist5J7Z9iD7cGlUSQIkhJ4PQOGhLBF4IhOdn4IT8G7JboRm7DPRLJipcywtZTXEjOvS8eGiTK7wMKuoxeq9DZ8JhTqK6ojL+CxtUK6+teiQ5W28IcqSxQLjqaaa9kMllMscKHS6RBr+BEkmW59i2Vp49MzOaZSJdwa+i0ke3r7LKvFS/Q2G6aa/QlhW+2xNjaLLsb0zVupfRSSU0jNeBhelpmF8quxALaWhu1rpMC1STTqNu8xBI8NNYYrUobZ3ecNFknkXTbVmDY72m6lEsX2uRCqJxN2vRdRo17HfZ+h9MYrpoSdKvpGy3/AGOkaRlGWr9Dg/Km523TQTjV8rb+TZc687BaXHRpzt8l7XOvOjFpc687v/BWwl6CbSexuP2TrUEbZYWfQf1S9JijqK3+h/WJh2TLK9DsZSA3EnhdGmz6kh+ovIB/2dRKlF1UJ42xXNmvXRNonIyuyfLEZJPURUSXgiHKuXoWudgxXf8A69cLbilUF4686MWlzrytvn/nnZc68vTNFzpygvFNKN4c6r7+EtcPXwu/K356fBSkQTXkSeRtTYyhBA2/8K3xtG1pwzD4JCSu4hcrevLP5NlzoaLinb4KQMsfZeGwYdF4/wCilFty9C8NgvGjFpc68oKU/wCClG/sXg2CPJPkaRiorJ4MBJJdn1PoNvJLhVjBXGC+HB8K5jR4bGkSTlbaGbpZmbEcWT7cEvYvYnsSy8kERMCCRpKEeCIRQjwQRTQkoicd/wDBk40daU1E+W+TqXh6Gw52fL3xgcKiPI0gkIIP9nInlgpXgbdWC+BfEfoX1P0KMOyeRPIryUKCWXk+xPlk/oSSNL9uYaSDARD0xFGCLjU74W38Da2Y9S83+Dpzsj1YhD2mHSDL9LjQ0RV540O06/8AXGz5duWnL2Fpc6/4L0LwRBNEcF6H0K8Fd0fQ+hXJI2U1hkfknsSyyR7EnsayMghX0LwDSRERE9GnLb+R9G+dLPFTsPr2IL2F2hy9mQuWsiQIv8CtVtzjsu+U0WzXjp9F7GO9xoNq8t8JlnRYdiwpvYp0hm2pgKKLRYbb0hOo/RuGIanRtJWVNHYrxsqfkzsf7CT9g6VfoSS9ajXt+BdmEsYKnmNghG3YqwSLTMs0SFh4Z6AqE4a9Z0Uo32dodAzwktey5uxDU9DNtmz+OjYUqGWCryR5GkE42QNJ/hGyIiIRQWhNO8LfL2udBaGI0qzTTHwVWGlF8C2FDFi4E67ddDolFYn2ObF1uPnhsXHReTJdcfxgUa6QnQ3aDmxy2x2nD2yE3OXBmhvoTvGHkUL0hklyZKv2P2RMxBbwvcaj9hFdpP7Y7BYdr0ZFdQ/pjmtn/Q/YBDWJuBCwam0JMbJvI5/oJU7bn0KTJbVYijtZl/sAl4240anp0n7eDwV6G6jjUOj1MjZWk0xzCOmy8v2VAyfSFoo8mOB1JeKF0YszRL92n6L43MmcmXAjGYFsdlzdrfZo4TyLhGEpTb2POzAoltLLQ7YJgfTAIgtGzkSyIIGlBBAiwegi8CKEUIhyfnpz05vG44Pv6D8mK+wleHRd5LZ5VWNMMiqM1GjGGlvYnVgejoz5TZVWmDL6k8MozFVb7HctKE3nTQvrNQmV9BEZlMXbF0yv/QnWv/0mPIqcYleQoJvsJoSukOna7JiIVqwK2iqpIehtlHhfQRkvEao3iwvwyNJLCEBE0LuTHpjwHW6QpEow6ieRm0+0NEu9sGU6BE9dFxVqGaq2hLNGoUG515DkUIFrQJyJs9R6BMHbHDWCAkKbXG5Fz25XPpzsudeKaMWuHr4Tb5W3PXnZc6fC0f4lpNNEI3g0fg1XKw2PnbtDH3RnJvqJVtTsiSRLR9wdFVZaG/AaMLhFxMVGYlqSxg12gla03nZ9zIm+hCIIIGJJo9BF4+BYacva56cvQtcM056q1dhOqpdHC25djnpzoLh6ZoudOe3K2KX4Nlz15bAtcdGrnvytv4avJUN5RUR5GRBAiGi/wdRCIiELjviD+AuGsGvOz5enyPRp8nfl6c68vQudeV3z35ehTHkZYz2VeSryMmhIQRkSQj2fQWGisV+BN+D0H0M1yO3hkdqG2cDJbVFYM+SPyJgS9k9k3lmBOn24JMUzzG/HCTmxWd7yQRClECSGa1Qh2nCGPBGCeuRa/wAHUWue3LWHOguGacrbl7XOguGNhFXkq8iayQSVCn2DesFfgWSLQ25ovgfoOwTX6H2Gra67QjFeSPyxMvJ9hA2rhwgRwigcJuDrCMGCI0PHD0ypW+ik8zRpz2LozSEunRrJ6GCuPA2k7RI1MQwPZNRJwtsM66OzhRk2ajpCaMpLCEupPKGw4ckk2EKSEt0LOPKJyyziZNyiWTEPRUll8Fkdpw3lCZTX/C0NOKLbKiobyiCBvAvTgV+BN+Cij9uU+xPIR4yfY+w1gSEECqERR0MGV2XQlNcPTPOy4WF+UaMRUbN3ZSNzJWs2Zom/JVLcGkdFt8NqKERYVUxtduH9nR01sQo0qZEajP2PuTxw9cCQC1UIsRkXyFA+0Kdb1B2Fsk9MS34/gl90LLIF/dGc9fAqHCpsb9BY+oiRU5BpJQLlYkWBIb3oO7ho2Btf0DT8UaSLNxpcO8mVVD6Xfw+Bi+kfDCt+2f5MJ9g+rK0debeh5miCWGT6XIqIqIKh1P8AC0ZoThEIvBDoTjQ0HrLt5PA7cZ25xZ5Zc9OXpmi51MEWa/kTPkwrr6LSL2U7WQtE7EnkOM/jDGi6gzL6IT3pM3zw0N5JcO8fQPp5ZjexPnOBcoEiYFsJjshWMujPWCDJ3h9DffWRYfO0MyX8h/ByIwvuLG262ypF2CYumCBvDwUW5VCeCjotxvoGk8/ZknR9GLjEnuib6G2k0voSNJGy2itCP34ZpLfZSyfgVx9CfyewcjtIpogpR+w+w6hwcS8EUlT7MiCdloJRAkZ6BK0jDQYVCPBBgg1hyKr/AIR6NfgUtZ4/4GMTUhR0oq+7pjsHY/KYsG2E8Nm4q9F+2az+4NSmDfbeU6cvRp8CMJkFCzz2WMt3bNeJoaui0Y+5DHEthGsg/H2I8IxUhkJolaFO3k2VNoeV0GmDElHW4bxHsYnSH2NhJZ0MuYntjzBW/Yo0224MCcyGGsoptC15HUnMvYS8PY0Q0VYr2BIuex7QRGhvwL4CuWjMUlRhpPHO3ydwtcdGq+Tfktvk0fgv4n8HYuP5BHBGOiCYW08jpJLtMSpKtZJyjviCKNPU9F4g4KubaEJSi9jcsgQq2nR+YeRJsFY0/JH5PsabEwSSZGReCIcTb9ClJpmDbgomDyAlT74expzrxgU2lV5Wx3XnXlkS0hsmz2fBb2/pIRbVo4TVU1+hukW2x3H46M4Sm4kP5cdD0zQNCaedEkhyVdKQxw/Kv2X/APaBD0uFK2Pdreeha+uWk1yTlpnRZ1EESnceDl75dedDxw9M0+CryVDJX7I8kCaTZBBUI4Wr/iJ5H2JkbtqmkQRTQkY/Bva50Oudednz/wAiyzym1BCmsND4VpSfbRl/eYqVQ0bfEYcWZO2SIbUFVwP+V4grdeWiooWckUYkqmpnz3GgxsxZP4mValGNctBzTt/6CkeexedRJDBS4eTAywJtv4GiMuhvGjNtaRid30ZcaE8aHwNobyIErinocoqd/wACbKHTiyitmZDNSyo6bxPs7RDQo8BzDTRPZgL7P2fY+w1lEPsJogkaiI4mkEjRA0gqaPQQJeiLwYFt8rhg6/4ez5e+XoWue3y7LnQWvkUrKvJHkqD8adDbi/0OzOOZER8laHsVrH2iFjn/ACTOoSaSSWijqylgaKkiYsfAS0YS1Dubtkfky7LWqnjkiEEEUEeCLwRgxxqvgLK40Zpx0ac6c7Pntw1UIUJcvgR150E+NhouNhp50ZeNnzci5/xa25e+dBiogUNkcLnRX4PQM+P2HhsS8ihGIQQRdCLwRGKhu/8Ai59caHXHTNOe3O3yXoUR0514pqIY9M0XL8u/O3JbfK9BiaG8rijqECY3gTxs22YWh0kKvJV5J37KEDSkcEqbvBP4Gdf4jJnyNeyeyEwJKERBbfL0515awac9+e/L2vkehcdGvPblb4VcavJUN5RljSkDponhgJ8M+gzhXg9A25oWCLwNBTWHoronkfYVzkj8k9kzvhjC5IZwmBBI4aIIICKITBHjg0giEXgaChF8SbJxs/xrFwzTlbc7LnTno052fwVFQ2qiTNE+hGS1B7MDwvQbfgr8cGRn6JzpoeaqRGEt5Psye2ZQNv6ZEDIjyiPBF4Ig26/Yx5PITRONOZpFFtsdeqMp+4PTNFzoPCZbPTTKGiXnsZq8cLb4zf4cOwnQmNVNtpEm8w1k+hk9MacHmIQSxX5HKdIwb+2+D+pglQ0NOHo1515787/4Z686C50KVFEEDedFeCvwNsV5NCez7CWWQQNBTHI041w1oek7wSEaCVp6d4emLaOxnk+h0aF4bRqq0nnCcpn82YtKqvv0JK2ngz9gx24dyELoyy28IRbW/wCiJdrTHZ9pwWpW1s6cfvnBBnenMX2TdOhB5I2yDFkKOTamQ86MSnnINtr0ILW3strVpBkVSug6MsqN0o6LICIHkbl6c4u1JsbFcJsW2fRhqJmFUdq0kyK8oYG4q8iXtMOAVXNoXrJ2huoWmFwG1BIkQNBYFKJ+i+ivwK+DPgydvnF+TZcG9iN/SF4Gv0R+eRIiGpGkJEaZjjpy9GnOnLfwIqGqNplxHQXxaRx0HfRkQho3DDf9J9lGXozsTx5OuOjZlvDgpmcVsJ2vnE3SR+AaJooNk5metItl2y3gxXNBIh4wPSCtQg4aZMN6yjM037LeICqgrHs2NYX0UGYZfOFgoZ8DXhhiqlXRlXZTYnaVykwWGx+RG9hGjPsbQo4LVh5unntFRIaSVNC0NxprAksN0wNHENKHSDSgjwRCLBF4IhScaC40NOHr4GnDNPnNvyboaqglZCeBI5ZT8EIp87MSrPFh9J28obPhYkV+pDtrPG+BDX6GuYm9SKWew9QnFCvKH/SRAdKX9BBpg6/B6ZKvsz7edGCXTn8lQxBnqq+jS7MwjfA+grNItyRRYQ1IqeRpX+hFaGaskaFCSIRUiJDBF4Ihkk+eenCNhDFVsTvjhobSHS2Frh7GjhTXvwhRGqz4G0ts6NRo74dK6zBnZEZYs2MQn26YpMuE7LZ9GSwz8b152RSnXlsCKNkaLjQWlwzTh6/AKa7+RdD0PsEZJQssTJFxyLbhYw2n6LLyboRTO9NeS6CJDeBzRkTNp4HbOtDKzrgxzdizKoKcjg8qtHuwsu39sS3mv0xrRpEXgiNedBNbCaaqeCj3lKmo9Kn364onbHLwAm2I5SPDjAaJtniCUJoTNvQeJ0PCfoqPFdMymod+KrsnHCN08n2hgasE0Lg94DUP/wBCZNlYYyR9pjk9+Bsk15i/oSIOuzJfWeBfTAKcSiTg+4LaGo293YsKDLzTqZTJaRkdZg6wW5g5v5DC9IYVTKvJUfYQNoQQIJIG5HXR9CvB4AmSWBN4GYr44NhWEDTguHzb+8Qvx02Z4Zx+CPyfYSyN21SeAiq50Foq40Fxs/g7zIpuw6SxHlr9CouFCvSEqaIsqpoyIto/sepYOoVbL0molc9Kv6KObyWjX75xS9uior8DDNWacZVrExIV9usSrQnlo7DoUursU8Zopdglwv0N+hqeWJX4EpklabC+oCQkl0U8F4Eai6eEeBiGBbYXU3hBCRNily3jRjyBXz6gu43PAseU30MSozrWRL0j0FDJOxSIwXQkKQi8EFJoskR14/Q9ohDpz15150FrjQWuTRfNv5Ql+PU05XydB63kvGgs0hFxKtaM97bCHOSMYFrG2VWJG4noZFN2/Zi/a4KVtdaIa7ImFoiU9lKbDxUmsf7DYnLZ9BFGnHowVSKMb8BkKkbIFnfYylV1pPZmyz5NFSBviD1hs2kyE1EiLjoW2l8l1xoWUmbhLHexoudOdee/Pblbcr5L056c9OdFzrzoLjU0Xz3pvx+TU0/AXhv+P6sUp2XlW4G7YQGfY4QboI6zU/sx5l8niF2uyFJehJ0b/eBYqa2/LG/ap6BrRF440YtcPRp8m3yHry9rnpzpzsFrjQWlw9M0c6cYNSryVDIq8lQpkgqElZBBVRHC+HI9ovovob0X0V+CsYPpwrhkdxSeRH54JEE+eDP0eFp+TQbBX4Mipkj8kzxgaRFI0MKlCJ9CKLinb5Xtc6LnQWuOjTntytvio9OKvI2qiCRvhfQxX4PoNsQ/UdCTmyZDXsWGzZ0VQexEIIEkegiEWSIguyIgllyt/levDHtcMe+Wy56fJ1+cmewtL8j0a8rfL2udBPBRmnK2/le18FXAistCIuF9DPwV+C+AtuE8iZZI/I4pRMkEDWUREXge1jlifGnGGWEuyMItcPTFpDf8g0NBstRfSQNPl78rviieX4EXwPThj052ReNuTeUMo3r5/wBIWl+R6Nee+dlzoJ4JQpC63wfQr8Ct5NtkfknsTXCBpQSXguJ9DWbX14JD5F2PmVIVYCab2VLs+oDEd2NsvF4ijRZb4tBAz3Ldi/sMqCW68mzV5IdOwITS8kewWcLM/QzSDUE6jOg04Kd7Ix+gy7diCXeuNtPYaFQ2NggqE0QUT3wostH0L6E8vBXgTfgzdF8CjN5M8GR0TyI/JMn2PsNZWeRrJERD0+cvuRDFfkY5fRfRmmTPDvHP7mRDQkoLWvppI2r/AMo8CzfCgPK4f2YQZdFUshNPTIp3Qhoxvoe+hI0EYl6SvGgiU6wJF0Ka0/DLAQ5WtiMevtgqclRAeybQ21hrSMjfMFVwodm/2Ilq64a6L1RStCdYmJRksNjbpiGsm9XCu27GDKWrooTzGoXEVGk76NGmic66FBN+gWmqY433FZdCZY/UJRpFVgXOb7YihEQTHyLnZ8rb5W352enyPT5rUBR1F+f3xBBDpOmVamh1C0qFoer6434aGT8infsyh7XgiHuglvaos+7BtNmDx7RiVtBSDRHAr0R4Y9q9nkUAv90bUE1BH0raGwtrBqTmSGzilziik8ugyckQsVeAYjwJpmfhvZ+vCL/0hIlEx7mTYju5b9skwcRdCRF4H0JLjTi5hSW27zoxaXGjNOHo0504Zpzrz257c7Plbcrf8QwVcKinZS/g3Pu+F+TZ89OdCb06sBrrp1R9Tw/gbA7UaqEwy+hqVkoYlc2J7t7Md4FSb+mPGtPrJZbM6/A8ia0LZAy6DwEUINu1FJYXEgu/wna5byuXxRscNbWn6Eje2dcPRoUbNOLs0IKhPkYvoovor8F8BN8MivDIrwyK1n2FvYhBpzA+XrknBBIRE4Qi4Thb/OH7eNL8icZT6Ffgr4Ok4RcIuMZcMHtVTEokh6c9OdOWacXhSi2+KJ5FL8DeSoqG0U2CjdS4fQbxoTfgbDcCs4OwSc2V5HbejNvoggmCpaUYzadWUac6fMkvg7EZKnq0pmO3Gh06NpH9iHM9iSp1vjA8nHz25W3K5Lb52fPNI9D/AJ/Kt8vl6F8i25enyaHRUVCahJ9T0Ffgr8Ct4ZFRkiwNMVg8Pg1ogS4NU2D3r8mhI/TgxC7g6Ohx4Db+k+Ho04/rmAvLTrjQdJvtoqjF4uCK4J6GJpdMkm8hOJkiba7MJNUxUjTyNayYhmgtR1Q+Unyw3cRLYrr0lWSdhGTunRm38DM62E+7sok2t6WioqKqyOCycieRiieWVmTd/PL6Jf4g9C1yxBBUPpwHaZ4I5sS9n2HgbFajEk0icnVonE9sstCz+K4srE7nk9HoQB6CUvzkeQ48D656GX6d/lw7UrbJIT6Yk/kmHy3YM0r7/wBRW0WkRKLLSE7diub6Z9smI83ge4TPENHlD3VxyCg3aahUJ4MqVNqXeV4lRzpJlp4n2K0kgpWwTnKnBrGe7f2OR0hFjlv2WB5MjdZvdnRDGzBBq6HUfYua7CdhPZlnaJ2Dc61kgqeCIglshBLZERCKvnZ8pvnv89zPZ+VilJKlEaMjojm+EQiHhNwiQd8sujX6GeGMXJmSvD0f1x3b1CIXRZWuMJ6PUxylbI9W6DC/CQlId6Hgd7GXacX9jH2IXhg0PQaJ4JPQpl7bg2VeSoYVlBPo0P8AtB07NiNV/IhxxV2LglkSwVC0aUyCZbIIhFCHRpyicNEUk40515Xydue3Pbntz257fhNfmv5o0GBpljlXH1wmhCg58j64WxmcrN1jDGH4Y0V9ENrvizLeJWLKtJE3+wqBuJmIhkTZMXYYGlguiVlhqUnqiqSGSWmPsbUbOo1H1og39Anl2xty0QpwqOtYXCONOdBcPQtcPRpw9GnD0+ZmnHRpzpzp+Ap24o0pBUMQVCKURX4K/BRWZKIzPCDWPwW7826Hob04hil6F19CsfDZc/oVvTIz/eO+jOFsqGaChyqyVvZRiZIniCSDg5yFLtN7Y2idEFU0JSEIifAt898NeUy2MPYtScPa+TQRTQXGguG8GhRyDYIGxPBS+hNzRkyK8ieRPIj8iT8n2PsJcIJgggQgi4RfgNfk0+LT5z0bEE40TCC/IXB4caIOujRXKT0JanY12RGZ8kVIho+inAudBcPRp8mz575752XFOhUVDcKNlZfAbcFYfYafkSJ7HgxJBU86REIoYGacVZyIF/BDOjTh6NfmP4tPibGKXheNOG8GnDYngqKNgqGwaPk9Pk7TJpuL8lcMWuVv5HzodcPRpyyI4J54V+CumT7Gbsnvg+CIaIQjT9nohDVH5RodcPQlV4emNtRO+NK2XJjyQwH5EyrKfs6plirE2RqUmLwJK+2smghi/gZm20NOdOWxxRMq4YqKMUomz6FeCisYQTumZgjhkaEiexoWBA1gSwRGotL5bh8L0pET0T8ha505W+WKiobpSvwOiE8iPyL2E3fsiBcsi4W2J0X/AJXwQ3CyewkJxpPRtmnTnUrf7DLsRD2ivvQaSW+jPRSjUrLX0dlbfRr9xGz6FQu1sqGn1cMYWDocF1mPJta+idMBYUhQ61DBEmMWTPk7LDKRPfBME4JIQaRoQZp8S1GgxI0+gzQeB6NBK6//AHHo040Frh6FrjQXGovlv5v5NRMvCMmSO8IJlEIMqPQyaTQ1+AaC0VGwaRqNi9J8duew6R5hKj2zaG/vqYJ1ZsGI9RwzK2gtZq2IXTKNeTjOfQzBsoqM2Q9GYRIUJgpsQzXcibMNDEbeys4xB3kEzRijkFCzRMFsjKTBRZCKcJVBUlhDlPf9DwlNCRuSNoZoQ0e5EskjTjojyMS0xBa4W2DFtiMRlAi38oyxYJJJw8ijaOuehYUa0Pa9g55bMQuhxNMbLdS0zQWk/odtj3BSFQ9CeCjYKIQqbHS0UV2dF4Fr/FdDTmo5RjEkvssZFvh7DK5opq4Ssh2rdsfRmJpRoQ5X6YUld9gya0TC9m+3RxL/APCKhPLLw7Hq/kC/sWmDCsEZmL7N/Z0BI0N7rWjkggiGsC4ehtJWxO00aC0uHoWh9JWV0X2BTxePBzRoWKFKTsejQ1Z9tGbe3Rdz2GbGBZNPaKw79otw20aR228lKQjmlkTwJ4GLL2J44XLAbk2YErAuD0xKTwZEhF47EqZV+DuGmxIOI8hPAlEm9MW2TEhJ0mjQctoosDc61RpJCSIhBfA9A6SsU+h/2RMjgiwlh5/xbQ15Uohu+0sMzxdDXC3wyL4Ow6PKt8dcG6h6mxkcXbi8CV+I1LY20WRdsi6RlaIhLLMIU+DpGtNkWxdofQ88xGuHy1G+hL4Kw8j0S6enXtmeiljOu4Os2kI73BaEWNpQh9lzuV2RWFRr2kTSE8aFoUKxWaE2YldryK1lQoaRLOw6UMgm28seE7bG1VnRi+Xl+SEE/MIvHwRb7EsEg9C0Q0w0pQN4Mg2IFpzRj0LXGgtEwK2WHRyUWio9KKy+Bnu1OUw0vYlnuN+DL9UlQiJrTRD2blCTXXQlV2IX3PQqVnnaF8dfzsbBTIwItN+skcJMEQbtqkLoS4fJ+PbcQuk6v9DK/cY+pkVlZ8cVFjYpJt3gxK22aJW9DNrKNgg8wQPGfJgLsYhOO6bBKF1Zejt6bQkz9S1maMqry0mUA3EhI3yKOwbxXYt6UshuCUcObE7Vbu6JLv6oqDO0ZBYQoKDwhtHaZ6Nrt5fGnOnDPcJRxFTRsEnp8NcncHEreuC2O3DBkeR5av8AB+/gdGgm527xMkvJ5Zit0aCahUNgTwUQq9OmSbF2KjLT8omSGM6aTdgmx0ljQlcBrJkjJknBIvwjh5a8d/kfznv4EUZgp6EnnhHKdqM5lCALPQnnUC1+oJPlyyS1tYDkTMyOkt1IEDoUKpJNKl8DGvRSSRGfYhDkaGYqhjyKeDGhvtr6OghXLS8Q03s6CCkTQxNmLW+HoR5KqbhhXkZ1lCUGjP2NCSutlGuN6g5UHVxk264Fvb4WbszZ8JYHm8QoUkDAUE2UxTQqkMjXOBaN9kiEsEGsCWCIawJKEHoWuNDrjpz05e1+USjF8Jgmmnhi0Xa/O7+SIU8OsmM28QyWyL9vul8DLM8V5FUzEt43yLxHo5dC0SCablKaWH2PoxLJPA1XlfEQ3Eq2xDGXialHGqPyZfoJTPWjR3pZD6TqOkvo6mj/AO5xSAsIiirqOoyVNIQsCw2hJF/FkTJbJQuCSIiDftGTBpwzTnTh6Frh6Frh6FxoLXGgvi6cva5eyoqIpHBPnJjdZDCGL9r/ACLZeM0yRjQkRDSglgSS0hOhPK38G3KsK+CH1XR0ZHGRz2oPQ8LoKGavYhdyMw9iP6Ydpo+0LWrSDg6vI/2MOY0PSSHxV3yxBgE5PREGjQV0p6iBPk0+XT8B0a86cPRoYG1BNQgaQkkYvo+g230XwL4GXJBGV5PsfbhBBBBPwslYUZkxk92+/oQjSWPyLk98sXEpNs7QIpqMc60yq08DA30Pbvroew9AuG6y9otakegDGa26X0PL1wyNMbk7HgSDPL/yN20NMBMLhi1wxfhF+AxwqIEnH6CbXRfA+ouGeZXkj8n3IJIIIiIhj8r0WfBSlKvwMfeS4goQX5j5YiiPJKtJ/A/ykxVFX9Cm7D1i+zZA3af0YdUJJXk+w3PKp6iIe1z0+BcPQuGLjrkxcNoTRV5IEcK8F8D6cIJ5FeT7n3JIIIiE/wA/QmR4FxMHSNDNPk9DGx0IX5lZkdIyDWBIQi+Dtyt8vk9r5i4ehNeeJqL1K8F8OM8iPyfckkgjwRf/ANBhc0aMgi/G0Q8sbsIf/8QAKBABAAICAwEBAAMBAQEAAwEBAQARITEQQVFhcSCBkaGxMMHh8dHw/9oACAEBAAE/EOdEIy5cvi4Q/gxh/C4suEHm5cIS/wCJxZLjAlTvjEOCX/C5f8beLly+OuL5xLlweOoR5MS/4XO+B6ly5cumXFl8DEDLBln3lnFksqWexSojMsO4B7iBq4m9z7yg5gFx9pX2IO4Vdz6wioc4LTfOwxYl83wwZcuDL5GXLly74uXFfFkvi+L4uPBMSyWSzkX7LPZZKeyns+ks0yrsn2n3lXc+sfWV9wr3M++X+8slEoeL4Mr5K+oW7Ry2n6R1i3AEIricEEivUJEupYagza6liXJLbdxJ+0feHpG6D+AgXoyggOGW6gAgkH7P1H6h4Yv2H3P1Ndz9RPsr7K+yh3ESr3AoHSGDgD+AuGhOKg9yyIOonzirWoW6nwjMwFJiPTyAPKfPiwRdoxV6n7iSHuV7mXcPXiHvOzkrk4hmuEEFu4Kxb2bbiLivsr7K+wI3wPJZL5S/qfGV6J8p8YeMt6nzJXiB5JXkgeSIHqYrqYRgw6h8J9CeglbMmyfcmTc+8+0NVxOUf/A2yqdQZn4n4mHUs6OC8DgcEljZDymXUfGD9R84P1E3UQ6h3x4pg4llZt9SiCGhDnrm4pPlHxgMq2iVNfMC3UG/Uv0S/RFitbn0j7T7z6z6x9OPBGvjOTgOIDEQHjEHU/ET5Mep+YLyW9zeLx4cEND1w9cIGSHhDtI+EG6l+IQjBm4To4gXc+kEjJll/c+8tHMExw1EL7TajPuFO2ZXMTuD0YmKpzSFmLgDVTTifGfKOvEPGfGVjEoaJ8YkYINuJ8p8IADEABiUeSiHLKeRBh1AwSo4IcsqVNybIEBO3CockNSpd/JMoEsYYlzueiWkhXsu7jRuFi4CP3BWrlfZ9GGtCQz/AA4vjDxgTBFGpXyfCU6T4QHkAahVqU8lEBcAlHkBTiGUcUpMQmkeOLmqEtlYePUtl7J1xWJ24MTeC8MOX+AsIRhyjAnSDHO7DXHSVdSqI6mzwTrDjqPLwbnSGjipvy6QMEqMOWa4GSHDqDfJw4SYqZqVMQ4SONEvg5jEWJ1DEOKF8BOdxcGbpql8PEWOSLHBU08EdM1YcaOXTBvipuctBO8ONziuNma43IcMyXnrDUqLHlly+A4IPDy8XOs0JfFBZcJ0gYOGbPGYNTQ46m7CO4NRYJcWPLLgIskKqWS9xAsslIVJYyyLOaP8jGmLOocRmkrXHUsm4cTIsncwHBNWPHGYsZdS5eGMl3CaIR0XLtRwhYckdQixbgxWWshLjxEikYVDCAgQs5iYe0xMwo3GrcxblrcfefWA1mABKokS9xJhVAVrg/EYVqWgULeoVx7Rf1BvqXbUvzFA4TSfUyPI0mYV7n24DW54FvYnsv0x9oL2Z2ZdzDuUhmfuHe4ISzaGG+BWQw45mYaH+GeMoqnFliOKQSwwgG5aRy0c8caUDvOppII1joINi9YdjOshOkuIIiTqJyEMjUKxTBrMAmL3EYkpSCVB4SLjcUq50mKq3iiMos2uBtzCa7uGTMF7Bds/UdXMb9ifSYDcMDM+jKVuFbEpCiJQog0SuVIjtalMS+Nz5xmaJcEE6nwlDaqleJR6mJRKCAiQ5ZRKuXKjwSoZZsiEqDB/BslSo6qDg4oqboxJeidcBN2BO5qcnUGVi4iiOKGuM3Nn8MxWo1giTOCLjkdE3BNKbgVUlDqAvDpZCsZIvxFRYQBRLBqKhJc0iy3EjiXyp4KMEUsUIoCgTGY8K3uA0coK5nqJhl9Ma8KFWDMZGC0aMhA4RXtBRZpGGeBolqsynwgzy7WN4XJLn/rzmIogn9csuZfuydRsT5gQIiWJAY4hmEKQsAN7GIYCOegxPRUFrLTytDiYSoQP6WzDG1saxsY23f8A4zYHYD61HRITpIoL/GHhBYjZDSpOjthiCXAQWGBCykggi7shLF46xFTcYspcSOI8EQCHVlwSFeoFYtTDTC6OOoZS6lIeIxgJE3mEZZUzIuDHgl1Mydo81xugqM2Q8Cws6tgIGACUQTk/Ax/ohwUGAlzY5njKRoLTyHeEsDsljQNypTPiMj30YEeFFbUC2NTdKtMFgORPkqCtk6uE118IxUzOJMNXth5BEhdsk1uC4vuMSVKJCRepOiGR0NjCUdgyj0xkkWJrcWUAFVsdEkWD7YbJj+0zCmITpKhO5XzFKUS8nsISKrmhUKlIipm3THJq98XbK2bvpndzqfb/AFl0CptKDFfFVD4Sl1fPNOlxatbuEycEdpoESVhjFTEfRD+4mkKZ3UxPN+HADY7MHRXcekWsC5Qxi/6LLhdUAyUER+ngyTe5zQwMES6u4CUPdHEDkCovYfIZn7QvDCu8UvHZKzvVmijCaAGLuFM2p5FoJWqjYgaEwYOIVkBDgBrcCdx9INsx94j2XBmDBAUBVDcI42SxxFjcSUVhw6ANy9gToSMCS6sTdqITaNVagMKoCsTEsh4RKcR4Zf8AAIYGUyIbPBJ+S7hjbUO5alpmOwX91UuJo4EEAtLEzTqHut38CUk8FLLqpbr1AkDMTX9wrlEpEGPC/wAuVEVW+whjsY2GFqUhpCMI6OSqVc47VBDjHqrD/CM+ALtSeU5D2oygyuxYVGIohLYoouxgyxgLYDqWq9dzNuWFaCNQjIwHGe0umckzSDxkdjEoHRAkrSkQpRFUHzQf1FMpYdkTZTrajzQB6hALTInRhmoOfQP6Rj8Xg/sv6SCihIqUMCCC6zA4qUUMuOzeILZAdRdfZTMBBoNlIkpCINDcCUqZG6ivVEL6uazWkKBfwal99AvcG39yNI+kMNB3e6ikpQEFDUynuiI6GJfF3xaHA6RY2ypWB+T2QwGLFXHCrlSjXc/UqNwxJSVmZhCqEBKMVwHwi8U+E+ECoFGIifGXIpELYltGokEx5FOpkYCFHJGCEMCVBlNX+NTWJmWLUoEqYUBR1kuJqUYDdEwaLsEEYNQzCrjxS31YyheljGmVSqtoVK+gOiPTLpNpZUR3MO0WVQtFJHKVfZH4HQxX5LQQ7VsGdx7mJpMjcsKXEai5VoL2QYjOrAiZgAS8LnWlIS2gOwSyF875cQYIFJ9P4FwNQnwCBis+EMgVDHN3yufCBbHB8ICiFVqIlPJXIqNNjkYSltugQiVKWpUCboQjxDXFQQof0uFGCXNCLHDKiZh4dIGJU1Dl5GCGA4dQZZTGHUCg4qAtwTpBEgQ54UIsh5hwMsYowAhrjdNGHN8NWd+KyYmIIUSiLiJthNxZkRjG7xWYNTThhthz0lzEWUqVNJpyMHGs0IZlQ2/h0h/BYUWCZvjfxcGDgVw84cakDBws2crBBxBjFljFzrC4xmzwTIIaI54WXPSGpXApL4J1nRy8sGMM4lQhFneVKhwlcbJoxlxedk7Qlx3Opjg8ssg1FKIwRHlLgx6mYcdQwp1w4mjhYs5cY8TTkZJcUaIMuE4ly9RYcdQUfC48QYQHlcuOIqYjHlBlwQsHCxZRYJURRAUlKi3cAsx9pX2DjMANRlVuALPpwBU11CcpWsLS8K1Hij4T4Si6I04MK4KCocBuwI+ssExw9OB10w952mPYXBexcWmYQymMONI6WXLKhVDAiYQQsz6xbuU9zSh6RPuWlPAH2I7lIzPtK1AyywQ0hEUREAib0AuZtWRHkFINagPIfMM7UtCx1HYN0jhqHzBdOIqoUNTRiOoIKZmIjTRDPHGGokTDXcKYRLxfSDXcH3PMVaDDtggERSGZ9IO0HpP3E+wYMxQlGVCBLCCfUMCYhmJUA7AC/s+EAZqA1RCq1HDU1CuRAwc1RSF0WmBBOiHX3j8lzpKgnnLdx2wDCBB0hrh1HuNIzolpMXJELjw8Y84IYjqBalPsTqEqB9j9yvs0bgD/AE8npBvzB2vGIMMKQQbwLBaXdVx/cw1NP6SqCwqsHQYgLlC5W7qUeQCfhwDXAo8gPJcYNGv9iSG4FdStRxvqYvUOJXAwCMsIM3NkwGLBL5NV41BRQ52x1L5vS/8AOFcuPcIOZnjKpZqp3ZSUJhgItJmOoKhy39BKGbEC6EUm1xGOGHTN2eiZhtO4bqz6yptiE0C6UwwjM6Llt+IB3sJHYnxLYvEUrYCNqgxBC70YiAaku3ctnhDYNaUaBtXQ2xiVT0xbDLV+4QGsBXMzLXTWGoDAKolUS2yMGW6v6g/AX9ks70ZfhAI7BmPA3FwzvFidIhZxDGSWKL+ZYcNof2yiEK2ssEw390inxSnpfGUA0/NiY4Zd/kM/oNpUt78fjAnASrJ3QAQPdL/RhJ7IhoLP0QIoTneA7WA7C/YOJYziBvBS7lAQurIsocksgZSoJN1UGURhhRCDZZOiY5udty7mFq3f5CREvUBJ3OpiNtUeESArWAWwzfvSncvi+q5SAOOlSKrgv/pDVtK30BLK4XR2wWisYxp1FaO6gD1/0YzMnJ/4QJt1bZm0D8SYYuj/ANh4BQiuu8hB4x4KoPYVDLS4XMVRVXuO3Aaf2Ueqw/2MWH1TcCUT8ihu7p+EJQpKyQ952xlLSqIpY3PiGzCxX5LUo39JCNGZlXBu2xS0cBAVqpWLsltwW0gppGPwmkxTyG6I3+C5h65r96icuVHkC6uUVockEQ4sYRon1AHZF/c3rGiXCjiqCkmUfvksbrnpAQFVLLmGcF/ctfViblf5eZr9E/3GKqGA0R0UVvlcpS5ghSEIDZcq5b/omXxSvawy3kgNjiA7iKh5iWVyHRAllYgZWUJRyxhaENXT+fUwkY44IHanT1LHmw9rHHZK7hzw2s/3LiMsNTujETcPAUDvX0jAWAV+Rd6NfESlv/8A3uM74IG3lD7lBAQPuXqWF7owyIoVhcu1BqCLeUViHIvvtKlCQKrRh0w/eUlbizT+wrd/4CP2Il+CWaUc9p+SthrP4nX4All1uoh6Cg8SOfo2hgar9hhVUownALcmJKqT/cMjUND1A6sm/Aan0d/3dQz3x/WN0/8AtYQuvGEvtg/FRRJrgbVYy4W5OmD0ARmtfb8uDZi0C78ILnDA8lepZ7CB2ltxlUy2C5z0JaDJ+ITpBf2Qj5SN9QZHFCPQRFrA0EU0kgFnVONRto6HjBgUrdVCpSnmOobk6ilVKKpeF9gPIC9R8XRYGIxVpYmABojtQA7oP7YWal0GxGUFtdMZIH45jVOOiZxW+riXT7m/UNDeDDaBbY06AKhgSL0IWKtAV3LGgXIGhZVm6MWCDVYdy+7BqnIkE4docQK76SlblPZighpUujcCKJcIqNsTLErnEx5KPJihUPyY8iBYhMWfxdQrJJXSZWA2tsfZlPasx8ZyeElbzYt6T8dGYdNA1Jw1GqO02H4IgaIUqrnfISyV/QYaDZpWvnpcyjBYAgUsJd/7Lmw3Zgwb9Q6O7RML2EXcdMqqYGKsotHCMw7qu0JLzJMYvaI807Uq0cVkDV1NU0uAyoxQjBe226LlkfXkkC+yVEZNmyNrPpCbDGrRUDNzCCfrUycguf2XGXTBcFxQJ6x3Pn+odZtigH9wljGqaT8jwWW1WsJNLb9GNqXBGM9PbiS6ztVmS4ipCUsxBANRWUbsLD0ZezUG5UAMysMzWZhWBKBdoAsxs+xeHGDgR64YcIAKBwP+lwYE8McQ2pKPJgJuz+uFCA13AqE3cAwS6FCCFIw4pO0sBVg4BPSZIRlxbDmLFxM7hvgZI6hEneYHB3FErtiQlOJXGiVCMyVKYS5XFSohBUKgI8YZiEqESEsW4DtmEkpkOoccYaioQb/GpY/Y8uYiqDhNoyYS4sJcEi0MwKQq3AwiNRHDvw9xpsF/3N8KSCcy+0CjsSHDlcTXlcrIldiCMLUbRhl7P0BmOXwWgnRsppHamMGZZDgwwyDKWENPkrrEmEWcTtdo/BhFaRHIwUjSoGJXs1zLthjqMVULisYJKAzHa2pf+NxADImIYJB1cMas0dyom7BidXLgVF6GAVAxW4puhG0TeKzKWv6iXGKfnFbh+AFYAAJq0AE7LjS4K5ccXiEZ3gFIBDuNoajpmrKuVBjAlTMhmv4sSuDixRFlrLu8RmjZuNFllgJhJghbB8Wam2z3EucYzRL/AHEM+hZnDIRymFUP/IgWLRTYC5R2kONEri/9IxWNq/xFs3SogPOkaiQpTEG5x6dwUoIJbtlJBX4Qk7iV8ZvvapR1i9xyocQwhgY0pNJkizB+QCVwYUuUW0ynApG1glM7awu2DcS+idMZowtJ5auoLVLAlbSlSGFAAE7mDYVu3wSidLS9kEAirQ7hbrKUzIff/U+CS/3G7RQ/THgoNK4XyL+EJRB1f8CK7l5deTf+KwCWICphCLOy1zxS1w2l4RMCyn+iMP23+rlKqAIYXdgPBio8ELevWK1mcDkGE9C+bOZdrxikPU0oidXk9GI1GYxRaT9ilFuj/UWQgmjVpBSzDu1l6XGNQv8A3I3LwHCZzK5ZL1J6jl2q1tkt9WOod77vTlypuCigTZDSf4Qpc/MfCLZPzEtEuNR6cRK6lrqNBiFNIVlxUOIuZ8ONVnASemIlsS4chNcsgbpqXzhT9mUL5RAR8gD6TVEyP8eKWsrxHqwv+rqCo3SfPUEhBZSZ3HfowBKcE8zS9ICHQCF1AuDASlolLZ8DyEKsaqtiS+EpybvEJfUGYm5DrgPvhBYLF+Ix2nqhNupH9Iy8KvQ6lT7CK/YtwwL/AO3NlAVGVUFJ/wCESFSxDFqCIAivtoDBerExoFItGIGKJaD9GdDMCGTJ0ewAjl0y2wDZkEa/Jc28s1LWRXwMAZID7mtEWlPfENRXLdUlPv2FEd2AOmJs8egy/YO0AlZoYsQAXTzTLkVIJQkOuCUoogyujldso8rDlSVpJnCIEXH+dMt5GsIFmHrgzI1snt3bkkXVazi5iGGENZjKcK35LeCJXkCLQXYeRrLvMIzjQpfYsVCyNo3xeoF3Oxg6MxUTMHwx8NnjC0tQAKwRYsV7hK235HBKVVFPAfISISgbnYjbxK8Qr+zKdhC4BLcgT7mOqlc4g5m+omGPBGLhmIwpiZqdIMRI6ZpwhURThZ5K2hGkAOD+AwgsJ7Rv7aAUWyfEpRi5L8Hq2DpBi9MFCkqzeBfLlcAXMWwE2l1NyRY7Y5INKRuV1MALKFgeEBRdxx3DtmKqkuH3KKzD7lb3EPc/Knevssl+jT8jm7EtzHaEsKlEULCBkBAqAnyhxDHt/RAwAqJlxi8KqmOJGL9QEfEjXqFwS/pPEEqdSwQModSimArUzFl/SYvUpWUeSkbaaIUS44IylMExUoOYsvFMMmZaDJfFAMx43yyE0QIBL8LTFHhahoi4EYVlsTAQjaXP/ThY2kOMFHlwwQWSIEBEFSghcqOCVAIc+J3LYSudEwIIS8R5eDgs01HZMPZbB7ob/YJMVCWxYQ9QcEeCyKlQqPJCkhvjdlK1kBqh9j06zHiIHCdZuIaXlQYxQJu8XiOqlSViKYoRhZsQaIsuYHheJSsuWxZcpHEDGGsnyEXLihYQgYMrlA41LzLiXgsIV1BolUbEW5bFmiEEKqPFoy68t0dKBmoCKAVRue8KFLLmJZGs5frgy8OMf4hFTCwQ4N0uDcpP3KzCGkR1LFcu5eeDARSopGWy4seJpLmEMUBUXEvIOHAnOy+GiDCkVwreBl9SlcPzFzUVBInAw4MUtlxSGDEVFjl0iwczIxEv7LPZZFPZQ7i9oDaHrKewNriXc+kQEKJRKwLYhbqbamjEaNToEx6jC1Bup848LOQSXdPErSAUzD041CETcs9w+5UhcStwIxFPGJSQBIvCS8wBi2mIfw2JSMz6SruXmZ9Y+kqEMUVjEWqohjqGyOICFStkrLjKeMQdMbpQaMMAumU8ZlVIdLRZ1F8gsFRY6Zn1LzEQ64FUgqxnH3Q1SK2oZCKrqO/bJikfvGmPnAVxLOpT1G8snz43zj6E+Mt9TOXUr0SvcqjaQSI3D7zAIZvtKFbMO4/cpW4HvzFTUKiEHkQFhJ8pXyArUKpjj8QlscrU6JUEwuXxtAErg0PFEOEODiIZsqFOYSGITVjipKMpSDCGMvKUlHU/uHJNSUjXEwsIAsQPII0kJ5BQxwUmLQjFXUNI6Q84RpCUxKtrgPMovRKhdIAExMSjAVFuMLMogpLGUVIs+dIOIPGLlXKhwT1dS2YF+zExZJYODUQgS3EyeRd1kCMxMQVcCG+ASmOmVg4aBzmpq5vWPGyaudzBbjNIPLpjLqXMaglbgCLZBxczchFQEf3mn8YmlJ5LSILlcZgXii9YxBFJ4xDnBjB5IsGapq4Ib8IEMXRQsIJ3Ly4z2S5kUrSz0RHMi0aYaIiQA2xECv8AP/Y0UeK4tUv+fVAyP2DAI6SA8j94hAWMZ4xLVFyn+QacUwtN1mVC6QRMmPiX9phLTpPEj15sPnsMhYBPxg3AzBiY8lVcZbNS3vbUhFkHWVOsInsbu7GMK1BD+VAkIzt/EXFwzSEHMWEGXN0cHD34LlCNEuXBRS18EwYQcchVLjQK9l6ibgoRpS9y5cpBalJQcxFLcr7iSZiskr75M6EszERcAMeKUXHyh0kdykKpgZahIZ5gXWBWGXklQms0cdw416wUYnoFiX7gEwYqHtN3en6IbfdiJf6xjr9BDolmCGG+0YC1YuFASpsC7QhwYqQVpi8/85YlhkhE2PUwPLKq6LhM7mpYhqwluKBB7IpZdtQKTEIRzBAcfGZtrP8A5HuYzYOj0v8AaQj2I/rNW9ElIIlxuGACBcILasx4bSsfY5wqz8lrjIVM2aSXIrFWVFq9vCKSyVzxdZuBsgnsybiKcwvZWfablCFsQohTTyBnfKvUt5PJADiNUfKFio+MuUYFiXWfqCrTPRLO4KBcIroKDkywcw+5tuUIXEtZYARqY4hXxUBiHxH4iITkQ8oHqDAqfCfCGoCkQ9SkDxPxE6zAQlcB/CoUEumoPiZi4uLKKryWS0peMUIBa6WYoPsNzoM8jO2FQSGOz7mqf33AH5qLMImoUfWVwSuoHV4WnLOwnpEBREtPvPpFIXFb/Jn2TTGEaUjBOYePsH2W+hEmVlBUMC4NQqod7l65Cd4iNTWJc7Z6j0MR7Zf2DrbMi2Nu5bplRlmdZlfYh7YSuWVuWQCVME+cwMysSsz6gMU+EPCAFArKeTHkczVcDLkqptjw8ENHOTgS8BwMMNXLpl8tvEGXA8aY8aTTEmXANw4FRglcDmS6yihUYSlEvnPKjGDh4BcpNB+ARlcl0hCzKLVBmIgEaQTHB/hIrL4atFZxcZYEGGESCgfQLqYuFMDvJAUKU3GggJjlJKT4grwikUaEuXwMcbQGJ1LJ2jCVkQqbI8edSsWYTqcm38I4GEWGS4hvgcIMl7RYZcuMkWx7ERUdQ0lk0S5eYtxsZNqCkRKQKhbFRQprrLIYTGq1KGnCyM0hqLB4HgRFy8xYGEYGPEOCocKxrctLXkclJa9xYgmUI/SYEuELKUchqSUhWY2NRmMFdr/aiKYhlLY7GNpLAgIOcUS4xCwc1tz0g6nyVVy9PBDIvha38Iz/AAdac7WLLPZVCCQT3iaWFGUdxjlPtzBNxuj4S9oQTvKJYpQilUPjxhMTiBTuwvJATSGdwxGs5incF3D3RpoZggQoIUiKEW9sYUwlFsTSXcJUDjMVKNCYDMLIikrERVHMrbiB3D2l6Nyj3PtHfMKtw9pm3KBuNG5kq59oJtj7wshqZj7RI4YmoYZZe7gDuVOYUb/gHpLGClYk6lc2QbS/axBpx+UARbu5WCiQAJSV8Zuwz5U/EuCBRb3Bbkl1w3ylViXqk/EWrHIO7K9xp5n1hAU2jBmWgBmAFFxCblTuAAkrjm3WVCA3UwAT0I+ESDiHsEx4QPBK0xEeQDyHLm/XO+EegNh4Ci6CmrfpHjiPCOiPAlIpX11EFZ3PGIwH5BbYmy5YS5ZzXGrLLlN3EVAKzKT9yogWKTBKyUUOKnSyIYWY4wyELJuAVDGVPjxBmHhHzgExMGoeMAVxOKR0sfCHSWR8ohWoFOJR5wCuJTyJ8lkBaDBbAXKtqUS9JR5KFOw/2IBbYyn4Qn0mKmAyRWofkqyq8iRNMoo4wjX+0eiJLhdjDiXGrTTBcOnqJdgxM2GEOhwMYigQpGZhVPrGoqqYxHMdJClGjqORaWekI10mBcD2LP6iRLAJGjRGQMMxDVmGx0kaCdXAEQQqZWHj/wAhNvaIGsywy6RTKobZB7d9EY1fIwYMtwluUeruAWMsl9STWsWDFNylw4BEVlhc3xXOyd4cYVGm5TVxYigRCglkT+iWI7Alf95ZMlEqYVosf3DNopuUy9ssIJBqZEpjISmFDubUIIhwYMmDZCxXkhkuGsOw7JcFksIbgx4rYEmD2EBEseQmQMJlzwksqILfGUTguv1hquQPRYc/kD9yR+MpHJX/ALGiswpE0WQR6Sb0w1EsM3/ATICsnyA6UBGMuDpgCa1tl4XdQc7Ogl1KkP8AjDkXOiFmaMMZuKvLUqTT0ilrtYl9VWf9LjKLpuHmae/kWk4oviTOmVNe3UoQNbygGoWgSvq2IQGQ6/SJApYR8B/6YfSW/wBInlb/ALH6FMJb1GLhUwvPKL/cqjsko2posYDQCxRekQ8a00QPSryIGsg3B02sSC+ZV1AO0gkRFwKghR2DCJhWAbYft0+MMqiRuRwD5FbAwbe0kdKEImVhBbUcfGKQJ0Tv4lPjKMsVBUC3LGrKZGka+BK9DdZqACkUAg63LWTCg/jpN3gqaEOrRZJkxg5Y2+ksQp1N3lJlsSk9iu+5e/yWdsgpOwEARkQEzCKCkRIWWbXca+6SwIx1G53D/IsE8ohW+m6ZgQ2QY4dny5SU4dJDrouEN3ALuQEpTsDFrwJi3sOPyzAV4V/cJjeiXFBWP2RUr1/5xiRtwigCtPZeBp/1HRC2vgkppyVhtycP0h/uQiH9A/SMoxC+Cp5zj9ZdAUn+xdvNMMe+2+7iWPIxetGfyBhRVQXaZXX4RZDNjFkpRh+zfK+fkRdHCfsVJpRz4x1riUio1dQqNxszDKMhVVAwaBghNULT7G0G7bt5A1dfr2GMyHkO8gr+NxiWbulwScC1+uJUdQvDCllqtEKhv2Mol3qquGh0I/3CYT59ENK0E+JMWtqJlJhpqd6KzKYChZhDqGIQyJwajMZ87IwBgAr5LFFJmUgwCKZjA3eDJ7gWlEByphBAErueASoywIKqDVcVItdsFBJVJdxFVMYLe5uxAPJXiI0fxPLpmZH4ixWGIF31Kb5tECOSriWuioC2A6YuxuW4sy+6waiRwFtAuzYTq5YSrYIrCjMNy8/SXxh8ZQS0th2zgpxhdEliWhl6JTzAolUMcC40CoYZ4bCJDNWFj98SxFhTAq8lRDGSVuKT7qGSRoQkLqGpKRvgZrDrNmYirVRMdRAvcKq0GCYsmyYNS+SZncpZEoB+QTg5h6xwXYQHUUH2XbKKYIgU2VNxMmENlHQZOUioLqCIalCZ5mR58NTGVgiBoMWRDqNuoAgR8p8IA8Sw4leJR5DnKPJiOghqVHbEbyXmFmXYCfMglguCPKGQ4PEgzmJluNziszETSX9lcQQLg5myYEJcZmVA5eGOohcaqErRMwjUYFcdy1R4cLJZxuOlBuSYYGZcsimZDRM8bOKgwmhzfmKVrirKqoKSHDmWJbvitIS45B4lzJLvgwwGCZlcSuNuWQwFsR1EikSpUvaDw1IzihB9JWJa5wTrMRwwoCWQuwBs3LlEMtcZuYjgl6/IPDktOHhEqDUqOErE7Qg1FYly5smGUYGdYEODk4cLk4VQ9HIHgWRDCwjLl3N4PgYksg5cNkRDQKFMRMIXcuMsMViDERE3cr7B4dIJUGLHvgRidZAVDKLDHBDwXxsmhBeYS5/7cXFwzZxjUtSF8D/KIbTvyE1o0/3mZXGpgTU/YXRzoxmI8ZZAdsRfMAGZ9oekANXFT6yvsxIwK5mGEDFK3pn4mNVL8IumHR4MWaipxKuovWWVzElQJG7QhcP43NQsMMwmBwQvwubIUmNzAoSjuJcS6EslI7JUIi9xl1AvSU7iRmIohAezDeablXuH7MZmJDcCwzMRB3HtSiYQr3McfaCuKQgblhXCrcd1kq9wOTD2lbllAwfbC+IGUg8FJQoDxlb0zXh3Me8/aXDanYYEza3Cs4l+JfQIN5BSypDtqw/pnzQ0HMIjsYaoW7QktUIjll+4rW2OEjquVJawaRp1DygWlT5yjyVYwCmJU1KHUFtiOAxOpsJoIDsjLShSI8LGbZEGhcBVvUMXAENyITHK8lYH7LHcVTmCozBncLtxOzLEVjcwXcxOYSwdzAzA0ZjfuYoCXcp7PpEoE/aNUoO+Ni3KTCS4hIAaigY7HgCo9ZPnK+oEHnMepZbOHMos2QgYlbJLDUqDiI6nwgvii1GjDwIF1BahF5TC0mLruYhXlQEFpKj8nUTUBlJRaruIyZW9OKgyg18iA3WZ9VGQs5LT9gYlRZo/sA9iqtwEkncXEJ3pQ/2DGXgYSPy5sxDUUMh1FAtgjCUv2UojRFwrdEvTiVl/sKYFlq3EItUTMq5smMuoB2GG2gIIvBFl+2hcBHiGEVcH8lqOTH+QBtvKHRDUBZAgH83jLK4f4CUgRYuUWGalzRwKYWMi4seDETEdRNTPFDiuOFhLaYMEtLgJuqLBwksjc07gWBWity44D53AMmJnreYticENUqTIAF7YLkZ+FYzKjogwQc8hhlAXMPSLeeptraCR9wsSAlWy8F0R01oslzEvRXsNEY6/qZf24G7T+dlhe1ZjYn1/JdURbdUjVFGw+JHqaLS9g6cGVHVgcoMdLTvxBX5VI9GAk0JqXAbZ2gYgMLLQZ6NzeWGigJY4DKAN2FMop1RmOFKHo7mblYxM4GjtuXEQrkfuomB/YsIh3DLtojsAU4tjnRBq5IEqV5CpZkMlfZZFrCBqhGNuszQq1D2TNGpVEW5TKJq/wh6xORRB9hCWW1/cwPb3tlHcp/BL4vhZoZcOHxcdVNJc6Z3l4lkosXxrNIcYpBhGOXZCBXgRQMxcCLqLalwIVwZlTECnSMXMYvkMQq5iKs2oJQPA/wAlNYVP9jIUA+twj24/1GBtooeJHELr/wCy1S4bloPd+EM5efiIhShNrjF9aJVLe42QyU6PpE4cYCOxZy40OCxpNwYZ9I3Us1fGERMlSoZtKamPFoesFao/6wWfWEshu1H9i2DIV7K4OF6Gtw3rSply0jAlJSYIQZu4JjlP6YjBBb0Ql+W18tmEWAQpWHs/m5gyYWmxYftRASFN1Nk0Mu2IKPTcYNF2ptKt3KHBcAXCyXgyrhQyEMNl34Et3Yi+mAGKsQdIbHOyFTMzSTolJWwBaKTYpPuTjNTlEdKAleKP+inwhDkzz1MxlCTruVqUgiyqYLh0gJVgINspEcdQ0wi8yU8ZeZiagPGeJn4Y26ZpqUumKKgVZUcEftL+RVJBO0vd5gi8KuIP1FY4hMODD1K5s7Ix67ltYWcEtGoDsIhVRUNBK6jhUsFeVKUimGPQaBlmEGWLbusTpxUTIJ+EZsq6hpqHRlWGmVHY0Qlls4yzBHUybRwLU6ZzLvMO2Ove52Ww+7RkZUTUCZ+iMgJILRleKJVpBgsAI0jaLuodGICtSvkBTiDWYZljM+tedpT3EA/qEEFrxGZYYN4GLqpXkriupUaQEqNx2v3g4Dvi4o4JjmG0Y1NSVZTABQR1MOWYy5ccyoEaTXj4QqCVDs6YGcp5O+IFah+SosypjyUhwQJWw6USG3GvJYM1JYgsuHVWCDGc+U/rFRe+KthCQcQSNqmJiKlYIbyGz3wDkFtYJf7G0uxgRumGyBCpWfD0rsD5eY2C2HJFiDLgcoj3APotaZUuUuS0wJhVTdTBRyEivEEZNS6lUzKJdS7iM/sJbxrxXG+a5bcTXCycY1iEJU1hiWXUQBfkuKTfAwlH8Xv+pSoMWf8AtGFXEGTqXLtjN0VOYBdy2ZOXw8EOFiducx4YypcFNahm4hPY0wb1AlQ8m1pm7jJ2GXSRFEfFupWdcf8AZWZGYJkgNIlS8mYrBIqDQjJ6cY62R3PzOCBitvREqgCKBWIFAMxMmwB+lx2AAx4oL8J6QQGyyRM+dfTLeW7UId0xuZjayGoXTETKvUS7aUwxD/8AAwojZRlIMEqGXKsl+Gwl58Fv0YVajSuZIOWZ4M4YHFhW+MRigLZYbGK9i8kQRElD3YtmGOiVHUqGyCikwfJVJe50hDckALZQXcG/1wVxDluRAwYgrbEdMzVNlKcLOlCH6lZhC5fAWXLPw4UXcC+ZhwDFyzJZCLEifY+0Q5TsMMFSmNDUohEEe5WrUtAOCKViFDiOdQ7iFyCQ8Y3GJholy4MOfNkWXLlcWxAXGdsIjClzdEmCScdwcK1UShSaeYmaAj2QL+gW+iH5dMwgcBUTsBBF1EwQQSiz2scaKuPiSG7IlXn2WwLbfoYa1R5EqIymeoO7FA9hVQGM9kqaKAJT/QBsqLsIL6JRHSo+pWU2C8RkUSzVkoqBBmG36AjVBhOR/RVKqKAysVO4D2U1YHsv7GD6x6uFltj9hLZtEc9QT8ss5RsLK/7QWSFqFI6IhiBKj6jNG2Ddwdah/Qhd41uZcgdrwzosbqzOmruPXcB6Y6LSkkCVyhIkQRKIbYxV4xKigli6qJVVcr5n9JbTZOpSJ2iu9oXggqqDFbiClyt3aA3bBytBglTcLI8EiIQfLnmQCanvB4xANECA8gAMR6/IREwcFiUATFzelcbQRdzZH/A/yj01wr3EolRvhDoDMMIr0RGmZXVle454ow0YkNzeU8K6gKVCBTco/T/E6zmlBPZtwAyw7mZluUs7USlS8S7v/ZiVN0OGIbcGAX0yy7jltmO81D2IPsAqsRAIoSuJ2cEJTcYjbQwK0xF7mVYwkvrN7U8cWtX+oNUDEq8EfAjqpAsAyQlUOtQgNRaWlrKxO0qKInRmDyjDOUwQQLnllPA1KUlzsaPViC8qym48RAWpBl3/AFgXLZdr7+EHF+2U00GWC9Mye5kiw8sxSUiYEM5bBfo8Qtw8vyJpcWCMvX5FlxxgIPG3DCJuCFx0+E5OCuG+BUQ/gKfhDif7LCWOmXNECJvMwwg3EW+nbqM6D+TDHQhQlQYZmIAvgYcFnhI4tcKgohGDIvZCc4YV9IkggXRAlbxmZX9XGdbJeK4BGRaJgFUouYExEwR6QMFBeAWjW5cR76Gp8YoMyqGpGZ9iC7oW/hK5GhGecMslpvb+SttEAP43AlQELid0BaxJWDZAI77ek6IroJ6S5DdvCFbCE1CBadEaiyeogLSdQMA9ZdALWHspD2SrDocAsf8AdC0kpqKittCmreo0uU2NEJcwCTpaqN0y4qDXiGrZA+vsy7VI54KI3mFVJskOK3EzMLK4gmTtrohcCpQMRpeglu9ay11DpPaZP64B5/2LMtA0LWJ6Yu2zhhdApLGGLg204HFo4vEUI9lnsY5oF7n2gXzxXxUP4dRMM1ea2Q6im9swe4Kl1HFjCLWBjPigCdd4uWAu3H5EQeDB0uoB5lx2UQEsbWXf4jZcMCVE3AIpBdIxIOBPxGHxmXNwi/0QI7lK9j/wgpLlUl1i606mKyrcU6mRq3qXylGSEDGYrbma0xVEoED1E4uTKWAgNWdy6HQn9IdCQP2FXepdbzBlRyn9IRLTVzKnYqpWHeUYwWPDLkAEYJcbZNywnSg+ZgBzaREEXfymVCNL+jKLtmgxLlsvhCkAHYAIMuprPcrmFrfVYXIWB/ZKQ9tYuyK1UsFEV2iyVoCpbkCN6qMbRq4oVSDfcuXkEMAEhKnddQSXK1K+UJ7EmPklmNXApvS4SAvloIfDFEtWswYNsxMRYpfrIp1kqLIXhi4S7G4R5VsMxhFI15wD0wqo5mSg2HsV7P8Atc1AuL8peEdYpdvUNHKqr1YwFrEHq4ZXuXVsokYk44uxtAUSO1FZaywWC+OuVmxhJsjUgfUs6hnMTCH8Lly46hFz6QMLEpGC9I9LIRIuCQWcJMTKL+pnkNZjiLdYRv7EdXWz0lcaC0WlFSrlLFmERROJUhENoUK9kyWzjYXL3L6+XLFKshSawuJa6O6koQr0juahUudAUIc01mVlNkwTouyt+Syg2GWd4TIRG0bGUFv0lHWpTFtZWP8AYo2HY5SNpOAkFCZKCYNUMxliVE+MJdXBGUMQ2RVaTZa2R81hUqDVbJ1nsJYU1G4guyrJSM29z1ZEFKMOzCkgajAiZIW3YVspb3FNrbLUW4Y2NsoHUGPkMSuZfVFhlBsbE2QYRfZcHVtwJQD8g3DJA0HWK0zSShI+kChhPhDwiFM1lHkpmXaI3qahxDUrE6l/98EKara/hBQoFHBuRKo2QLhGdQJp+pemOELE0eO5pcE2zVD+F/w6YS58oeEKCGoQCGTAWlPIAhA1BmomIRFso8JR5CWYgFRPCVvErQSFSoCF+ENSkZRqMp4oXcbbMeHDN2VFeJ8RI4GZiDUuU2ndQ4AyCr3AzExMBnUTEd3zndNDk5fv8KMxBnFRlrGIg7GMFDqC2vWDH/1MsCTJSqR4xr5O42RBUCMu5Sn9gnDWy2YlbTOTVRRhe8KE/wCmIxBi4lxwy8XgjpfwVEYc0RqPI/hZ/wACaiYjqBwcXURbBJcwphqWwSPfGDHkgwRiKSEUgPJlMJ/IxkLEuWtR1C7bl0zOCpBMaRiODHH9Y4ZceLAIPI1P7CGf8XGeJocal36wrkXKT/i4i8SyuCWC1iZOElyRNJjA3udpLw7WVFOLg4JKW4ekIv2BbZfolK3gg5uWciKK4ICP0h5M0NhVq0cdo+xuZ0vGpsYoRoot6l+ZbDUvxx7EdD+JxUXg3mZUzJonUWXUgjYisSNL+xUYgyWwbEoz3E0T9RaJchZ3MShjpZlK1xsqAgBx0jLVEUSkCS48wDworPEFbI0OYimY+kS3DMzYOJVCVmBNxDTuBvcNf7E+2Gy2XqVgM4YF6JSMRttF+2KOVzMEGZ/D70wwbNS6KJejHIW6j+Ib5ERdwF2SxGAPFwvqWNot40q6izlQe7QG4q5Z2gChVExeZDew8mMzMiBSmAipKoRgROoeaLAYFJUgCUqRCFTo+yzy/kMfSTu+8KaDT4y6Kk1NMOA5DGDCEOKh/Fswi+IThBr8g8VHbMpg7dRK5YF3K0jJmOvDKC3FquCgklAiySEYrsQ6yz0sw7T5Ut7Yj1gfWUGyrqHoz7MDi5Qu2NUuiGSlINag7DCazutwPqPYS6mExKHEFpDQhTMfKUhYHWFDBGtRHslPCB8meR3KeQIYBMsvnSBmIlnH/ZL4xz8dEKKHGXzMjTGjLghKQnBshqA3J16sTcGGZkvE6bjQVlSuBVWTo8j0tDd9ReskbM06CAslxAfwQy9KgsEwGGIZqhZTqEVWBUXhJ0QbwEpdA9TEQG6uI8oqogEtq2KAsU3McUoobmI95QhEyJ3NP1Bg/wDjUsDi5oyhqxFYPGmXiav/ALEUDLzOIH6Bf5Mw3sjQZUIarojsRKXhKmEcERRbrjUl9iNYn78EuFPBAMgbx6hiHf0pY7uHwCNS7bEwDAHrDxB+jK/BEXLEmMTCDufSwgolS/YxBp32eM3MTfvD/wDUkETCHGD4r0o+yiOsT0+TONGHbF9pTSbINHvArdYD6w/fGHUNuiMW2y+khVQ1v0VMuBDPUoXaIVJS0G2LkXQrcMsCotE9Xq4p6DY+IYpVTUqHKDCGvCTEKFWEvTVal5Mk9LluWrDEqxdIkAq2qA+sdaZi5ZJFB7Uqaoh/qXXYEK0VCsbpYO4pCVbYQcAV8IyZMy/dKjPAmD5Ao7IQKC1uDyFHyptOmnwIOkJB/CIw5UiFCxJioH+kjQ21LBaBZ/VRWrVFRozIWnQQPWFl/IhGb1Lz6NT12NR+jCpi9zBXhJpjJUsrZD2gXQ9p9osU9hrgl8MCVzkpR0wMpvU7TjBb9Ia35X/JUDlAo03PIxN0QtkyLYMFi8PkJtGkwgMs2Zho9ogstq/qY7ybijEQtirS5ghvIsAgKl8/CN4JSJgTN5tIHE5B7hCFLKNsL7UuLnlYvyID5H9QMms6JVQTJPe5GLii8KODoTAisJ9E4+nGFwgc92V1DsDKjCPsCXDpVpdhXF/JcCYZq3uLJvbhuDCPwicTLGFwL/ZRmEVn3crR0D+yeUSj+4TJOxvDGJV+AwXBaKZUGz0bmewCq0DEwAFQ9UgWgMiSx2RmBEAzF4TL+kXHWlMB/SZKbJWoDhiF3xruMFAG6I6AbMP7IcvlKncADRKn7LmA2DNxft6dkNFv5BZILM7R2Y2T8hCmIDogWYd1BNkfdQLuKQQ4ezeMlwehRMKjIzF0lrKWHpzFZPchDiwTvcdG4ydoUjw4ZXHl2y/jd0xD2svcZG2Pjthne1/c+Uz3UKxagXUPJM1Iah/DqHDwaYNi62WvbchAGGW4onSMwGLIKVAGlj7imjMfFKhLJosrjQASwwj+oXrVKMspPadkSltYnTlVcBtCYZVAHwR8Z7pBAK6X9g0qky1DQtLCRGItFsxDt9hHKDiKUl9NyowG34GD1Cp/aJZe1GLwsvVxgoht2+xblYFUNRUOkFCKWCUfkAWD5QEOGSmL/wDQjYkjHileRD8zIhVXA7oRCZS1jO+kDzgLsjwKmRqCODAyNFg2SyGeVwCfWKiWy/Xt7hU1tdRi1RqbJQJXrgq/2zb4Dcp1hCSi9MyEoMrAOsf/ACCpOeLdQDKNp3PnCJ2qKaoeaAagJPgRSDQuoTzKKWERcoOR7UFwLNMAqdJCFMsFRO4ukSJ7gyiVjmDMTB/XhRErjs4KS5q37EzuLgxKKNx/4iEEaCBKgy/YEqf9v8XXAf4YhG1oEBpYFZgXb4jVBifCV4hBAPJR5MeSxhLimDl1pr6jnluA0QmUqpTuCgGsBm6GIPfGYA0BFYQ8gsUELlIMoqEcSQ6bt+4gGGiCliWso/tOjgcM1xGBandQLBv/AFDOznMGZmEFpM8HI+86Mwgs/wCSZjhGKyqZaLqIDIJYzXdAeGrHx1DL6Ax51nEycjioQgJWnp8jSyYV3UAPTMaCSh3MEkqY0q04VJWgoaC4W0tjJRGepDIkV/sIuAG2dDo35RULYBtlsGm4yrnUoSb4GoRDH2N+IFq2ZpmnnKscsB+8S2o4VDzfsBLjVPyVHTO4EtZqlcDP75f+3BCXKlQ1zfBmHOeTxLUQ4GcvkOITplc8gQuFTZwd8DOUSoDENTqBKUwj1CyUAnRxUsuXpMmYMvnO4ZlQchtyl0xcC0ioSg/CeKCggLM9mzypdtW/rUBkaYdwJSAqvkJRuaPVDLoLYTtfsWrnv+oHHyQL2r1ECfYWUrMB6sdw9+qBqgm1gLl6zMQiMMDjHSrGK+VrUCFQlPYB4l9CMDBDE8WCfjDIpKHSncUgwQ9GDWyp19iSyuvgRl6y/CU9jENNxcKgE0i4kDBcH3BoE8pmrMSdMFGHcLhtLpvGqWBq+YTk91304h4kxOIKdSpE7IbOYnv+Supj+IceJL4eI8Wn8B3B4aILcViC5cWOk4WRRRFblkGnmX6n9ksApA9mLZCrZEBtrMGx9pcrJ8E+KPGK4g9YFNon1hNYVzNHzZ60MAzPkwPqBaSuwLmsAmggUSGVLBcJFgd1Q9MIkDoRoPhA1utIyTF4pX2WHSYdYn4zQAhvaXshBkgSqJWLGqiYNPvUFFQd0HZIUI2Zwa2qOcoF/shqU4mX5BlAOiNDvQRPYTdnEA/cKNL55kuCu4dAnzS2oahRaSg6IVeoFFP6lQ4/UrXCYYKf7wR1/OCaZmkqYOKopM/4dkvjM3x1xtwYz6mSUu4D3DRzDWKlXWKspha5y8LCmhWosGJWNViRlS0orKX9TETPuU9Ro2wEu2Hqz7spjHenCHWUhqHGmeEqgkp0B6Q7RBVSKhpAtpPgQ0Qgggf1x/UGUJWGSv4na/s/OG/6Jq42ylMoGITb98VDlBcgr+GqCuHqDKPsHBIrEOjGrnY8y/YBjlQpB/rwogWfkMsTs/gKbw1wsplzX/ji8cWhCOmLfDEN85wnHUNcXMnESRIlGY4pSv8ACJqEAkiJn7IywBpOxmL4J1/YQI1TNJcYQ5nUzctSdzEZ/ZL4KFvB2lKy6gsGBCHX7wRRH8mnMJcMQGXEX+pcudvyLA+S+KVd1xia194WUt+RyvOeBhpLgL/crMJS0wkA2E+hO5uzEZs/sVGN/VFg8iVlcaV8yhPtAtmANx4QaIBydRF04RgGBhmPFEDKLpn5i8Dm+LzHm4TZM4I8THGya1L4dYRZsmhCEM2P+Q/5sNonGp+wcTMuIphLi1DOX6zJjwt4UCOTFjBG4XHKjK8EzIZbKiHUxMJiXESytyvFp7MUB2J8Ew6TLQR8MzwNtaicCl3HJbuFN3LemOAXUFSmJdJn1zZlBe4U24zVaMOyMV5xWxoR1UFRaS5VzCb9EqsZ+4A3F1O9amTefvLSgU7QPagB/UNlx1xJTLSA9T5QF8dT5JVBYqHhKRsQWv2HAKcV/C5fDxpEWGVMEiEgE85WtMEufKV9TIqZ+WU7UcUvGKWlkKkT+zvGaZbWKdqX9xkyiGCPCSca8YKcw9RPihi4I45CACDAPyZdIMq2kAkY3bMB0tSVx9MDFkQ98EquZ9E0qShnuFidPSUds3hixWZjlViYqU9MIABR3xA46QiLIWYNIp0gCKaxPmgRgQUKuyAVqZiFpo5NuRX9+c1idaU44CARIUeNQ/5T/n5MaiTf9QJ3wDjKnkF/hA4OCBwkpDCIIfnF8keBl8XcosITHkOGCURkAMyBlLeVkYLXFqjag1FjiLZfArEGUs0Fyg9kAlTOAVxozAfyzQw7gzEotDQlTrENz5NQ3Lp/SFwYx8KhhXw1DYHslLOoLlUtcVk/IBcrMvq6S57MU/kJN4lTCGKhUN/24qGnNUxCJmSybQNYjP8Amlv6ZqXw7rgh+vDN0qheGGGqF8dZocaMMXLCL/xLhyQYy4RhqYOXHqaQqM+osUsIDZXkeQGuy3wWosGTtnfWGiNovsbqVhmkMBcR8moYXN6gxCfm1pmOWVEXBe4iDQFr4EcRQfBC9ykCu21w3Gb/AKmyETEUCXFzDf8AOHcIB9hiZgzBTrhq8GDHBonc6ZSDha3i2XjgDgzBmJXX157EVKlsB0lQjdMXOjcOJZPVJiTtxkc0ijDDwJRVtl4zmEkEC9pnpTA2i1yhKkz654y78YCLeky2J/SfhDdcqkAQ9IXZgbNGvjL1l3MO0Mto0HLDbWz7SkAM/hZGoS8RRhM8bJ1/AB66MYRxpIRroThhm1QcajnUyhQGCVDWimXirmOT3Duqf1QqEmegxkxNZh+d1tRTq3OhgbWPYVO1EzDjMegqW0qBSfkc7UX4nE+swKZXRHRcacxSZn0nkwDbqL+ytw6h1KVcQr4xi6bL1d/yCzgiqWwYM5hwpuawsKx/Yd1JfnFXA3L6f6TLqBUhapkkV1hRkJT1/lLdh/UPHGa9vUuKx/qa7dfhG6X/AMgOCEvKktulIUM/9pQNrGC1lL3C+FVUKCHyT+3cJ8UQWGpcKQDxAPODR5AldHFTDF1HifOMzGW3gV+kJcGczlUFjpOKjr+8vEubIbFwQl55BHh5OSDo8S97Rq3Bu0XovCMg/wBmIt8SvrA9h4Agqyn2EEQO8gNAJPSFVBA6I8YET4gRof1IMf1hHoJSZXGtNQwonyleCB4hKlHkyajgzDqELCUINMws2Ztl7i/ynktgZvQ8LZbP7wMf+6ZhxQhCUH+sGpsjVu4ohiYBfHBEwzTwRf4kvh1/aHXC5QcKYZ46dw5/cqM2/kEEDnVmYuKi+xITbKcHUzww1GC3985EXER/wrgzHGYrwQ4Q4cw4KrjrztiscGJvjBm8HFG4+AxP+JiuCQSjjR/Zbw8FTIgURogzZhMeS19QSDwuiExcWP1zQiFFlo1IQllfrNRY8GMRn+4UEJpGBJiGJoPk3xr+oTEGJakqZIbZiXHgtZi5iwqWTUZXCPoMpWyHzz6T7xrnTKWmP0j2ZhQNz7pTxlaaZfpy6X0SyhOdmg9I+uZNcN7Xk4P5ipHDDAWDKjgw40Y7HOLuEGaEtisvEeGOuNGKVBqLKJoZczc3/XJS/uDMTYMsE27hWrjAfU+pPmlbY8afDOrQpWSHj4wrybiLmBNSjb1BHv8AyVORl8B/iAq4DH/4YdEHD7McDKCveNZVqJ6U7ZTFzeYMvxmj4S4wRR6jE6m/JdSrVgh0mU19x7Y2ISrnGpnFrJ72mHtEVdpU7YHvcYX0QhyqYliB4hNEp0ieIdGIXKtlTgaomOG3BjqbQGMNHLv4QgMxXj/+ZNiDraWXCi62gHFiF/AhNbGMcKyAmbrc0YHzANhB6S5fkjwFpsgOKSuwngR1ip2C4s3x9Zzigm9OXQ7n1TKf7FvIZivUFO+uD5CAtibwsQ1lgEl8MYTE+cV69wcw+HxHY/YU6SmxDwQAqkDVCFGtJV1lPCFbg3K+EoOpZOsx4muDmFXA1n2ldXEajg/ktvXDSfMcKmDkUtKbhif+0rM7QFOZWLldsyliK3krERMNJm4iUFaajwo9jAGGOQohs7jl3B5guLm0hFE62bRtGSlky3dgJ/0/zJfNTrNOKxGpvpmQuCEWeCUfJn14xlllnUUC2XcNOaFCTBUsS0pRpiJ6V+iLZqLUJuXOOtA2pGHKDBKwXF4Rq7ir4uF4TsCmF36r/GY5c3EIgB3BGbImDJGoe8iDRYLQhD0DofsKwwZ77ghH2O3cu+CMMMR/dxdbLijKh3xkEAHBkItDeRElMSBkbmX4S04vf9J6OIqi09SsihH7KEWBE9LuYckuMAdCDWu3BoMdiDZUuCKo0YqktLCVE9irW0zB1EAyVDa3dktM0P8AZEcZjRt4MRkE0iDbLzZLLqwTeoOG45S532A5hRR1ZnUyrFvjBsPeCd/wriubUiscZlWGXVktuJZWIlhlTkmDBVbY1ShomC2aP5BrZeduiEVqIG07S5QhGwqTwkIKqb7kT9SEfkPawmHsRq6BJmLXmsxBSXVl/wBRsxoPQRRxtbgQsx1LdRPrkG8WNkK0XCLP01/iATyi+FtAvCmJclWErS+eTCccjtlahgcT1MOw2kwe6lFtJU9NbP8AIs/uDCDOorXcA3sxYW5nm7jTLGbcRyjiDbMdZRKoW/lCbtqIRBHsULFRKEpO66lPWfKRjA3ZAWo+0QWAjC8lw7hDqDFIH8iTaXEZ6FIAX/EXHAbO4UuRDeBCDZ/EhQn9JTjJ+kLJTFshFuiYq0PFlzNEtvTUadqFe3UWCRMCNfCAqXqCodZKl3h0qzNNon1hjbi1EJmtLAjKIm2UmMppM0MOo98UIZRTSHUo5SFUIFfUJi+Qhjhg85yilxT2X6gFsxP5yqu7l5wT+qVUzTHFg2/ocMYZ1RbzBAdJfIsKziHOFtju42dqh7q2w9Ii4lHYjIdwYWEdI1MlXSR1mDAQDuaC9WI7aojglK8xTLmWXAEJVkFNAo7f2FO6Qf7mJIVgGwiUJ+hMciRrBylsVSr3aQ9AmsynFOo7qO0kU3BDpDLOY02FV7YSAUhRpFjIm2xHD23mPBJZLZlCtAoKneG/IqYp9qDWasWmAERMSbJXMxAZaYdspIuWH/7hwBpZqpTqdRoREoMCaRYM01DsrAV1ipghh0X+SxAuDsCPxFxQg36KARQqpUVLr2AOuYqVcGHMNmbSoVHcThV/TkP6cP8Ajycs1U7j46m7gglQ7/YRgkkCGTRKl4ZTB2n+Fwv+FcVGX4QWlnUoxqFgoZ4iUtQVYJ8SJOBCfqgDqUnISrBAK0Sjom+YsCpdaYMiU3KCfZsI5MkGI2peoy+WIMMIOOD/ANQncrN1UYmIcfqBKjpgw5rCcmsHfFhFnc1fkAmp/s4Fxw7lxFH5FQZi4gaWC0/ZkYErOGURYfss4paYmLEYWdRlJ64Fw/4Y3Aj/ANYQis4zZMkQYQxEgr9OKiYfkMsqocEJj2IBDux7/JZcuDzvjw4HhcJSLUQl/wAHUXgTJYik4vKCRSL/ALJRCLNkWH9jVkd4mN/OTcmoRisc98GJdf0jVmeLAq74zExAZx+cAwnRClZdTPd7n6zqf8k7hCH5C11rgDEEOKgby1JljkqCm/WZYVMXVi/angJUF9w80o2IhYQ4sQ40HLBoMRrbHqDiH3JS8f5zUrHcwQ/WpaoW6RGcL2wjPHFapcvwl+aQHKqmhqJXZAOkQaM8UnMHxM1igu3Kw+ofTH6YQs9TA0fwvmv4jKHCc3BqE2zVy+Bon/tDDjJRkiE2i1Gk/sjO0xGSXGkc2EJdiONokSbQRoNUhXpKGFATXkzBhZj0wDI7iDgj/wDhRwIYEDcHw0VAlklztL6zi424cxeYf/8AcFXjNEbl44S84YrBuaxQDNoLrTUSNEo6zLdYcCrecTCX/wAwokpquLogsLkuFwZf/wBGIx/6Q6zt7Mnr9h4xR+Ep6hXpBKUzAjVnwxPAjdEr4QfCYJJ+IOSdAmZ5G7pZP5EDCgMOf1CZgr+XCQEVjPFQR5fsvgV+E08BsDq5alM7DMh/nEb47lHK4ZlaSJ0SBXKRLmSfFDLLemizI+qE2VLjL+4+lDCihU3lJUDKyuBkSGq2pd0xEwSPliE0lMwgTpbiYNJfbBnQifBAaFVBCwKgFaIMtRiYk/SVUal6/Uti+RavJbPwi1bWd0EzMTtdMTyzVsQDbAbGcwbKbqIMiaEu50KOiN6YC2FavNEojzq7gpCsMJwWNejEhRWRDjy/65qOqi/2HFzuxCIS0AZZs/YjCoFyYxtDR+xMkuLhiGMR7CHO64hRWDGcWyYE+RRJVBj/AGixUMxMdSy5Uu4kX0SC1LlSMW8GKdspYeRKi2cxmD2NYQemYyygcXxXBwQqMYYVweTZHhG6NNz/AJBm5fGaIkDa2N0SwEvRIYMmdn9xZPyXLorolFymzDAjQKoBKuMyBLHCYj1O2lAPViTxEI9QAssY31AkLKphAUJXD/yifhUMqAHPvgmvozUNIvyXNoJIAUyoYOAWwssURuowPF0kdxLSnkFsEBnt9lQrDKULSE2pwmRAAEiBC3KCagwGehNs0GbRQYmniIMo5Sxew28LjsUuCaDuA5UrNP1FCwvaj0eAMAmtIX0jFgn4w0fYYocpgZ3Hsdcb3c2cfQjg1WXIf7EAkz5Im3adt3FO4ahbKdWQbMxorNbxK2hoZoNp8qddMcJeeLimGFUWlsXNhUVymbjqhIYFJlCzEPk7hwca5qBATjDgqYWhw6YIpzYVfEFCAndTIYZZn1qIUt8BDcgRNX0/gYU2vCRlbCyFQ6B3hTZS/wDBFmIsBZX3gz4JaoU/4iiYA4PyWa7o/wDWOseA3HKEPTrUMRQaIS+KXUPoTYMrYERabQ/pm8OX4QwjVkcEXIYV6dX6F5gINQhWIyjeqr7UoKEmekgSNLQ6TbD3U72ob37F9QuQhIJ0sVjkjWDONLlqaEsFjaNUBYwoEsNQgEULR6hhtJQQehNn+yoYXcXiXat/UetgDCJQH3BVTe0viF0AEEj1qv0n/wDwYGMinFw6h/sN7/pKmAS2DRTH7F8QytwQUUqhgNVXlQpyWW0pdRox/wAT3kgX3glNEQKkSxqSUkSLbzfsA/8A9IIasp9jymTKvTPaPeDpCFJjOmkRVjEJWO4g0EqqgL8kQZTomh9gYhDnBKnjpvfHZDKoEoOYA/lfPUDguDSlfIfDMQW3NdoX0ou94vuVVgaSmVJl9UspWKzOIvYvkPylDSSgVNKYEzLJQj2qBiLFMXJsBgslhFDhvdyW/VlCMnRbUrZQo1C4ECkS45eH5FZyuqj5e+zAJSS1TijazHRrbb9zJjNhgzODRWWGksf3LhsDdiogD7qqKrMCynAdl0uGWNq/ViTJuSYaBUHcC1AxKZpPmlHiAvA3NDBKL1NOOo9RzNOtOB6y4Mvya7lLfGMUJUAN94qafyKqjqXeargcfpjKJV3vNShKha/BiNQEd4YDXChENx6EePg0laaixHh/9suVKH4T7AZX+2VwICguVw7V9lcOTOuNZ1ZDR/DErk4OKmbkEuDBAxwktbBZ1HUmqBIOaGHmTG18rP7lkCbvyZCXwQNQmC63Fy4LU0wlTGVX3DHFzUtZvmrn/wBoRZ/xcdQebyTolzRhK1xnUGGaZWJ/3yiBB/lCDZOoMIMSzDEOgyogoE9cJom4dSTIwSwaY0OeBUywf7JtCtiUYKS1yy+D7C6OF3DEZ+op/Q4TMKVcTjHmFsIOlw9oj3B/pj9oB0MDlTK+oL1GdMUnkzXBKnf82VhCuYbCEZaMwlOFamS42phmM64O/wBly0do8ccjdly+CthdRyP5E1zCXP8AgOLlo5IPGVyaTNkd8DIyiP8Aygnsum4g2mA2T5phcINsyvrHBjBJfUfDLG5VpBgmrlTv/EohZjyBZVGWmYYlPaZTKEKpwq4IT/3nHdzZXcEd6nqCNhdMwfdH2L8v9iRUD8YKcwdLKxdkyVa8zuTK80lAOXsIb+4VJbdMKsOVJVByit3cypasFO4zBgg8GuoEg7nyQ8EEVATWCVjgidghLNdsqjUqF4/Ocq/SJgnUrn94rh4uMdZZAexUBTMPQnwRguZUaTPpLheIL046KDCAXMOlhKpOZQ0ytFQYGUCkP1i63ibDExbzLVoXulSmvn2dsFQCzK+wU0h8J6y6FKQ9CJ5QEFTESZ3x2GUgS5Le4Ypkf6jhil3vY78lVZrXNxwW4Yf/ALiBbv8A0wAz/sfN/wBhOApSVPoIX+wUEEAvBNxcMxmGkNtAYBYoqkp5LJUHcooq+pWLSaYP6UxIjsiDnBLP9p1MxLcVdkwlYA+Wxs7Kh/tTBeiGDF/hFmj/AMTTMzcoH5KI2GeoJMeaI96sSkexZC1aJc1Sx9wEuaA7iy9aK9CX8l0bOFTiwRl4Z/7Mu+LcVxlX3klkz/A5eDhwAwLEpMSnrgGkkp6cDAUbjVtY/BiGMQAqIxOJRAqGHbx1GUv2Dgi1MsxMCYgrDoQAm9qF0TOOFkIIoQZAD6NTIE0lyhJTtA1nqhMjsxRmMKAO2UoF7rMPd7gU3WGPu7uZwaud2xuYm9AS4v8A/ipX30/9qZ/uRAKAtYYITVJ+DKxKRgQZexhlugCkInAFERCCp9GUf3ZUE1X+Mpf8wP0oqBA6G76CJUCusBjC0QF7PwZd5MNiYGGAUjqCv9Ugw32jSu4lBgHCKyi40ucoXcH0VRgkMhf+T+jP+RV6Kv74FQGYBqDK7uEBcGrlEaGjREu9ebtAiqwDSqMAVXbaTExpmlQAIvQp4NELaETW8wshlrwsaFGG4ldAQIC6UG6L4Cxp1KqZf2gAEXoxbVQAtzKez7ENkT6wgML4IcZ/hRD+Nvil4sZXAVCgEYEZUdBGF4nOxhK2qgHZF2FcKG0VkCBD4sEEcTMYQeAYo0OyxR1DQl9Fg1FIEX0z0WjpCDgHIUkBo5FQunZMI29HFIYMlZ4eCv6JSQkQnZgbm1TX+tQmE4vZjQA6LNQQy6mTzVnpLIPtQhVOkhVAXesbjmejEvJ3HKw6hwlPG0f6SujyT8YS71v+T1/z5eZvmYQXQHKhlE/bdx8sXqXQxKfUO1wBcESpSfSEEgCP0m/9Y9rlMRlB/wARE1YDFesc0FnD2Mth7tWBwHgYQycDkS4tApRcCrIf3DxxkwQv+7pXjCoABztSAgUIpQERtspl1Bq6xMqLAipm0sC2SEiY9ErVTesfwcwRF3LtjolMMO0cxK0tey6Q+4GoQ3L+p7RM2kZ9Im5oeSjafyE0cRpx/SpWccwCi8+2IBe6izvHHaCAXLgn6yhUQq1xvlHYJ01AukBX/A4rjvg/ht8pAoOLWG1dFf4zY8NkBkaehjLe1piRnQhjRQYdaFS4BolGmVg25RfeKi7Qj1TlquJ0IItBuy7nevogJvD8ElgWxPjmXueBhUl2DoGFcdUXH0qXeS6HTB6QYslG/wDwja8CJHwMNIJRgwRS2z8lupOAvKZdM+zv/wDcpap/ssG6v2VYIQSmJJrA2O2LWwT/ACUisV2R0u265Caet7EFS3AtGdEqZi11qOjzcLUUXl7VSHuA4FmKZi1/7wFrWL3C/wD/ACQS7uEOnIMsAcU4whELLXWZ8sPPNN4pKMU/yWHUyQmIAHRMeQFOi2CbXLf1TAXD8gx9vTCkGVcR/wASqm2DQ8y8pUVL8l4ARc1Nv3GMd3yLaRn/AK8VbNkqEZRN4rhyfzkhxZK5eSYxTDJK9EcNkDIrSaoTwVy4VRABYgrMxOWwLkvIotHjEz3+2m27ZzNeD9SsoubszAemXYQnjF/+sKidFx//AFkN1Imwh5IHlMTlFQHk3zVM1LUmX9uLiNW+p3MXM9O4LUIVgePbOzxUP+sah5P+GWlcW5kP6xxFmmVmLaiZ+xlWgSWeTBe7T+t8GJr3Fy5/xy4uYhAvCX7xPsvL4WuXLjX+7GNPOEzXqGXiaYQDcwcKkUBF3P8ArBx3fkuLiz+46ODxK4Stfrkt/SVA4P5PDCHC+zIJXDV5bBLlZVwQrwRMJHjLcEQuWjzw4WcSivJn1FlRCVxhlhenLlDgHxPUM5gkcvsPaUOp2exh0Y0mFCImY0mJcxftiXrgD8oyNFRZKYXO6LF/lxT44V/3l3MrcQs7hYrX5AU8ZcVCP/Of8EupRLZPbmRHDcNwhzi5jQwUCYcgwO7/AOwC3Zc3rqas1MmvGCs7YcRfcrlnUfBiK24xpI26cfcqgyGIYzF2MSL1MdWhuXfAh8kcurqVa7IHsho+p6ccazKgzlvcPSguRYD1hdtiFWg/lcGXxcu2MuKxFgqXgn4nbncm4CBYlESm6J+XGVuMZjK4MWb+whdx54i0QYqKFkGK6mYXqWhRSBM9TFvlRQRXEGLBPSBeVZjVsiKMIrNoblGrMRAUWKlNwELkRuVauIFafkPL/Erf/wCGUFZbC6hmoit0szqv/sadv9i44BXso4H+z0E/Z/8A15jzv7KNTXqVpMztU9ZLXD/IBRGmktDM/oltQGTIqMrViW7kWZve7mUIroxbb+bSn2v2BE6qfKwtMZXqIFrEPI0CBAYpUtLqIXolW1CV+os5IQ2/IVEgVLqBXF/6JS5qxAZoZgP7AqYJV/PhUs8rC6BQJUdSpBxW64PByR4ZceHhCAUxp2lntKbwz9pf3MivPWbL1U6PWOPUJfYJe1QuoQf5BppKxL3Eejw28xtsj6Zd3AdBwfcn7wBm7i2/9JcdxsYYZYk5LQEC0WwsV0M+aNnCpdfIGJ1iAeIM0JWmOoUcAt+sGXM24JP/AEgy5h+Ux/CWwY7V9zy/xLlGDxLwQEJsM1LIpJhqYU+8GpekPAYMV3uW0qoW9ajOLN3ME3P1KgQX+rmuT3hTL+EP/ePGfDbMoseI0SyLDHI8VfjwRhKIMdy+HjuM2zTw3MYDjh/6S1iRv6v6gmGYwLqav2IWFo6sNjHpE5wMrDVD4M4DKk2Yjb6Lpphrh0xcLgZPyJwOMu5fCYYdUCN2QjCF5CJEgTXp3gOX5MC7YC0TYLg0ixdxMiOhzNSL/CXBBmuBvhjj+nCz8GEMEvE/4o4CFSyLJvvi4/6UTcx7xGoF7jq+Sp+EonU/95dRu94nVSyaEqPqMAwupvjwR/YV7Ctb2h7k+aAMmKlbkQm27uPkiHbGtQWsR5ENDUKaWgvU+2PfJunLC0N17BesvyRbQloNQLbKiWWkOhOS3X6cDzUIuJZFl83UVuUrTGHAuiXN/wBQqZYSL9QR1BrHHpMY1YRM8Cl11fhKDkMiWQ6vxBAlAFT6RobrQuo2GYShFv1URHIQcwSdop3+IrDAjj+vFlqnoiJzOex8YssDgIKlzKxNMpw1cXLFjZbyV8FbRAuRBoVVeSnz5mOVjANGAcCUaY8mbRSA7/YloiwLj7EMGSWMzcaHJPqRQtNRPCZixBQvuVYVqfrFVQwAKUWxIEr2C5gb9pcyE1rqYYu1/wBRhWmTuX1/2j2wXKNIMCjED1CYtJc4tw6Qf1KdyIL62RA3S+5OepgLkENoYm2UU3PgwddRgqdypqMl0iARQT5p8UYGtrPgl11FuQSrhki5TXKmZld7wxP6uDLblK/UOKXlCVQuWQ7ev8LJiWw5OGXTGP5QqSytwN1ZLB5IhsQHslIoQUDeQdCy4G4mu4iFS1E8oYw5H4Y3asYZtV/6TB73iwj3Bv6G4CocT51UHzlmSstWqEmhujYMARmwdsHoEvpuU9IHGFGzOW5m203HO6VMPYIsn0tzLix2MqQm0ULJa1VLDU0zUFMPDCqouBG8TbifAiaBCvEo8lwY6TCyo81Us/6Z1Oon8yG52y9V9INEXKbeox3FQosuyVuShC0MW1FlzSNo3qLtOEXqaoGpj3DjnguuXUuzdMAJURR5wtfhGtkU43/UMphH/jLxCPP7jnUNRSrW5sjRdStn7/I5vi5byCZPGVuo+OKguxEMAgC1FytGCUOoU4Imx9l8ANxH7Ms0vS3qNNYftTuXBUcUzLISkLgkdOLBGWh0v1lwC4rX8lwuK/7QFbg7j/wiootwmJ+z8ZdXmJEvgUl3fNkKgy8P5FC4OJl+kJ7OvA44wa8Rlai/kr/Vx747T2PUqp9Oo7LlqQKvnDMeUWEFrM2Zpn98UnfZik3F0dSnsgabisncPBMmkuswJvh0IQeYzGGNkwyo1HWppA9sdc+4WQUVDwRWEL4JdLBNH81l5g1EVLlxh08C+FozMub48IJUGPKWSkduQwlOmMvMThWEfrCDKMTVqXwSs5hRHCLX7BLlkVrnqUCfMov9Iw0zFmmoLzLikW3PUE64LQQPYmK6RrYOZjyYabll3mHmzK4/xMYwDjhVLN6Z7l+mxsbR2XUBQddsPDLgViO0FbqUlzFrLLqdMnxyi3JZsgblv9RjdUNacXqohX4oCW2ZX1lTdxC44Y0wmw8dS/qHmgP2h558EEWCFXELNERCWx24ywFpULl0uNvFHFCRov408MVlxEsIvDAxt/qMN6CJFgzuUXcJIYAS1iCNzHjkDlmDcyUxxR/tPMyigLCkIJK+aQLq/wDTLchf1BNDHstOgdzIMpkONxuMH0A/YpYhDu6LmkFN0EFQCwKChKA1/wAi2G8Bqj2iPMYsbwulH2v9n/8AQly1ek9E76ipZiLq4ZCHwI+KoV0YVsJZ0EBWCVBiAeEzDGjyEOU5T06QHVnq1t+jCy4qB9OyBqDosMoFINBMYio/EuisZ0fUB4Mi+vJt3iZgA+sxiH/eVKzKEhghHX4gK1wRW4QEqY6dRDilj3k8oP8ALhxfEQOacICVNQ+8MQKBqhDm+WdcPNwbMaCWwofJZMoWFbBeynsSC2yxlWEDbN9uXLKIOYu1InqsxHRAooJjFBYSm5Y10QU6Alpqd1ImyLngkEvaXKxql9S4EuLIUuM1TuGOpMsMRBbKKbwFwXgXCqh5AGN056mLDi+KiS3OxgeYX6QaUvyYDB4uUrAascqQx7UTWmT4wQGGw5l5XQ56LqoYMFoNr+E6IwhT+iUM21UOorUyeQgTjrMMgFkOFqEV8i+v2qIu1y/wPYNmgPSUQAMB4B6YMmka2LcKaoTCkDVxJhvaNqzKNEBYQO6swkQVZ01TcPyTS2o7/Ip4rm0sa33/AD6QfqY9TaZ/2wZjEqcKgqX+DKhgjzMg4hvnqXSW8Gf3RB2QHpLDJKfJqPtGx8QILD1lXcu0pe4aaZhUYDxlfUtMHct6h64gmkw/LghElRl8sYPKKewCsRi1WHv7AtE64F0iReFuM1pmNY8najGykg1a8O38iFLJs7jMfIrK9iIRS6RV61L2T0wbnbBBXmvQ6lF0FPIH2HKXY2xCA4Mr/IxWiS2RlKGM1K5TA5oQXeGhUfNVqrtWPFsKNQmbKyvZNHnXVikreF/4uWKBEvebike9amnq4aqSsJV4MalCjf6gbgwCZCPccDbqFnlliuuyYi0xKQJU2b2UsACPGCEMPjAPtz8dYSIEX2ooCJW0lLyJqH7KZGX1CyASlAJshRJVy97TDZhDQDbGGRbKhaEen10cOi12EMKoEfRjt3iHuSiorNahmOJeaHqIR8GnwRE2FDL5BOpWqtMsuAYMa8jO99KuWzYRarYbzJBsF2ojtJa8AX2AALQ8CyCsOybjCmQ5l+iFHxNRR9ghhsaaRXGoGsmIx/EruxY7JVdTZFMRXU5BeONMl/c624Ds3P0zwWZIz5sdWZXa4mnEJpMIUQp1FlQnUEarRBB6lVf2YqVXkP8AxMQLmP7Szi8n/D+NcLg4iylTDkWyVNHUZYpap0LAjAcEwP2KPQ7ikrKxUcH6hqiurxRiMf6ri2LDX69yxouVLhK8hMTNuBqIzQC/kzjBDAcTMoNp0QljAcssR12hDtgBNHEbR1IbQekioQ9QQADaku03+Mw7Goa+QH86/wCRBTkjqIRupD1tmDINzUAbyiUkgdb2GBrA0VEo0RFpuEdo4qIzIYJZ2U/IHr/kGjaXsHPnEuMuU5mr7t5PUhaJZ7ZWvSzqT5DT+3IlPSmujHaS5G9DBD2hulvbUBtabuD0bflc7TiqqQig/AARohSBgiUdBCsYjf8AW4LpLMVDcDklsu/KKSHh1/eCxdMP+PBYY7aDZHDP+6S8Rih+Exz9RZ1Gf2SwlLjXH0VFllwxupZEYfZgCLFPH8OHUwPplwRgWPkwYKxtxWjH/pND+StQQTQqXMzPJC1isIKs9MAygpGyBCi4vM/wiUiRSRiKAdExyYyxTITTG7P1cBnS3KyXlvdtZYLEarLiVCMpePMlVymlHY5Irf2QJt0jgpBcBDkFGoeBfAqADHfsCIjIDQQMQY/+OLRV/VxcWUeEJQs677lMEi/8y+FmAueKFjqPHMIMz/RhHcuDwJRcr+GeHwSoMv8A1S2fyDNql8nahRwWyuLkuU39MtIsbWXcXEse2avyOvzJdy1MZ/vGDFMZdy38Zdj2IHcdAPSGBmPsRm7qDuTUPDMXGCdgzwEmCM4T0yzQsKWgDcs9tTOKcwQ5JcxGH7BlvKytROMPDKqjwgy4qAlwj/6l6qKb4rLHgzhHFRhMQgrE3ixgJcRT9lOGbuq4uareyDjjZHYvhxKXIy4uH5x3NMtRctP7FRYwabllbjKbe2X2Yp7BCsmPSBFyUDS7lPX8iGaQrg5hQXFRuWdXCEjEP/8AGU5vKhwuUsYJd5S4U/8AuNSqkTg2XAILJW/YsmJCzTcrDMMQmLKCSq4eqgf/AOkaf/UAzIXTMMO6BYUByMUywrVXVT9IAg0BtgOosUEFAygsi26wsIZQWJ8CI6JbIAah0EqMbQWwwNASYD7CEf4OJ1KlQJcWXiM3UvCWI4cC4uSUJoSrHh+wcEuOmYMJeJaFiBubIOX2FRcV9JcYQxuHug6mDZgPT/ksSv8ACZrmW0Qt7i5VDF1nkP8AYtMyegS9RSfTBjCSl0J75RKOLU++fRcujVCvXiVMEAMzqZytxbwYTzw0x4mrR4IF1mbMhVBm4HQT4ERVyg+3mdEX5DOKpUPST/inlyy6hRfqJGrI4hP6iHCWfqANoD/SIKBX2M/9YOwKbJUM7n+8I8zpsqXQEaD7Hbp4Zi/uFK5jwkC1AO2Zh5sUVJQVwXKhfWj+zHp+Tspuo9DSAC6OzGgVUG1ltVB0bfjAwYHCn/X8jtwVRCpWHqXRAoYbpofWBsRTfxiVKIKcfkcNfsRtEufyBUBvMOT+GeH+BDlJoQqMR8J85mT5T+sWvUzpZKTSEO4VQvazeybCU+oC1IqfSqBq7MUArP3gDm4ValHSU9JReCBdEvgMFjrDkaaLdMot6SzmuqWy4rUVjPHseJmdVWsOjTQjKm4gE7A5IhSaBcsYO0HGdBL2So1J2QEC7VDAAm5gG7f9jKBN/wBTTMDRv12StqChagVEbUdtRAZQjdo2mOwTAVheWpbQPVO42218wezTFwx2Mt0AiheXogIaWroYqJ+l7PZ1LR7fC/eNinYVMUHYkWRrsDNx7buhB5Kngmu1Me0xKBnX90RelKtmiXQ8i3Z9HMrMogJR+MVcGIuh0t8CFajgy5jAP8AlBsBaOr4QfZ6hURTEq3B5+r1bBlT/AAoVDatJhiK7rbQ4KpnYXAO0lq4YviEIy4AHa7jUIYH+KCE79WOowoUh6I1oZ+Z7JaKpKu6IstEoGmv6wBXNJqsTtx6bAy6xLgGFVSlqwdeQ1dVlIuhcAL+oqpgjFw6sUHu3jJrKUDJ+/wAElR4qViBHgZzTDsN0C1+BF7hMiqIPkCkaeTegFv2J1LPi4WwGEojpKSIUY/t84BcukyPqaJiUIo2e1wwZaTmDcgMrNbnN6fREWaxyxlAVSDby+AWNCPpJRVB26qDG29hP6RwtvQC2AqSDWIMP7FELlqYKarR2QnBhAvL2LjCD1IKgslD6RKEslyqDs9lJkayLJ4TUEXTsikDRhY8HuAGvbNECHf7DgiWe3UeygEDRXNROKAnrtPss38N2zcYDCiB9dkRyv2SEVwTD5AU0EPEMwaT4QaqMXtTKctQ3rMDk9UbLxQmTW1j+HSv7mUMl9tANEcdLlXT0RNyKuIRAtvRIu6NO3oqWDtH3QpmByVcgsoI2ZwNtwBhBL/wg9UHhA7IB9VSSsIBbTYspRMCijrEMVxk4fERnRhlV1cBaWNJTC6wRCdJbnVnTDSy83/4JhiPIl+xCBoWnV+4NEX+lmeDl+B6hM/43CGIKoRGi3gHBBZYPfX5ifMOxJWMJCwuKmoaHaTHdOkuD2UIUBhIFs7SJdG2K1iIMK3E69TGkgZhNKUl6Usa+kYva86EpgsbBrfsECz0hoTSFAKrgEgAmq1ad1JSmYBOFe4CP9c8nBO/4U8BKIBO5XBkqt8ZSFezsUBHcKLFZhpdQyvCTOJXvdiPvBtuwfYuiyiuk2QA2n2XCBe6iLQ6dnjME+Im9wCUX7YQ7xbg8vuZC3fL4Tvs4Plz3BQ/sw1M7YBoeEJglp7VACgMF6gNy9npyzdgf4jCz3D3Kdxxcn9p1LuAEywULfSKmi3IohP3JNVfq7iZm8lVg+3M8yVZeXe6mL1EA3QVCR2a2Zbh2VS6smpqZFMVjGidmiTDv4BD+xxMto2DqG+gZ6EIdDQ+QWltgtqAbGmAq2gtSJ2R/BubMRfEEoKUTUKJIMD1KEoaoiLBgeiGxJfuVQXDUwUlJdVrulXBVglzRM0q6IDOs2TKFkA8jYfIeMj/sS+PXHqDH/lFrUAzb9cMt/qf3wv8AKCvzmJibv14JsQ5jCYPFiEeQpGFydwcbIA5LP7528ML/AIVzXLxTEYIaYb3CGF7JmKd0RnA02HWC7q39Ri1VVWT9LXth7W0CgfWK14mrLluq7qN7UdwKEQuyVzRAAcB0Ylr5Rb2oVMu4dyxqf2MpWNVAtL+wmZ0iZ3/4gw2FQ8E8KIJ8igkjYmJlh0+PFXNtw3O1aWhP/AqABKuEX7g92AUo7IdlSuz6QeSCnSNQXG/okxY/pFjR2zcEttUdrRUIBaxeug0ys1ugoEJqE5IVgto2sHFoMvGFx1GCmzA6+ETvUgQV2Aq4lubcqFDofZlmVLQAG1wS7DIozRJ5lGX5oA6Co1kdlbuvkf8AlwMRT+xuKXkuIOGK/gRb3Bm/7jFKgUfstlxS/wCKNxaj/wC2GZk4oV4L/lwv2f7EAvMr7D7QYyT4pTSkEREekQfuZI9z6RCtx28p/kw4eKiROEwztnuFiUU3EG4tJy8o7CF5q/0wqpYP7LmlYT+IwMFnXGfJgF6YuvYfRXjBIHpOZtETQO2GD5fFswnEvJYTfQTFx9ZY+UexKmMZxcwQxaC/3BX+izEUNQ6O/fJdURFUXqwm1dBT1dETiD5T4QEiBghckQFqARDkYP8AWMDHlfjuGXJxk8bWADlCQ2B1+xn7f8Z3BN/t0SiPZ9upCrlh4Kun6yosB6X6Ialu48CKip0lyzHQjqWYIeDm5o0EKeS60K5IoyquRRKrrJZ+RPvw/cP4FJdvsq4voS+F1CQdzgMBl4AAQyn9quYVRYoplWWpsct3ZoysBbT/ANIuhqXT1EQgAf5iGoLIj9z3sO8QF5d+Rzbf1DFhmSE/ImpHfIrttTyUHcw+oZinSesKMoqXWD0S6xlVP2z64ivqeans4dlYy/ctsKOu3Ur6iPWG4R4sjC4+CESQaRIeKYNEJJR5AKMSv8W+KhwVAIkZeOHUCCwbqbeYIkmap/EzFOZNjvNR2TkW7DUMYbRLFyEwiCmgbmIs+yNzjaENact/LsiUo1HW5iEzLr/iLTfVRAWpD3GUuUWVbUk212JchKxyBAKCCaNL0kGlCPYnaDbYlNBVhNegj9IPpHHb81EBoCM5bVmC0GzdHUtMABXmwqakKxhbQx7NAM2wqhJlFAdWVPx+6V3TF7CpX/QhEqkOEHpMISRvkKDrssApgB/kEZsGOxRXDKx7OwtOrYT7gkqWYbvaiYHBoKIkUV1A6ANzMaO7Q/smHFlvav1jWBANCFYKlDbKrN5D2aAKnYCGt+pmeHbI/qxALA6GVe2AZz/syQuxcbHrYLGKP60P2dsgJiy+gCZW6g0ofqpkyNYHH+S6golIkVSUndF2yN4EApEaqJDf6Mqalcc1xX/MJmNgcDD94J/yQ/4cO0OKcn/Tk2/P5fT+8H8FkxNfBNn+VSsxP4dxCPHUQXQf7bdhKago7ZcL6mHyh4VZxC7iuxj2F9hoaKRlPd/WMFC3ULmP7FbnJUdfXENowVlmoVq3w7gexC7VVrUiy9opGrE5yOMDX1Fwu30xlLqCiQM//LEA+w+sOxQvldSlpCqgIRglVeCAeBN/EuKly4wWl0RsY73x0OTctFgrqEXbBhfeUbup7Oo8E/3MEu2IkS8RcCFLixYfsHh/9wlx3+UVH4QlkeUziXDUCLgGnyMKsh08XOhyteaPzjZKUhGUv98/8k74SejcuMQz3Eekp7F2TCKa4K2gRzPrwWf24uHFfwZTMVKlSpglDALEZ2MAUi64qdhuL0AmCChFKbgjcCf3xbNu4AUBQdENzDDCam+f8UuMP/rhZoypvgcV4Lj3YiYH2S48NPaKCZEfb0YlxirhXMS3uBqDFJ3+UGXEFT14EuPgMK08mncpMwGKmLGGBkl7LN8ZE0lSsyMGICBEXczQB29suQzPgwIumACrS3uJKcGooiWjFUV0lrgTMdRCjEpdkWAk4O4MiEh3JmgJk6lprTXZEChTd5bGcQ9svFFuUZtKrtBStPu8SUoH7ETTNccvEq0QWIQpMJh1EG0jMRKeEQpxCAjt56/hiXH+LEvhowlYyNKFkyjBLiwMwRJcvmsfqCqWzZyHxliBMcdmrlwqGTcqDJMMJRcOZYe8zALcEUpuK+MfhlCKg71GUywyVw2FiYTFCWnENLdZlhK0TxMIQx1zO+083ESmvqUaglArH0Zpcwv0gDqXdR5RDFi+6MEtBAYTOdMRaNT4EQLogOncuoshGeODf8lckCxEG768hL5Rh+zElqMCGZdvUYK0EZQmYY7Yqd+Ql0yUC61GG3FDcnbtQO4GOJUP/HFz/um+NX7DXGMP+bh0z/34J1xv+FSo8UfwdQCdyh3EPMEHFV6YY4Ux7zwcQLAske8KmQmYUhE9kbSmC5AMzI+3FoVPpA+4OhUEA1JzBMGYIIDRDxI0GCUleTWZk/c/ri2/5OyM3/cChW1fsrEUSneWh6MUiwpcvIaPmo9lkLhGWnipqrEfKKB+svYxg2GTiXCZl0EuGoNRS0vPccfaFGDce6VUdFQKJiEwzOtqp+MpDYA/WNgNN+7iIHRaXyDhRXUdSlbq8zKNsEChS7VC2MzKQh6RRoC2FbTaB7UKHFI4KC5S7kJwoQiAFKbUHF0mExAamYdOBb9iLyipJ/0TW4KYB0gCDX0ZZvcEmpopCMN6E/S2XZW0FIFtF27lQ47erXTF9MWhdiWPh2Jt3DNsIJ/jDX6wIQMvyWewB3CZU9n1IjB7lZpMMMZDApPrErPUyLGY/kEuXK4rhjKyPKPlALErGCJhplTFRSZjmMFYNoCk0lgQEaXaVO4LidpfTM2GC0Lz7CE4xwfqUUq1nqYr3nYfpEYXorKxZblQSkmhBl3DoQ2VhmYqFodP2NuWOMUzjfSyyrpXhMRdRiU0tkbVHBXtFBs9okwYL8BArR8REZuuxBYq8PpPhiVhQWp0RUtLFCFho6g80shR5EyENw42eqAmZC3qsBsDZ7zMpZQDz2E3Ld+GoozWbBuFa5bDsjMoCRC2pSsjKhcIMUoeslne0QfkTG38c3KXkS0WCITy+Eov2EtYBNkhfYMt/F9bCCEhFumSEL1IE/UKZmjRMmRQQ3s0WkzpVfEUvQypFugOb8nUHIeiAEsPpG9slBbMgeyAuZFee4HpRUnHf2obZnZeIJHGzUqHZhgIKgUqelwW1ssF9oOWBrwFEB2ZX1ifWDVHXCVLqZdT5wiQ7juIJgPBARgufCEPE0c9c1DmolQvkxIcr7wylKhoxBwr8orf6BICN3T8YBNJQmRrSp0BKTKSeko0xcSvO1N2wQVh0xZwRGeoglBwLRHrrDZ/ULgrfMXTCL+kW5GvsZc8jZ7DvZBFqP1jEGgf0NyzCf3JacM7xgRF2L0PCYkyoNX1Ag0ibLezcK0U/olyTS06JpnAz8j+yxH8iommCK+2jGbIDRjL3RvQbYRUJZSFcAMRo6jALhrJ9uzybqitmdgg1gKkrDLigHwY5aMLmhoZUahVtqCXVMrLwW8JCKBEK2ylwAMxSdGCD4FCd5bbmomMRtzcugg7ltE+CUthuZhqsAuHcLjI9qUPRCHglSKRoUNRADGjEy0ze6mNSoc/qBMzcwJUf+XDFUxIMRQ+y3gpPCXFlMgkuXiN/uXLjYWS4v8AhLl5mr94NTKBxOospf8AgEqVAlSuK7lSpUTzg4GFURr2MxMif7GdQztRHkTaEwlR/RTn0p3GotxQ0RKLSuJ39m3fUdkcFECXuf8ATcFjhREiYECKGW+iHrdMbIdWZu+xJR66DhAOEtUDthCy7/UPDi2QdHyUW98PzmlRownySrQmtSi5hwgkIAABiPF90OMcvYS5vmjjRmZlwLg266fD8iJMsEqCuJ6Yk70QZcP/AHzvLmgysyv9Et/VwGGO7cXP/SGIzDg5JFKsZ1w8hBix+ocZszESo2r851xY/XNZ4uWewTt1MkHtC2z7Q0wgM9wHufeXP8Uc1Dk/lrgUZlbPlBAAyWYMBKRUSVKZriLU2zIgxhXGB/yOhOuN0yHBKWzuahj8pcvinAKZ7OVlHYcXhi6RnRN/3wzP9HFjFVMo3kg2yIxqNOJ80powNFxmqAuVOHBMWv8AE12lWyF20PbBXVsyyptMDqZirVQfJF53B7JD7IdqUsJ7AJPQgBl3AbvGzaeiIBlFrvMSLZGYi9pWtsTT+K1FPZTPCVAQRKVGmAdRIqj5ShqZ0l5OxYCBTSZMJRrCIeEpGIhFhzX8uuV4E6uGJv8AX8aeCyEpmj/CofwvUvRXAmoVEI/kAg8KAVz5dc6ifHiZcs+2XBdamNdiCmhL82iuupR2LygWYowXAwxTMAvOHdJaV7mbVpuIqv0mQZn7yjKghUrBeIACxhJQ7gLogvRCDoCABhAlZN90C1iRrCjFEFmdSxBfGX9pjVQ6IBgiwtcAGxWXarLepQFZS5gASsJPkZe4YDFJYj0sH/pBSrAcLZBYyLJ0eot9GWDkoYlwcx+3GlqGSf4ELjf0qEMLW31jFqEQKgqxnEuq7ZYWEjcM4DMqnSKyR+wRKIlQvVQilEBhRM8VMB+wCjk5v/44lzNxYzE7SuyHtMm4A18d3TDUUzAUmFm0dcluo+JPUJUyf/jykQYp2HaW9y3qGWtlIy8WzE6DuPmR/YA7lJj18NoCKrgXKJWZgn3hmoqYjdNJQ1ZcandDJCvzgAtoMsTasWdQyjqGqdrl21iGv3i0XCPEvNldEV5YMxsYyZeyE0j7LspSwq+wl2kAQt2+pcUZ7iOiPiB6LKxhHl+RqBQy/kIWBpIGrkVnRG84FlibXh1cboKEdIzRHsGKwyupfWxKGlAMLHfG3Klv9stdNf7XL5kNS7DxRRO0W2bjVirvUD1Ii8yfXbULxRBbqtw4NrSi6wBSCfWEu11hR0zAzbr9iRxhzeWWTCVUWMHibQ3SblDATnAxoLBIApa0HkDzBZ8339IujwWmLrwv8hfIZr3VxVmKVcF00JR7i1MfaLZlHcd0MA9ho5IcVLeWZhy8oqcx+2AgiGJxU6gL4MHUwVE1SiCq4XhLgQt/qXTTw3r0YfsKm/7lQhl4p1EmKPsUC3QFssUU9RdSAtO4ZsFqK9gZT5GqyUqPoxvuAtzVluNbro4Ool0ipKWsvaOIkQLYwoij+lcFdyWMC/vTDaXcJToIxB1slEuvYK6qHbNOz4QoACX/ALoF5ZR+qjRzLRIpYlUqxAUKI/Qyj0ZZULJ/qV1j+3gkrxredzYhKlILuE+uDY3FQoeyfBleQ4g8DQhu412wn2S9lSl7H2WPRuwORlnpKUaqo7VIp2qGsg7EulLmtFCRfK3mJS91B46MEWI8SHYhJoOB5cMlbnCULFN1jH9CjTGdyt3HqOoQGUwF3MB0gWee8SpEEp0EbYrqZoX1IWAUHUr6YU2RZqkwgn4ReJllSN/7F8Ih+QIeZHqRWyIaxAjAYO+D+QMYvD/Cr43/AMAC8e6iCii7/wCZbPImoliRWP7CFGtqiYvyNX7K/jYbB0IZ0wtgFpZrczlArmNTkQMpr066lkL/AGhDj9Q1KAmamnMWKVsiMixJsJTDwzFNI3VGaToCiF8qdEYEuwbKEjoDLAadjYxRVO0C4u2lj9o9gxCpqXrAVT5UE62VhMNwtQqyFqtJ1Hm7S2LXYY7GI3DuebQFNsVcvVsvtQs7/IUgB+kwTzkLRFe6IYzciKkfpcoqqhdShau4jDWeLCqOWVTw/wCWX/qgvoC2HAIBS4fLuD2N/U/C1Eu0RccCVK/5j5H/AIsSoTp2zdrOG4P9olwmh+wMSpYhiOHaJul3Omav7K42PsODxVE4BCP8c5f4jkeNJryzZnwB/EvSDoEYELMI6xfxLTPES4BBSoYtPFITFC0M1M8U/wAMyvILjw6sFpX6e1vURMaL7KRV9jBHI2B7klW8v7jVNobJHLqBRWmFVUgHUwpgSn5NFgJK8Q1VClQRTcVhf2Q9BGKoIu6ZWIa/CaYzFNctpqy/INWDq+CD9oNorQCACgAjYxCYZdEFIB9ZTrVE9PkdPBR9EMxmgjuIOoXlJf1983kTfb3u4F8S0p1BXyhokK5+Qy8j/ATP8p/wS/ndErcv6ksIsboOAhu9ZP7JiF/bmLYlAiaggWWbcZm6j0esVAWoFR+XgUJXtTASxLI4V3K2RCx0nV+nipeRGyL/AKhXFbEMECTQ7qVDbmWPZLA3Hjc+KfaNXauG3SNm5lLgYmR1XAk6jD74D+R/8LjLW08G3uNTlg9VPIpZH/f/AGCgWGoltQEJQFAu+TKjNsIUwWdzNQwJUTDMuIShj7lSpWR7SOWa8LaGCWU/CMGnTAjdeoB9gr1/zuSEfoG+maFP1mGqbEllLuxtRguTkEu4f4BEqVD1sxLRKCs/YE2tXUsI/wAigbNtT9eMdwqChWVtCxtgfQSWqEN+MTqBRe0g3pV69h3yFRIrzWB+wgJNdDqbqYjRqVYNrViE+af0mdlBLNMfYYOm4NxSsgqMGo+V5L8DOeQ5S7m7MnbinKiSwmFoNxCTpfJ0LpfIkJoANB5GhWrDpmv/AEepfpjIwuEuZYMqNifYb3nB+4Idsr6wPqf90PZl3bDWDAz5MI2HGpnwQCxBrUILOoQbGGV9IniE1wDyUeTZiKeS4QKOT+FvBqP/AMOmanOmXxmpo4uf+0zxpfk642fvHU21FhCOmPfFnsYyEJgdxitzC+Ut4wtEph3AGcFI8lbDiH6IDSyBe4MERlLtpDblaU1BAAKCURWj+0qIDZ8ZS8LFJHQNHySNYfOL0SrTihS5UzFwp+2JNrBHh1DznxiAB1NFCHggsaNyqVRx/wBECox5RUS6iP6JpnUvlYSYr9meP+uD1wVxHQ6lGQVzWTgimT+4S45Si4MUP+KVMfw5vUX+kUPFGGJbcCQDaZWHX5wQ4OK5cwJf8HnU4JiIN8UtAotj6z6QLDDcDC2QY1vaY+BTShBVNEryh2CMCfdT7Q873Mm3jGUV5pMGpQk5aj9ENVU0P2Ypxe8FYIw18/8Atxbwh4xh8hcXPDXoim37i8ZD9JZUIWdR4LOpayo3+qKpWwd3wFal4mR+oLXApvWXmNcK4sNvyWS/sf8AnFKW5q/Zf2UlaX2RQoYHsK1MOkVwIuuTKBfExwQtq0cIZUQVFXvCokA21NVcZYdcHJy8HDDi+L4LvUr3Kk4EGuUr2xBFc1EupTyCVQaY/wDLk4/sMBxcv4XR9lHBj8JcsZhK4MeD9igQZuuPBLiluW5/6cU3MbpjHAplZqfJPtCsuUVDoLPtAyIWMq+w0UOGNELuLRWsKAHLpahpiPQnwl+IC82MaXu0bGxuEFWgJpTM+uCvKmbpRt2yzltLqVVaxLi2AIgL5CFkIJwM8YUuUDED6gCYADCbsIKKlqNUZUoMT5EQOoSn9iExAWAcZzP4HFnDxuMr+GeH/wAw/hVNGLlhxPC6lQyXRw3aXeBKwWXFr+s+0PaW4Z9YrdpvQRRqocBCoDM/LpcQIyUlCH4lAtJ/yM+q1XkETJ2QvhrCt7l5VgJLTTta35xGXQ6h4oSUDjOodWc0Nk+vT3Jkj8SgmP8AeBAtili69R0TF/CCfm46O2X7D/lyrC4WsQjdESpDCW4BbIZ4pf7jX5MywdnOz8yB/Cdz5BGbcUqoT+5cPgIICBQtgtgkICg8AGU9X4RHNxym1icmgzAQlOBNiG8sMIXWZXkZUCnSeJA2mqM3wUeHTLH9+HUFcs2/icO5fJxfJyYPAjUilRcRFv2V9n2gBN0cRqzLxlBNPhVXGImE/RAyyQLgy8P0mAlm7nqQzA6iMCEAHhCvDuOrZA/uCadRsiKAEMN5OotK7JlrdRLLRf4iXT0gv3N/sYaAoC4FxgyxQ0Ww4zls06esaMQXZBZ3jWgTCvwg4QkY4t6frHKtRrqCCkyBsZdnaU+1AK71fIc/qVMumBh/0zQGJUY06r9WaWmIoBZ91EcRcflSn21o6nhbUf2JxfbPncI+xJHssBV3ay0iaDQwQQWw4bm670S1wfkcukzIr0QMudK/1KBtchV7hmyyKhalUL8ZQtRVVTERTWPkCtX63BGMw9YnbDFTbS/0Qph7TeD0ZQ6RHJMHFhH5aTsIF7iU821QQh3tX9ZckAS6UEhUKZXxji4jhA+oaofSLldXE/8AeHLCYguV5CVwwhK4qYv3H4Al4FHNjK9Wq7RCsgt3EQ7ZX1Cz2xogR4LzFG6IQsGCWzdFZgS6Gf8AtOuHOQ9YIWJUFJFh0scS6I4Bt+ohrKgH5PFiYN5CDAtHuA0UpSZOq0XGYT2DWX44sSsR7wWirTUroNJ3fUZ6kzegPcSsLYNp6qWg0niIGEAUH/QwkRM1D8MYyVBe1leLBEjK4E99JbFFkSG8pCGxjX6xRGATt8iBrUe97TD0O4OjOAIPH6S5V1IVRdYsfoJwgKL/AJhUb1ZLaSX83Mmt2YuZDZGUSsaeTek0ymoZYzcAAOCISlZ0VmXno1uGA/cMDwY3Q0QrMYOdi/EZYWtQailQo/Ayir/eZUQIeKHmS9gb4GbRKAo7nTBEHqEk4JUxdEyMqYqZjhumauNGbP3g5ritW/y6hxUrgRN12VMXC30ZiGsPYlU0nbv+CeyhXf3GpaOC6lX0GqD3Yw+Cbj+FmTZDYTR4IYz8IMzAoKD34yqgQae4QJ4z+RAi0XzMFLSo3Ave1CJOTPtsYJ6YgsoAJe4BxMW/SESF2T0j7wcfIP7G8DLm0cpSH2KVL6ZdN0cJjZPLgXShmBGJA7EPfFBI68ESGs6YfVbhLhA9In1GgpPgnyj4q1RwE/8ASVHJUNjGvxAdKJWordUXM4AOpakGU29R3+EWKktr0ZUD9LWQ6wCY0YhsI5iAJF9YQ4u21dEAOOGamCU7ouoq4g9ykov/AFdQajJBGqzKGo11MRT8gy/+Zf8AA3UV/rCSHj9TqXia6R0HAoZQuPPiWkeGMrxvmQ/mh2XX/CoMIw4qVKhxVwC0sYlsrrXeFypFyQq5dkJK+kqHGpYFoiRNg2PqSMewULcEAr+NMOz5dhL+NhP6Zg+VWAE6fs3ojgqmPk/rHsAEFr1ymVhhaBU/t8LKGbGkaYECWFZGHVGaTBKvubrqOPDELNQAP2FUQJtlScWoKArSQN9oPjwUXRAvq0/uZAWpwZUhQL5qEqlM2UjMK6ALjqH4De5djYxZUAsG0CKn0qIQmArL4++3Asis9xBpUhiIuYMuyX5KoeDYWQ2/lafHJKXTsNhAobyf+oySqCPgicq68iAofqIoCVQ6gfV6nUHEvfpDadm/oTRc+G8OvrLoIiKCuVPPkBe9idQAhuioR4VM7+QDpGXpDR4SLUinUQIu78VCKaDf1BXIAgwCMesT0dcD6wQbj7T7TCgO2ecFD9lY4aYdRUwMKVXlEVaIIXlmUGSKpUGd1PCQ1T6QrVlX8wYF4Z/nJ3/MjFgiAol+Y4Mo2BVhrJMkZO0EeYFQ/CXPkgKJjyFVAWqWpOi8xyJFNJcfA63PNl1EgyPRAcAZ3T1UUjl0MdRSJeFVCKCgsQT2S2umU2fJBJyBvvioig1J6dkU+ALPRL1XDE3LB+wWIqJbBzQjs4Y+oA+kLKsuCbXG3/YNx1R8I5WCu6rErAq5wk+I+A6IKhcaS6ZRQHFRpLG1EdeoVVUxsMmPxDapbiRIGh2/ZmwozCIAcDvU5ZUxQCGXNW06ZSbS/wBEqCAqO2J1BcBlgTJq8Xg8jhK21drC1LZDSMuC3+0QjsWvOUa90mU7CZanYgMOC1fVhQlTtMaIeEW2E8SVCiiFD+yfKZ/iufsEAgFEfJAdTUKRPQmrBGqPko8iHiEnTyFOib/uB8iS1D7KYE0kCVKyMOBAw43TWhycVLsP/wDSJAjCEP5mjh40Mr+GtqYv2hPSFkEQYy+ZTTWzYYmtfRjFlNAgKzlPdkPDVDcpJq3So2LgLsHUFiRGoYl6ENHgL6gFKOzuKkhhD7Pc6YhBsL0sJ5kADEKvdSVRaA9zPw8iqS0U0IIGpcfsB6MIdAhMccJCUJkIVOhYWKblgeS97QddQwGmNux2rcMWZbDDsSNAODWNQ5BPElNEfCfCFTu+xRamVWCFo4Jshpw84JVx/uKblr4J/Y5XTNcI84T/ANeGZMXLIxncuLP8l3w1X846jY3Fl7/c6lz/ANpcHEf+kKl8BqBxaEuJ/nHcP6bSZUrg4uD/AAJsmmdTpnaLUuOnDCGswbukXwKYHRcGhG2CCtQGI8neIXSFJIJFMA9TDgYjy4QbVepFMl5A7GK6lqCqigiiWK72XEhNHsCKIKsO5eVSV1WIbKEpEgyl68nD+yypUy/aUVNQ3/I74/4IR4hGG/7QxMLniJipdhgON8d4Op1M/wAJjwOmIqQc7i+oiPCMGyCu3ufNPtEHKfWHtCPDjC4b1iHUModStW2oB6Y/DFbVM+032lzgy3ufgit9pcPxNEuKrDgU0QQBAzFrc/bAAzDAcHJcdk6TKsH6F86/gc1xkohpxtdTKxPUsIVXLKes9yGBIPUI7IiRu0KgloU01FIlpqGJb2YMZTgcvzg/gP8AsgsuLOZjh2mnhlCBgwVze76lkR7Ni+pZEyNpmeeENCUxhl+nFTUKIFOkSJR/sw2hNtwLrYsRbDaKDtLg2lVf+uZvkCIDCDRHGSMHwnSdz5EBeoBbncPCV8haJUA84NSp2PkbhXAAiCK57lCZyqEvGoxFD7GXmLUvjQfYFBwcEGfCoNkQYwP/AIbv4NL8VKHMqjE4avEwY8UGXM8LjqFkvMZW4VFpPtH1J6Fi2IfDBt5SlywIdMsD0T4ZZsyh7YzwraLe2VxjV3PnArrguzBCBPkrEqB+8ntBKI3OuyNsFATXwf8AKMkgPUNkWMwAbKZYbeQ+MHB1NJUoJSre8dzf9Q4bvjBEQsY1DeLMiXjFpjuOAxamcjl2iy0Ltncuydynsp7CsfxITHPsH+pG6uoNxly//huj5GHDgXAYJ7KWzAoXHtZjaG1QlRVMX6h1wrsQcMEteESng71GTPuU94COiVyFbC9PWVJJ34jPN0bZioO4sMOGsJbazEoasS7jpAldRcCBisubH4R1RUwaFhYHp1LqCRLQWD0A9eEhL31MgaV9J41k+I0IuKPJWe2vAxo8wr/kzKbGW25wImOwubl1rcQBoWoKhk9gzEFCo+x4HTcdp7cLNqyu4U0l6z3Gr2TDqVSvrEGaT7wKhlHkiD+wX2V8hGncp4yvjAtlNN5f1FIGNe5G2oZPhBy11EtdTaNxq4ZQzgQpzGD0hVMyzF6mkGP0wF5YIOL5QxP5ftDnfNfkHg4IZ4P4ZDBBxNcReHxhFe4Eq4F+LFdQzQqalQ1EIa14QoXFL/cMFSDcRsD9mEEZkClSp4cg+QUHpm6qak/dTKAnox8KQojZ0C2HuoRv3g0J6s/7S9zMQgh4DERrRGAXwKYU0icevsFyoHv3bPSIXhJT3UYayhFuKVaCo0/egeqilFOF/Ej2YyPiN/HAuWJuBcoctKie2VDuo8ClSyCKoqF14xBZcb/uIoJgVEVbMypjK9N22jGpSQMfpnUvWZlnFQdIzUq3UKlpYSbJTuDxSysizhOohyJKPkTCch/GAqXwhVIy0FX2GQtZTbEZkcOIinE3JRKHqEp/ZRGd5UrP8CeM5lSxf5AiTf8ATmv+OEmawlQXCoEdDg3KPE/xBV2ZXWv9RcsOR5uOojJzUlcNEQhQSi+ojWIsElyo2LshudcxdKLbAgaWEJppBTKYWG97LivqyWtXC5lpJrPcQLWtsN7psl4BghFfkp2mhpuWNgUnIy0Y2gYoQzRbHbtctZSZhBK4h2QUSq9OGb6YF9usC8+QsCDdZJUbyHZWLNRo7KjAqP1A4MzyZS4hUfZRseqoHh09F15cvwCEBcXZmMgW6wjkh8noslPUXmuewYGgR4FTzEr07gDAHOStw5OpdaZL4HNEGYyDga5c2R4cOmBmpp/AGX7xTc2/XO3Cov4IrkDxkfByufvqXbc+ksrPpKRSaT8wbH8qjokiqITrXB/OoR5mI8BBDSgQ7V1phIuyFa4dRKgGhAhqEmxLIXRN2gqXWTK7siGyuX9UQpMCV8QQ4psNjBrfsAgVM3auYxuziaSvIOWU2L/agCaiA0QHkyyX1JUQCUJTKaTfgQq3KRRUUjJg3KuCwjwfsvHAIGyfvvqGG02sKpLlLxYQjdFhLIhIVHMo7mJzDCV8YhEplBqX9QT1GhjgN0XXE/E+ybKqFnqXJzn0yn3O8iUgNjJgt0y/sM7Zl0NjgkPphR2yqpX2VgKgUr5KMalHqHhKH+nCpnyVyQBPQmJtVANa6gVyv8mJATj8KNgxbA7MNMsGhmAO4yIjZDyn9EfeA/Vkq0OkhGaAD+C8veKgqTIQl6YsOFVGUysVHC5Tmm8tpLxxgT6cQLRNyvsaAj0XmCglU0zFC0upHRjwS7xFXqB7IA8xYqkJzoMRIwDjlNwggGEhqBHbEx2kAKER4iOnmTDG0/vCATV/Yi0sFv5KOxiyJvFK6hyqBuXFSb5dxCYFrUQY2XDsscMdlwWAq6maBVVOnhUzgC5OTW52MWoZ/wDhiRgQ37hP/sO+39QmIfyri+AXKlQm5AOa1Edzph3KjwLnf8Iqri4hcEpKO4teYbaNEQ6UQvJzPtlhCtol1iMgG0RdwVi7CpTbURUR2SvrAERxMHyAEQipy6iHaF2sswtM5q1VRYuXiRVmWFnQSzJcS4VMzYW/Ybm6aIUQH9+UXoBKNhWy9nTDQiLa/wDQRslwGWVAjNF8JXJIpvcq8dix3NkHy+4YH5GHBXInbK0rkPbfcvsl0HcEM6YQpLl+8LyxMFKGYEq3v4zABD8iKFupj3tl7BKYn0gigF2auChhehMX5NQtJbYvqCy8sr1iCPXWhPpMm4A0siOnhQxr7K1iI4qD8iXBBHUv/wCAGl6BHfNchDf8A4N+cK4zNk1yiWVuUXmdFx1T6I+FMkKnEXiBZhUMoeoAyYbUgGyIVdErTiHEquENAKCHZ0w1xkG/3gCaAAaZU6xxOoMw6yxqkDbCv0Mw47/YlbiyEEU0is8YCdrAv2G1uydxm0VY3QwSmor7a4pZq/dxGWMS5l25kRRVhfwuCS7NEaS4rHVygehGPYXrsJVdZvFlXKtDLhphghzcAn5GSxFP0jZ8v5EwGuW1aIwq/YNBVi8saH8V3G5ioJ5vaReUHP8AkaMbpUQG7veYuyVlsmXsDFDqM8rQrxhnlQ7irMeijtIyMQVY1LEM3MnvqB1RLBS7lUrCUVKeSnkJYq6h5S51KPJXw5FXMi40Ts/mb/NEFKwlw/hUp/iqvK9E/MsVojagkJsHMRAt28VhhDLILBqxfX8PcK4qLeYH0DTCEmjkh3l5xuhvuq0rwCERVL8CUITpRwKzHVGEoZIIxb4q0xgUSZV7CwaVxr9YTS6iyFOFkhyQxeQlogMxLm3Vj0zdCkhYzAc0n3gIR49P/E7JVsGaLU19IluxET6IwbBydsEpl9VseVNVMkFBxEXctpKY6MwDe/WI6akA37Ftl0THEQWoDyIWg7cJYyhhHYwIAAGCVRH/ANcNUynFMPP2d+f/AG4xDn98gX9c7RZxv++NQ5XPeUR1wojpjbP3+Bx1Uu/aWZ41CHHfDzUqCoBAQAXUEuvJREAPAL/JYZYghtCRiNV/RMR5QWMpGpqInyDewgju6WkB1QcMNZ5RJlwPE7Je9bMUqubWHJmVli8FghDKU+ey8RkSCjZYxmAKW9mN7j+6iEyRtcA9XiMwRVQuymJCelJdSwx/pFtCy4F3zUZr0IjJaYopKVNaQogAKO4UmCUHUJSBjjCNCYmLmjg5TXw8oceRohc0Yr4JlyOuRh4MzH9ncuiaMEO5T2Oiz3LPZStwMj3PpGrcAvg3R1crep4qNLxxLiELQnqQxgzqfWPS5aKvcWzcNU4P4XM/2iEG4cEP/imuiv8ADMOBgg7bQodwQQPeEb2sBr+4EKdBhSGBLhUpVtihYuhqWxySsbNW/wDIPGqmDMLVMUMh0NXhgtfrQq4v2jQmQZlO0TqVSEAUtJV1KQb52SuGcpKCgkKBLMMa3AjqY8FgxanQ8yxDhqwloxZTUjMiPGAjSpghLn1go1CATHQxfqFoRfmXVsjrg4JRyRBYK4PvLCLeo/SGm2ZdsrTmC5cXxhI47hTqfCAba7gHUQ8mrAiYmr+8dsWX7Oo6mrK9jQPFce5pxtmr+WClFfscpSdr8LwP/luQHXn1RqCyBB4tBAp2I4JKNkUgDTo6n0yvrDFqHcQZEZgQoSuNUWJuborPHU0/ie4YfAxm4cKyU9IjtPtwBMcUw+ZcahQYnhDXYcILZii3DIZi/Upa2VMMDG1YkNEoGB4IAHEyESaALOolqc9QgZa0OCOYPEZQcXTNePYiosTqPEsjpjD+0GOmd/2DKCHnhgMeF4XhZr4yI4u2YGVDPA4OYUfaGuY/yP8AijMyiIhtD8gohwQM/wAidJoSsx4ZqlcYqJNEvCXLm5B4cDYgzNceIp7DXbH1lJUsMcsHAdEzMyJbEJV2i4LdsKzMpxmVKlYiDqA4YQTDN5K9jvlUNeXMHOkIcou2yhxjBSr5ml3AoC7jwGwdAgOc/ITjmgGWKrjOBU1BfWIbAEYAzKHtQVQd5uKa4rzNX+iOjYOPg6eJigMKLInOYVR9IoEAIy1YFTHqN+mVMEFClkUEMtEwOo6RQoOasm+dhKtuJlWOm5eKBzAbTBBHDpPlAHPVwENxV+XGiP7YK36YU/8Ag86k0cNV/A38XKUbnXfEVK9h5OFeZmDgtcYrtL1tIp+w6SDkJ8iAcLc9WH6uHheGqx/UADQMKCuwS2LdqLq5tBKiALogqKnSFWVDbH+vENxsqSuFrAhZEXbUT+lkWyu6QUcyEaLmVfZ4Zieo1CCNJZ2Qncsog7KvYmZ1yPqwprwppMPOpnpUQtYLMFYwCImCBy7IfQ2mWYwPIFs0jUWUoj1uXdw0HLAdpWIqMgHCBlUpBhgijyYphqMSio3NEocNMpTxIzWiUswy/alnyFmTRxsmrjdMBMcCwc2p/A4VfnGJG3FfyITvgQVEfBFa1EhLivcLJcB7CCCVfJTyK2obYrAiStWCZ/ZhGqCtWLAMY9rUy2iHvkIc8hhSONv9QJdwEKslnCgNTzIMO1lpEdRHIIP7IuRy358jcpYHeNENIUj1Hq89L7xVIdwDy6poArFGJnLKW39hzcbe5ZWIwxMBW2O324CWKVJmHC0+xfmSVQi7Ym8E3z7bSZkqeRwwKnUEoICoEqGwA+EYH/5/qDd/DUPeZkpQ/IMPFfUHcmK4CO6cO0TgSLVRTm5asNkfB6kavEMVhFmllWMWt/CVEUjk2S9DmlgLnUOBfsaKShgo0DtjIYpR6tIytrEFowo/WWeHdXmJoZYD2FbmItlFoha+kxqIXEBmXdxii4AIG6gQGjEtinkUsiC6ITGypiT/AChNk7mIfzr+UTKuHUySp0T8ypZiRZQ3IahtkRZTSWpxCG7pKna+y3qN65YP5MjwIT2Qk9qP8wSxpkTNCI913M4ACEitXV/cAdwiFICWjal+DVU21DrBqsstQtFA76CGY28r3cXEdW1cMTAWMsW+/cxRsbgOiHlCpiDBzU1B6zfqC3xssOcrWIEMhkBBSIaZqYIVNnBMAiyFWgua7BiYKa7lHeP8+osMfwrl7FW5EX7GcWGbjFq2wNaxfhTEpQtwWICKynsRUoDLCuwIMMqr9qZstDqFFLqoLYl7bhhJvZKW1VPyGEA0imVVKUXedGhA0XUEp1E0MmYekyr8xClAldJHRsl4gXdwDky8UP7gEqyFRqVElI9h5QAgwYmJoQKJQZ7qQolBK4IHS9yxOi8o23jfUsSrqDgOXDtjB/g/wJfBNn8FBDAyUxDpC5UXkS/1BWCNEKmAS5hdDBKindQGKb9AgAL3U6SFWrpXyOea2+rLRzG31NL41Udr4C5/bZgkbLkvEXItlvLh5QsxFC2giVJ/AhNWBbDVSorAw5hLJoF/x4euCDoQtmNCqumDMl0SjNFVn+GTWAH0JWotGXqVd+SPbFyh0nUuuMw8jKFyigzi9ErYDNjLP6sWx14RXmb6sDFUaWYfkwaj1YR0Vt6jOkvIKbh8ylBm2NpcCE2u5gFRdbZBgnSGCEl3qifI4OJlWffjAigARCmDE03F1rkVcKhACgmyapRX+nPcV0sC5V0idAAupshw4OcGEbIh/ZSbe450FufI0LtQB2Rhf1hPsTbpqVC4gQFlMGKi2YN4BaB3iJoYrYtqBVlL8JhpME+Rli8sIOrGzFBY0b/2afxULHfF4h/Go4jzqwiPzLXUwg0kaggpbYSh2wKihhOI2P8AURAEIAYJi5oy1E7hyuB+jCh6x2iBVC/FjVPgSrIerkEQQXLqZBaJrtZ6GNvIBRDELREKNT5BxEerGJDGEVzFmXYQouIsFPlcT0RWX+y9wqHi2BDKF00THQ7PssSNpHYMF+bvHYSgc5GKmNpC/OiZ+CXoUokZo0F94qplYZYAKS533LcXU1NWUSmxFz+8LhiAhpqLIKxEI4AloBkLQra36xGnkdMrFnDaP/xogtQJkCmWwLbVSfOEupog8KjrlcPzikh3nRPNYEUQtqPkWDm1bl7g/wBsy5magoQcrYv1gd6mP0gYcatgNIgP+Sl8wghIFQgSkMBoD9I3LCQ7A7JaA7tpqDFVdq7WKFpHW2BKqPC5amRiYElOFFsr3PvFUtl3tiUqAQODnvh5CIXBZl0Xky8QIw/+FSpozK+QylcaZ1MRYirUTSKo94UCkJs5S/whnORAdwRMdUCvxMkXXh90kclaUXyPmCE/XEaXXpQiEqAInkv0Ziq42gYilvgD51coygMEENw9Q6EfRTSkdADquoFmh0FKSvYj01GSrdrq5VChLw16rgirVRH+huNVFJZUQ+gIcIlNJXGSlGgRWxsr9gv2MzGlYGzshwYX4HcertA/1iSqC9hE4x8AIVswbfZirl3yzrolb5xFY3D2xSmUfxUvyXwYVDqXBe/y4rimTTE+Mtoof6Sg7XJbyE+MwQQhAMQpguBHI3g0zE7z9ylZgcI4pMQEIQSkoOoqgCnG0EYOHcrxEYODf+BHga/k0JQy/IbQzqE38e5TM/xOHjqbvJIcbEJZPRAjNUUO6hALV0TLf5hKYAWenBRWEQKYFELuYKmgFLGvyFwP7mBzSUN0v2AQEcKGcgr/AMYsAs2QTNbVOnivTBIdfYv+k0ho40mkDNZgR2OCCnVpCbxIsMyg1qJX+v8AEYnyExOW8YJneslwWQ7odXFjvh3AaAIsuIpqX1uY+kv5HFaA3hgUYC70wADUp6KKSGaw0VQeXK5dgZwQVQ4YQof74GItRKQamjFHUdMHDZKp43TRCbJocOnFhxhGhxoQ1CXuNS+JZMPcRXJD0h7T2zHPgZTa7/mSZzxlIk7VKuj8XipWIED+Dy6cs9QXyVwT0nqwajImkCmJbIHtFRERwjsholcbp3wkC3QzwT2XvYNJUNgFxMmsWUQqzRZdY2BgjrWhDVQqp7iU/rP8JjQsLlgP0yrpf2OTDG49Lf1G9OekyPsJ/UbUZwrggBlzLYAphgg6qmClQaIhYzLAfYpV2lAwA4SaxgVwJiJhmBx0zdw9w4eHTMiEduRyPAx5xFcyx2TvIIWyqMgE3LYSYGDAyl/f8MdJ1SrmZXqLbZd3xX3AYDzHxh4yvkKOb/gRYXlEZsAED7iGP6WhE0QHgQ5r+dTZAncxHFzU5JVDphYCztVB2sWFI9vcBc4LVXU9ngc0FTMM9V9URILoD7IhB9OFakBBmkl0AfY2QD33FkpzAJC+lEhcF4wh5ojQtipWhRA0WoI7OyZQV+2hNAkuqQAglTR4qmjNeHTNOHUWOOuN5hNHh0zAZdS/UYDnufePvCDKeMG6cIq0ZlXSASrbJmkCfaKVlcX68fxlXU+Ep5A8RqH8D+DxUxgagaEliTHspKyr3EoN65OXUVOl1xaOiGYqiFI+Kifx64P4dzgIaIijMp7EW9gr1DJZG0S0A7tbmCFn/GHwC3CpFZfYy9b43TFYXTXe4V3gBh3tAgQ+wIxAUISo4NQVXCKP4LUlzSPBLI7TSE0ZrFJQ3Cm+M0uYDGY/DPBwoi+kX5ID3PSPph9JS9oFK+p4kC6lOiU8h/JlcP8A8jiv/i6gsCWdRXVsVNMQXjByKmZqFDyS5cRaA/3DGCukBRBwXDmuGHJHEPhM4cJ9JatzKzKgykoFqHC1yM8KlL8rCb5lcdOdJoS87iLZlPIlG2U6mDeCSrjSB0qW+Jfhkw2mTbPjDzlOo+UA5rg/iRlc3yfxeO4TuP8AG4/wP53wS1FVwgAqoVVKNSjyIQ5HEWEuAiwaXuIA9QFT/9k=;clipPath=inset(58.33% 0% 0% 4.47%);" vertex="1" parent="1">
                    <mxGeometry width="1003" height="558.4632516703786" as="geometry"/>
                </mxCell>
            </root>
        </mxGraphModel>
    </diagram>
</mxfile>